<svg width="28" height="29" viewBox="0 0 28 29" fill="none" xmlns="http://www.w3.org/2000/svg">
<path opacity="0.8" d="M26.717 16.934L24.23 19.419V21.403C24.2289 22.3193 23.8645 23.1977 23.2166 23.8456C22.5687 24.4935 21.6903 24.858 20.774 24.859H18.792L16.306 27.343C15.9852 27.6639 15.6044 27.9185 15.1852 28.0922C14.766 28.2659 14.3167 28.3553 13.863 28.3553C13.4093 28.3553 12.96 28.2659 12.5408 28.0922C12.1216 27.9185 11.7408 27.6639 11.42 27.343L8.935 24.858H6.952C6.03643 24.8562 5.15892 24.4915 4.5117 23.8439C3.86448 23.1963 3.50032 22.3186 3.499 21.403V19.419L1.011 16.934C0.363765 16.2855 0.000259399 15.4067 0.000259399 14.4905C0.000259399 13.5743 0.363765 12.6955 1.011 12.047L3.499 9.56201V7.58001C3.50005 6.66427 3.8641 5.78629 4.51134 5.13848C5.15859 4.49067 6.03625 4.12586 6.952 4.12401H8.935L11.42 1.63801C12.0783 1.00965 12.9534 0.659058 13.8635 0.659058C14.7736 0.659058 15.6487 1.00965 16.307 1.63801L18.792 4.12301H20.774C21.0673 4.14032 21.3429 4.26901 21.5444 4.48278C21.7459 4.69655 21.8581 4.97923 21.8581 5.27301C21.8581 5.5668 21.7459 5.84948 21.5444 6.06325C21.3429 6.27701 21.0673 6.40571 20.774 6.42301H18.315C18.1637 6.42313 18.0139 6.39333 17.8742 6.33532C17.7345 6.27731 17.6077 6.19224 17.501 6.08501L14.677 3.26601C14.4574 3.05686 14.1658 2.9402 13.8625 2.9402C13.5592 2.9402 13.2676 3.05686 13.048 3.26601L10.226 6.08901C10.1192 6.19616 9.99238 6.28117 9.85269 6.33917C9.71301 6.39717 9.56325 6.42702 9.412 6.42701H6.952C6.64655 6.42701 6.35358 6.54821 6.13741 6.76401C5.92124 6.97981 5.79953 7.27256 5.799 7.57801V10.038C5.79901 10.1893 5.76915 10.339 5.71115 10.4787C5.65315 10.6184 5.56814 10.7453 5.461 10.852L2.64 13.674C2.42419 13.8903 2.303 14.1834 2.303 14.489C2.303 14.7946 2.42419 15.0877 2.64 15.304L5.462 18.126C5.56914 18.2328 5.65415 18.3596 5.71215 18.4993C5.77015 18.639 5.80001 18.7888 5.8 18.94V21.403C5.80053 21.7082 5.92213 22.0007 6.13812 22.2163C6.3541 22.4319 6.64681 22.553 6.952 22.553H9.412C9.56326 22.5529 9.71306 22.5827 9.85276 22.6407C9.99246 22.6987 10.1193 22.7838 10.226 22.891L13.049 25.713C13.2681 25.9228 13.5597 26.0399 13.863 26.0399C14.1663 26.0399 14.4579 25.9228 14.677 25.713L17.499 22.891C17.6058 22.7839 17.7326 22.6989 17.8723 22.6409C18.012 22.5829 18.1617 22.553 18.313 22.553H20.772C20.9233 22.5533 21.0731 22.5237 21.213 22.4661C21.3529 22.4084 21.48 22.3238 21.5872 22.217C21.6943 22.1102 21.7794 21.9834 21.8375 21.8437C21.8957 21.704 21.9257 21.5543 21.926 21.403V18.943C21.9259 18.7917 21.9557 18.642 22.0137 18.5023C22.0717 18.3626 22.1568 18.2357 22.264 18.129L25.087 15.303C25.3028 15.0867 25.424 14.7936 25.424 14.488C25.424 14.1824 25.3028 13.8893 25.087 13.673C24.98 13.566 24.8952 13.4389 24.8373 13.2991C24.7795 13.1593 24.7497 13.0095 24.7498 12.8582C24.7499 12.5526 24.8713 12.2595 25.0875 12.0435C25.3036 11.8275 25.5968 11.7062 25.9023 11.7063C26.2079 11.7064 26.501 11.8279 26.717 12.044C27.3632 12.6929 27.726 13.5713 27.726 14.487C27.726 15.4027 27.3632 16.2812 26.717 16.93V16.934ZM12.348 16.447L8.872 13.003C8.65492 12.7879 8.36128 12.6679 8.05569 12.6693C7.7501 12.6707 7.45759 12.7934 7.2425 13.0105C7.02741 13.2276 6.90736 13.5212 6.90877 13.8268C6.91017 14.1324 7.03292 14.4249 7.25 14.64L10.728 18.083C11.4132 18.7581 12.3368 19.136 13.2987 19.1348C14.2606 19.1337 15.1833 18.7537 15.867 18.077L26.153 7.86101C26.3698 7.64566 26.4922 7.35299 26.4932 7.0474C26.4943 6.74181 26.3739 6.44833 26.1585 6.23151C25.9431 6.0147 25.6505 5.89231 25.3449 5.89128C25.0393 5.89025 24.7458 6.01066 24.529 6.22601L14.242 16.446C13.99 16.6955 13.6496 16.8355 13.295 16.8355C12.9403 16.8355 12.6 16.6955 12.348 16.446V16.447Z" fill="white"/>
</svg>
