<svg width="44" height="45" viewBox="0 0 44 45" fill="none" xmlns="http://www.w3.org/2000/svg">
<path d="M21.9999 44.215C17.6488 44.2149 13.3955 42.9245 9.77774 40.5071C6.15999 38.0897 3.3403 34.6538 1.67523 30.6339C0.010161 26.614 -0.425511 22.1907 0.423306 17.9232C1.27212 13.6557 3.36731 9.73575 6.44392 6.659C10.5698 2.53315 16.1656 0.215282 22.0004 0.215282C27.8352 0.215283 33.4311 2.53316 37.5569 6.659C41.6828 10.7848 44.0006 16.3807 44.0006 22.2155C44.0006 28.0503 41.6828 33.6462 37.5569 37.772C35.5187 39.8213 33.0942 41.4459 30.4238 42.5518C27.7534 43.6578 24.8902 44.2231 21.9999 44.215ZM27.1199 15.807L14.2699 28.657C14.1002 28.8283 14.0049 29.0598 14.0049 29.301C14.0048 29.4809 14.0581 29.6567 14.158 29.8063C14.2578 29.9558 14.3998 30.0724 14.566 30.1413C14.7322 30.2101 14.915 30.2281 15.0914 30.193C15.2678 30.1579 15.4298 30.0712 15.5569 29.944L28.4239 17.077L28.1699 26.705C28.1667 26.8247 28.1872 26.9439 28.2301 27.0557C28.273 27.1675 28.3376 27.2698 28.42 27.3566C28.5025 27.4435 28.6013 27.5132 28.7108 27.5618C28.8202 27.6105 28.9382 27.637 29.0579 27.64H29.0829C29.3209 27.6408 29.5497 27.5481 29.7199 27.3818C29.8902 27.2155 29.9882 26.9889 29.9929 26.751L30.2619 15.8C30.2655 15.5592 30.2212 15.32 30.1315 15.0964C30.0419 14.8729 29.9087 14.6694 29.7398 14.4977C29.5708 14.326 29.3694 14.1897 29.1473 14.0965C28.9252 14.0033 28.6868 13.9552 28.4459 13.955H28.4399L17.4669 14.215C17.225 14.2182 16.9943 14.3173 16.8256 14.4906C16.6568 14.6639 16.5637 14.8971 16.5669 15.139C16.5701 15.3809 16.6692 15.6116 16.8425 15.7804C17.0158 15.9491 17.249 16.0422 17.4909 16.039H17.5139L27.1139 15.805L27.1199 15.807Z" fill="black"/>
</svg>
