<svg width="30" height="27" viewBox="0 0 30 27" fill="none" xmlns="http://www.w3.org/2000/svg">
<path d="M13.997 26.7608C11.9349 26.7615 9.90091 26.2817 8.05649 25.3595C6.21206 24.4372 4.6079 23.0979 3.37123 21.4477C2.13456 19.7975 1.29939 17.8819 0.931979 15.8527C0.564564 13.8236 0.675005 11.7367 1.25454 9.75766C1.83408 7.77862 2.86677 5.96184 4.27071 4.45141C5.67465 2.94097 7.41121 1.77844 9.34268 1.056C11.2741 0.333572 13.3474 0.0711158 15.3979 0.289452C17.4485 0.507788 19.42 1.20091 21.156 2.31385C21.3512 2.4467 21.4868 2.6505 21.534 2.88186C21.5811 3.11321 21.5361 3.35383 21.4085 3.55248C21.2809 3.75114 21.0807 3.89212 20.8507 3.94542C20.6207 3.99872 20.379 3.96012 20.177 3.83785C18.0332 2.46524 15.4935 1.84539 12.9585 2.07605C10.4234 2.30671 8.03729 3.37476 6.17646 5.11173C4.31564 6.8487 3.08603 9.15573 2.68159 11.6689C2.27714 14.1821 2.72088 16.7584 3.94281 18.9915C5.16475 21.2246 7.09532 22.9873 9.43003 24.0017C11.7647 25.016 14.3707 25.2242 16.8368 24.5935C19.303 23.9628 21.489 22.529 23.05 20.5183C24.611 18.5075 25.4582 16.0344 25.458 13.4888C25.458 13.1118 25.44 12.7368 25.405 12.3698C25.3853 12.2476 25.3909 12.1227 25.4214 12.0027C25.4519 11.8827 25.5067 11.7703 25.5824 11.6723C25.658 11.5743 25.7529 11.4929 25.8613 11.433C25.9696 11.3731 26.0891 11.3361 26.2123 11.3242C26.3355 11.3122 26.4599 11.3257 26.5777 11.3637C26.6955 11.4017 26.8043 11.4635 26.8973 11.5452C26.9903 11.6269 27.0656 11.7267 27.1185 11.8386C27.1715 11.9506 27.2009 12.0721 27.205 12.1958C27.2457 12.6218 27.266 13.0552 27.266 13.4958C27.2599 17.0128 25.8599 20.3838 23.3726 22.8703C20.8854 25.3568 17.5139 26.7558 13.997 26.7608Z" fill="black"/>
<path d="M15.504 16.507C15.3853 16.5072 15.2677 16.4838 15.158 16.4384C15.0483 16.3929 14.9488 16.3261 14.865 16.242L9.436 10.813C9.34569 10.7304 9.27303 10.6304 9.22244 10.519C9.17185 10.4075 9.14436 10.287 9.14163 10.1646C9.1389 10.0423 9.16097 9.92065 9.20654 9.80707C9.25211 9.69348 9.32023 9.59031 9.40677 9.50377C9.4933 9.41724 9.59647 9.34913 9.71005 9.30356C9.82363 9.25799 9.94527 9.2359 10.0676 9.23864C10.19 9.24137 10.3105 9.26886 10.4219 9.31946C10.5334 9.37005 10.6334 9.4427 10.716 9.53301L15.506 14.323L28.138 1.69101C28.3102 1.53358 28.5364 1.44863 28.7696 1.45384C29.0029 1.45905 29.2251 1.55402 29.39 1.71897C29.555 1.88393 29.65 2.10616 29.6552 2.33939C29.6604 2.57261 29.5754 2.79886 29.418 2.97101L16.148 16.242C15.978 16.4113 15.7479 16.5062 15.508 16.506L15.504 16.507Z" fill="black"/>
</svg>
