<svg width="78" height="114" viewBox="0 0 78 114" fill="none" xmlns="http://www.w3.org/2000/svg">
<path d="M21.355 113.168C19.921 113 10.389 111.695 5.56098 106.726C0.333977 101.344 0.799977 92.179 0.799977 92.179L0.806977 92.172C0.83347 91.4385 1.1444 90.7441 1.67393 90.2359C2.20346 89.7276 2.91001 89.4454 3.64398 89.449C3.72931 89.449 3.81398 89.4527 3.89798 89.46C5.28498 89.52 13.43 90.129 18.298 96.211C23.631 102.876 23.517 111.478 23.517 111.478L23.51 111.485C23.5088 111.713 23.4627 111.939 23.3743 112.149C23.2859 112.359 23.157 112.55 22.9949 112.711C22.8327 112.871 22.6406 112.998 22.4294 113.084C22.2182 113.17 21.9921 113.214 21.764 113.213C21.6264 113.214 21.4891 113.199 21.355 113.168ZM75.855 112.837C75.6225 112.833 75.395 112.768 75.196 112.648L30.061 94.364C28.9169 94.0066 27.9164 93.2939 27.2049 92.3294C26.4933 91.3648 26.1077 90.1986 26.104 89C26.104 88.8293 26.1116 88.6607 26.127 88.494L26.111 72.863L26.128 72.851C26.128 72.834 26.128 72.817 26.128 72.8C26.1351 72.5739 26.2006 72.3535 26.318 72.1602C26.4354 71.9668 26.6007 71.8071 26.798 71.6964C26.9952 71.5858 27.2177 71.528 27.4439 71.5286C27.6701 71.5292 27.8923 71.5882 28.089 71.7L74.379 91C74.486 91.04 74.591 91.084 74.694 91.131H74.703C75.4518 91.477 76.0862 92.0299 76.5314 92.7243C76.9766 93.4188 77.2141 94.2261 77.216 95.051L77.189 111.462C77.189 111.495 77.189 111.529 77.189 111.562C77.1822 111.904 77.0409 112.229 76.7959 112.468C76.5509 112.706 76.2219 112.838 75.88 112.836L75.855 112.837ZM21.355 83.352C19.921 83.181 10.389 81.879 5.56098 76.91C0.333977 71.528 0.799977 62.362 0.799977 62.362L0.806977 62.355C0.83347 61.6215 1.1444 60.9271 1.67393 60.4189C2.20346 59.9106 2.91001 59.6284 3.64398 59.632C3.72931 59.632 3.81398 59.6357 3.89798 59.643C5.28498 59.703 13.43 60.312 18.298 66.394C23.631 73.059 23.517 81.661 23.517 81.661L23.51 81.668C23.5093 81.8967 23.4635 82.123 23.3752 82.334C23.2868 82.5449 23.1577 82.7363 22.9952 82.8973C22.8327 83.0582 22.64 83.1854 22.4282 83.2717C22.2164 83.358 21.9897 83.4016 21.761 83.4C21.6243 83.3996 21.488 83.3835 21.355 83.352ZM40.155 69.776L29.159 65.392C29.0363 65.348 28.9153 65.2997 28.796 65.247L28.747 65.227C27.8215 64.8122 27.0384 64.1345 26.4949 63.2783C25.9515 62.4221 25.6716 61.425 25.6901 60.411C25.7087 59.397 26.0248 58.4109 26.5992 57.5751C27.1736 56.7393 27.981 56.0907 28.921 55.71L74.521 35.148C74.6849 35.0822 74.8604 35.0499 75.037 35.053C75.2081 35.0548 75.3772 35.0904 75.5346 35.1578C75.6919 35.2251 75.8344 35.3228 75.9539 35.4454C76.0734 35.568 76.1675 35.7129 76.2309 35.8719C76.2942 36.0309 76.3255 36.2009 76.323 36.372C76.323 36.404 76.323 36.435 76.318 36.467L75.909 53.429C75.909 53.471 75.909 53.514 75.909 53.556C75.9056 54.4643 75.6172 55.3487 75.0843 56.0843C74.5514 56.82 73.801 57.3697 72.939 57.656L45.172 69.844C44.3947 70.2486 43.5292 70.4542 42.6529 70.4424C41.7767 70.4305 40.917 70.2015 40.151 69.776H40.155ZM21.355 53.536C19.921 53.365 10.389 52.063 5.56098 47.094C0.333977 41.712 0.799977 32.546 0.799977 32.546L0.806977 32.539C0.83347 31.8055 1.1444 31.1111 1.67393 30.6029C2.20346 30.0946 2.91001 29.8124 3.64398 29.816C3.72931 29.816 3.81398 29.8197 3.89798 29.827C5.28498 29.887 13.43 30.496 18.298 36.579C23.631 43.244 23.517 51.846 23.517 51.846L23.51 51.852C23.5088 52.0801 23.4627 52.3057 23.3743 52.516C23.2859 52.7263 23.157 52.9171 22.9949 53.0776C22.8327 53.2381 22.6406 53.365 22.4294 53.4512C22.2182 53.5374 21.9921 53.5812 21.764 53.58C21.6264 53.5813 21.4891 53.5666 21.355 53.536ZM57.043 33.76C57.0162 33.7583 56.9898 33.7523 56.965 33.742C56.687 33.577 28.117 21.188 28.117 21.188L28.104 21.17C27.4433 20.8438 26.8768 20.3545 26.4579 19.7484C26.039 19.1422 25.7816 18.4393 25.71 17.706C25.7071 17.6972 25.7051 17.6882 25.704 17.679C25.704 17.669 25.704 17.6473 25.704 17.614C25.6966 17.5093 25.693 17.404 25.693 17.298C25.693 17.2187 25.6953 17.14 25.7 17.062C25.686 14.362 25.7 3.77499 25.7 2.18199C25.6658 1.90369 25.6923 1.62129 25.7774 1.35415C25.8626 1.087 26.0045 0.841409 26.1933 0.63419C26.3822 0.426971 26.6137 0.263019 26.8718 0.153558C27.13 0.0440976 27.4087 -0.00828591 27.689 -5.70173e-06C27.9192 0.00379094 28.1469 0.047786 28.362 0.129994H28.367L72.867 19.34V19.347C73.6678 19.6529 74.3708 20.1702 74.901 20.8438C75.4313 21.5174 75.769 22.3222 75.8783 23.1725C75.9875 24.0228 75.8642 24.8868 75.5215 25.6726C75.1788 26.4584 74.6295 27.1366 73.932 27.635L66.459 32.632C65.1476 33.6729 63.573 34.3295 61.9105 34.5284C60.2481 34.7274 58.563 34.462 57.043 33.76ZM21.355 23.719C19.921 23.549 10.389 22.246 5.56098 17.278C0.333977 11.9 0.799977 2.72999 0.799977 2.72999L0.806977 2.72299C0.83347 1.9895 1.1444 1.29511 1.67393 0.786855C2.20346 0.278603 2.91001 -0.00360174 3.64398 -5.70173e-06C3.72931 -5.70173e-06 3.81398 0.00366097 3.89798 0.0109943C5.28498 0.0709943 13.43 0.679995 18.298 6.76199C23.631 13.427 23.517 22.029 23.517 22.029L23.51 22.036C23.5088 22.2641 23.4627 22.4897 23.3743 22.7C23.2859 22.9103 23.157 23.1012 22.9949 23.2616C22.8327 23.4221 22.6406 23.549 22.4294 23.6352C22.2182 23.7214 21.9921 23.7652 21.764 23.764C21.6264 23.765 21.4891 23.7499 21.355 23.719Z" fill="white"/>
</svg>
