<svg width="97" height="97" viewBox="0 0 97 97" fill="none" xmlns="http://www.w3.org/2000/svg">
<path opacity="0.2" d="M48.457 0C58.0409 0 67.4096 2.84195 75.3783 8.16648C83.347 13.491 89.5578 21.059 93.2254 29.9133C96.893 38.7677 97.8526 48.5108 95.9829 57.9105C94.1132 67.3102 89.4981 75.9444 82.7213 82.7213C75.9444 89.4981 67.3102 94.1132 57.9105 95.9829C48.5108 97.8526 38.7677 96.893 29.9133 93.2254C21.059 89.5578 13.491 83.347 8.16648 75.3783C2.84195 67.4096 0 58.0409 0 48.457C0 35.6054 5.10528 23.2802 14.1927 14.1927C23.2802 5.10528 35.6054 0 48.457 0Z" fill="#A29794"/>
<path d="M48.038 90.607C71.2549 90.607 90.076 71.7859 90.076 48.569C90.076 25.3521 71.2549 6.53101 48.038 6.53101C24.8211 6.53101 6 25.3521 6 48.569C6 71.7859 24.8211 90.607 48.038 90.607Z" fill="#A29794"/>
<path d="M42.4182 28.436H30.5142C29.293 28.4373 28.1222 28.923 27.2587 29.7865C26.3952 30.65 25.9095 31.8208 25.9082 33.042V64.959C25.9098 66.1801 26.3956 67.3507 27.259 68.2142C28.1225 69.0776 29.2931 69.5634 30.5142 69.565H42.4142C43.6354 69.5636 44.8062 69.0779 45.6697 68.2144C46.5332 67.3509 47.0189 66.1802 47.0202 64.959V33.042C47.0191 31.8214 46.5341 30.6511 45.6714 29.7876C44.8087 28.9242 43.6388 28.4381 42.4182 28.436ZM44.4272 64.959C44.4267 65.4916 44.2148 66.0023 43.8382 66.379C43.4615 66.7556 42.9509 66.9674 42.4182 66.968H30.5142C29.9821 66.9666 29.4721 66.7545 29.0961 66.3779C28.7202 66.0013 28.5087 65.4911 28.5082 64.959V33.042C28.5087 32.5098 28.7202 31.9996 29.0961 31.623C29.4721 31.2465 29.9821 31.0343 30.5142 31.033H42.4142C42.9469 31.0335 43.4576 31.2453 43.8342 31.622C44.2108 31.9986 44.4227 32.5093 44.4232 33.042V64.959H44.4272Z" fill="white"/>
<path d="M36.466 50.456C35.6684 50.4568 34.9037 50.7739 34.3396 51.3378C33.7755 51.9017 33.4581 52.6664 33.457 53.464V61.809C33.457 62.2041 33.5349 62.5954 33.6861 62.9605C33.8373 63.3256 34.0589 63.6573 34.3383 63.9367C34.6178 64.2161 34.9495 64.4377 35.3145 64.5889C35.6796 64.7402 36.0709 64.818 36.466 64.818C36.8612 64.818 37.2525 64.7402 37.6175 64.5889C37.9826 64.4377 38.3143 64.2161 38.5937 63.9367C38.8731 63.6573 39.0948 63.3256 39.246 62.9605C39.3972 62.5954 39.475 62.2041 39.475 61.809V53.464C39.474 52.6665 39.1567 51.9021 38.5928 51.3382C38.029 50.7743 37.2645 50.4571 36.467 50.456H36.466ZM37.31 61.809C37.3139 61.9223 37.295 62.0353 37.2543 62.1412C37.2136 62.247 37.152 62.3436 37.0732 62.4252C36.9944 62.5068 36.9 62.5716 36.7956 62.6159C36.6912 62.6602 36.5789 62.6831 36.4655 62.6831C36.3521 62.6831 36.2399 62.6602 36.1355 62.6159C36.0311 62.5716 35.9366 62.5068 35.8578 62.4252C35.779 62.3436 35.7175 62.247 35.6768 62.1412C35.6361 62.0353 35.6171 61.9223 35.621 61.809V53.464C35.6286 53.245 35.7208 53.0376 35.8784 52.8854C36.0359 52.7331 36.2465 52.6481 36.4655 52.6481C36.6846 52.6481 36.8951 52.7331 37.0527 52.8854C37.2102 53.0376 37.3025 53.245 37.31 53.464V61.809Z" fill="white"/>
<path d="M36.466 41.2819C35.6684 41.2827 34.9037 41.5999 34.3396 42.1638C33.7755 42.7277 33.4581 43.4923 33.457 44.2899V45.4719C33.457 45.8671 33.5349 46.2583 33.6861 46.6234C33.8373 46.9885 34.0589 47.3202 34.3383 47.5996C34.6178 47.879 34.9495 48.1007 35.3145 48.2519C35.6796 48.4031 36.0709 48.4809 36.466 48.4809C36.8612 48.4809 37.2525 48.4031 37.6175 48.2519C37.9826 48.1007 38.3143 47.879 38.5937 47.5996C38.8731 47.3202 39.0948 46.9885 39.246 46.6234C39.3972 46.2583 39.475 45.8671 39.475 45.4719V44.2899C39.474 43.4925 39.1567 42.728 38.5928 42.1641C38.029 41.6002 37.2645 41.283 36.467 41.2819H36.466ZM37.31 45.4719C37.3025 45.6909 37.2102 45.8983 37.0527 46.0506C36.8951 46.2028 36.6846 46.2879 36.4655 46.2879C36.2465 46.2879 36.0359 46.2028 35.8784 46.0506C35.7208 45.8983 35.6286 45.6909 35.621 45.4719V44.2899C35.6286 44.071 35.7208 43.8635 35.8784 43.7113C36.0359 43.5591 36.2465 43.474 36.4655 43.474C36.6846 43.474 36.8951 43.5591 37.0527 43.7113C37.2102 43.8635 37.3025 44.071 37.31 44.2899V45.4719Z" fill="white"/>
<path d="M36.466 33.1819C35.6689 33.1827 34.9046 33.4995 34.3406 34.0627C33.7766 34.626 33.4589 35.3898 33.457 36.1869V37.3679C33.457 37.7631 33.5349 38.1544 33.6861 38.5194C33.8373 38.8845 34.0589 39.2162 34.3383 39.4956C34.6178 39.775 34.9495 39.9967 35.3145 40.1479C35.6796 40.2991 36.0709 40.3769 36.466 40.3769C36.8612 40.3769 37.2525 40.2991 37.6175 40.1479C37.9826 39.9967 38.3143 39.775 38.5937 39.4956C38.8731 39.2162 39.0948 38.8845 39.246 38.5194C39.3972 38.1544 39.475 37.7631 39.475 37.3679V36.1869C39.4729 35.3901 39.1552 34.6265 38.5915 34.0634C38.0278 33.5002 37.2639 33.1833 36.467 33.1819H36.466ZM37.31 37.3709C37.3025 37.5899 37.2102 37.7974 37.0527 37.9496C36.8951 38.1018 36.6846 38.1869 36.4655 38.1869C36.2465 38.1869 36.0359 38.1018 35.8784 37.9496C35.7208 37.7974 35.6286 37.5899 35.621 37.3709V36.1869C35.6286 35.968 35.7208 35.7605 35.8784 35.6083C36.0359 35.4561 36.2465 35.371 36.4655 35.371C36.6846 35.371 36.8951 35.4561 37.0527 35.6083C37.2102 35.7605 37.3025 35.968 37.31 36.1869V37.3709Z" fill="white"/>
<path d="M65.5627 28.436H53.6627C52.4408 28.436 51.2688 28.9211 50.4044 29.7848C49.54 30.6485 49.0538 31.82 49.0527 33.042V64.959C49.0541 66.1802 49.5398 67.3509 50.4033 68.2144C51.2668 69.0779 52.4376 69.5636 53.6587 69.565H65.5587C66.7799 69.5636 67.9507 69.0779 68.8142 68.2144C69.6777 67.3509 70.1634 66.1802 70.1647 64.959V33.042C70.1637 31.8214 69.6786 30.6511 68.8159 29.7876C67.9532 28.9242 66.7833 28.4381 65.5627 28.436ZM67.5707 64.959C67.5702 65.4916 67.3584 66.0023 66.9817 66.379C66.6051 66.7556 66.0944 66.9674 65.5617 66.968H53.6617C53.1291 66.9674 52.6184 66.7556 52.2417 66.379C51.8651 66.0023 51.6533 65.4916 51.6527 64.959V33.042C51.6533 32.5093 51.8651 31.9986 52.2417 31.622C52.6184 31.2453 53.1291 31.0335 53.6617 31.033H65.5617C66.0944 31.0335 66.6051 31.2453 66.9817 31.622C67.3584 31.9986 67.5702 32.5093 67.5707 33.042V64.959Z" fill="white"/>
<path d="M59.6106 50.456C58.8129 50.4568 58.0482 50.7739 57.4841 51.3378C56.92 51.9017 56.6026 52.6664 56.6016 53.464V61.809C56.6016 62.2041 56.6794 62.5954 56.8306 62.9605C56.9818 63.3256 57.2035 63.6573 57.4829 63.9367C57.7623 64.2161 58.094 64.4377 58.4591 64.5889C58.8241 64.7402 59.2154 64.818 59.6106 64.818C60.0057 64.818 60.397 64.7402 60.7621 64.5889C61.1271 64.4377 61.4588 64.2161 61.7382 63.9367C62.0177 63.6573 62.2393 63.3256 62.3905 62.9605C62.5417 62.5954 62.6196 62.2041 62.6196 61.809V53.464C62.6185 52.6665 62.3013 51.9021 61.7374 51.3382C61.1735 50.7743 60.408 50.4571 59.6106 50.456ZM60.4546 61.809C60.4585 61.9223 60.4395 62.0353 60.3988 62.1412C60.3581 62.247 60.2966 62.3436 60.2178 62.4252C60.139 62.5068 60.0445 62.5716 59.9401 62.6159C59.8357 62.6602 59.7235 62.6831 59.6101 62.6831C59.4967 62.6831 59.3844 62.6602 59.28 62.6159C59.1756 62.5716 59.0812 62.5068 59.0024 62.4252C58.9236 62.3436 58.862 62.247 58.8213 62.1412C58.7806 62.0353 58.7617 61.9223 58.7656 61.809V53.464C58.7731 53.245 58.8654 53.0376 59.0229 52.8854C59.1805 52.7331 59.391 52.6481 59.6101 52.6481C59.8291 52.6481 60.0397 52.7331 60.1972 52.8854C60.3548 53.0376 60.447 53.245 60.4546 53.464V61.809Z" fill="white"/>
<path d="M59.6106 41.2819C58.8129 41.2827 58.0482 41.5999 57.4841 42.1638C56.92 42.7277 56.6026 43.4923 56.6016 44.2899V45.4719C56.6016 45.8671 56.6794 46.2583 56.8306 46.6234C56.9818 46.9885 57.2035 47.3202 57.4829 47.5996C57.7623 47.879 58.094 48.1007 58.4591 48.2519C58.8241 48.4031 59.2154 48.4809 59.6106 48.4809C60.0057 48.4809 60.397 48.4031 60.7621 48.2519C61.1271 48.1007 61.4588 47.879 61.7382 47.5996C62.0177 47.3202 62.2393 46.9885 62.3905 46.6234C62.5417 46.2583 62.6196 45.8671 62.6196 45.4719V44.2899C62.6185 43.4925 62.3013 42.728 61.7374 42.1641C61.1735 41.6002 60.408 41.283 59.6106 41.2819ZM60.4546 45.4719C60.447 45.6909 60.3548 45.8983 60.1972 46.0506C60.0397 46.2028 59.8291 46.2879 59.6101 46.2879C59.391 46.2879 59.1805 46.2028 59.0229 46.0506C58.8654 45.8983 58.7731 45.6909 58.7656 45.4719V44.2899C58.7731 44.071 58.8654 43.8635 59.0229 43.7113C59.1805 43.5591 59.391 43.474 59.6101 43.474C59.8291 43.474 60.0397 43.5591 60.1972 43.7113C60.3548 43.8635 60.447 44.071 60.4546 44.2899V45.4719Z" fill="white"/>
<path d="M59.6106 33.1819C58.8135 33.1827 58.0492 33.4995 57.4852 34.0627C56.9212 34.626 56.6034 35.3898 56.6016 36.1869V37.3679C56.6016 37.7631 56.6794 38.1544 56.8306 38.5194C56.9818 38.8845 57.2035 39.2162 57.4829 39.4956C57.7623 39.775 58.094 39.9967 58.4591 40.1479C58.8241 40.2991 59.2154 40.3769 59.6106 40.3769C60.0057 40.3769 60.397 40.2991 60.7621 40.1479C61.1271 39.9967 61.4588 39.775 61.7382 39.4956C62.0177 39.2162 62.2393 38.8845 62.3905 38.5194C62.5417 38.1544 62.6196 37.7631 62.6196 37.3679V36.1869C62.6174 35.3901 62.2998 34.6265 61.736 34.0634C61.1723 33.5002 60.4074 33.1833 59.6106 33.1819ZM60.4546 37.3709C60.447 37.5899 60.3548 37.7974 60.1972 37.9496C60.0397 38.1018 59.8291 38.1869 59.6101 38.1869C59.391 38.1869 59.1805 38.1018 59.0229 37.9496C58.8654 37.7974 58.7731 37.5899 58.7656 37.3709V36.1869C58.7731 35.968 58.8654 35.7605 59.0229 35.6083C59.1805 35.4561 59.391 35.371 59.6101 35.371C59.8291 35.371 60.0397 35.4561 60.1972 35.6083C60.3548 35.7605 60.447 35.968 60.4546 36.1869V37.3709Z" fill="white"/>
</svg>
