<svg width="97" height="97" viewBox="0 0 97 97" fill="none" xmlns="http://www.w3.org/2000/svg">
<path opacity="0.2" d="M48.457 0C58.0409 0 67.4096 2.84195 75.3783 8.16648C83.347 13.491 89.5578 21.059 93.2254 29.9133C96.893 38.7677 97.8526 48.5108 95.9829 57.9105C94.1132 67.3102 89.4981 75.9444 82.7213 82.7213C75.9444 89.4981 67.3102 94.1132 57.9105 95.9829C48.5108 97.8526 38.7677 96.893 29.9133 93.2254C21.059 89.5578 13.491 83.347 8.16648 75.3783C2.84195 67.4096 0 58.0409 0 48.457C0 35.6054 5.10528 23.2802 14.1927 14.1927C23.2802 5.10528 35.6054 0 48.457 0Z" fill="#67997D"/>
<path d="M48.3446 90.607C71.5616 90.607 90.3826 71.7859 90.3826 48.569C90.3826 25.3521 71.5616 6.53101 48.3446 6.53101C25.1277 6.53101 6.30664 25.3521 6.30664 48.569C6.30664 71.7859 25.1277 90.607 48.3446 90.607Z" fill="#67997D"/>
<path d="M69.457 46.931C69.4548 45.3891 68.9193 43.8954 67.9412 42.7033C66.9631 41.5113 65.6028 40.6943 64.091 40.391V31.662C64.0909 31.0669 63.9206 30.4842 63.6003 29.9825C63.2801 29.4809 62.8231 29.0813 62.2832 28.8308C61.7434 28.5802 61.1432 28.4892 60.5533 28.5685C59.9635 28.6477 59.4086 28.8939 58.954 29.278C53.887 33.566 48.777 36.103 43.766 36.821C43.4765 36.8671 43.1952 36.955 42.931 37.082C42.7689 37.0124 42.5944 36.9767 42.418 36.977H35.955C33.5045 36.9772 31.1402 37.8816 29.315 39.5168C27.4899 41.152 26.3322 43.4032 26.0638 45.8389C25.7954 48.2747 26.4351 50.7239 27.8604 52.7173C29.2857 54.7107 31.3963 56.1082 33.788 56.642L35.573 63.491C35.7541 64.1877 36.1612 64.8046 36.7305 65.2451C37.2998 65.6856 37.9992 65.9247 38.719 65.925H42.252C42.7485 65.9251 43.2385 65.8114 43.6843 65.5927C44.13 65.374 44.5198 65.056 44.8235 64.6632C45.1273 64.2704 45.337 63.8133 45.4366 63.3268C45.5362 62.8404 45.523 62.3376 45.398 61.857L44.164 57.12C49.049 57.914 54.022 60.414 58.955 64.588C59.5145 65.0655 60.2255 65.3285 60.961 65.33C61.4182 65.3293 61.8698 65.2286 62.284 65.035C62.8262 64.7874 63.2853 64.3883 63.6061 63.8859C63.9268 63.3835 64.0956 62.7991 64.092 62.203V53.472C65.6039 53.1685 66.9642 52.3513 67.9423 51.1591C68.9203 49.9669 69.4548 48.4731 69.457 46.931ZM28.605 46.931C28.6066 44.9822 29.3813 43.1137 30.7591 41.7355C32.1369 40.3574 34.0052 39.5821 35.954 39.58H41.112V54.28H35.955C34.0067 54.2779 32.1389 53.5031 30.7612 52.1256C29.3834 50.748 28.6084 48.8803 28.606 46.932L28.605 46.931ZM42.76 63.065C42.7005 63.1431 42.6236 63.2063 42.5354 63.2495C42.4472 63.2927 42.3502 63.3148 42.252 63.314H38.718C38.5758 63.3139 38.4377 63.2666 38.3254 63.1796C38.213 63.0925 38.1326 62.9706 38.097 62.833L36.546 56.885H40.912C41.0542 56.8851 41.1923 56.9324 41.3046 57.0195C41.417 57.1065 41.4973 57.2284 41.533 57.366L42.873 62.509C42.8987 62.6039 42.9019 62.7035 42.8823 62.7999C42.8626 62.8963 42.8208 62.9877 42.76 63.065ZM61.483 62.196C61.4827 62.2939 61.4545 62.3897 61.4017 62.4721C61.3489 62.5546 61.2738 62.6203 61.185 62.6615C61.0962 62.7028 60.9975 62.7179 60.9004 62.705C60.8034 62.6922 60.712 62.6519 60.637 62.589C55.191 57.982 49.637 55.246 44.137 54.458C44.0194 54.438 43.9129 54.3766 43.8366 54.2849C43.7603 54.1932 43.7193 54.0773 43.721 53.958V39.905C43.7193 39.7857 43.7603 39.6698 43.8366 39.5781C43.9129 39.4864 44.0194 39.425 44.137 39.405C49.637 38.618 55.192 35.88 60.637 31.274C60.712 31.2111 60.8034 31.1708 60.9004 31.158C60.9975 31.1452 61.0962 31.1602 61.185 31.2015C61.2738 31.2427 61.3489 31.3084 61.4017 31.3909C61.4545 31.4733 61.4827 31.5691 61.483 31.667V62.199V62.196ZM64.091 50.777V43.083C64.8968 43.3547 65.597 43.8724 66.093 44.5631C66.589 45.2538 66.8557 46.0827 66.8557 46.933C66.8557 47.7833 66.589 48.6122 66.093 49.3029C65.597 49.9936 64.8968 50.5113 64.091 50.783V50.777Z" fill="white"/>
</svg>
