<svg width="97" height="97" viewBox="0 0 97 97" fill="none" xmlns="http://www.w3.org/2000/svg">
<path opacity="0.2" d="M48.457 0C58.0409 0 67.4096 2.84195 75.3783 8.16648C83.347 13.491 89.5578 21.059 93.2254 29.9133C96.893 38.7677 97.8526 48.5108 95.9829 57.9105C94.1132 67.3102 89.4981 75.9444 82.7213 82.7213C75.9444 89.4981 67.3102 94.1132 57.9105 95.9829C48.5108 97.8526 38.7677 96.893 29.9133 93.2254C21.059 89.5578 13.491 83.347 8.16648 75.3783C2.84195 67.4096 0 58.0409 0 48.457C0 35.6054 5.10528 23.2802 14.1927 14.1927C23.2802 5.10528 35.6054 0 48.457 0Z" fill="#DC6874"/>
<path d="M48.3446 90.607C71.5616 90.607 90.3826 71.7859 90.3826 48.569C90.3826 25.3521 71.5616 6.53101 48.3446 6.53101C25.1277 6.53101 6.30664 25.3521 6.30664 48.569C6.30664 71.7859 25.1277 90.607 48.3446 90.607Z" fill="#DC6874"/>
<path d="M64.3009 31.1268C61.0869 30.4758 56.5379 29.1168 53.1139 26.3568C51.9294 25.466 50.4874 24.9844 49.0054 24.9844C47.5233 24.9844 46.0814 25.466 44.8969 26.3568C41.4679 29.1168 36.9189 30.4758 33.7069 31.1258C32.3848 31.4059 31.1996 32.1332 30.3512 33.1851C29.5027 34.2371 29.0428 35.5493 29.0489 36.9008V50.2328C29.0451 51.9722 29.3241 53.7008 29.8749 55.3508C31.1889 59.2748 34.9939 66.5578 45.6829 71.2378C46.7294 71.6941 47.8587 71.9296 49.0004 71.9296C50.142 71.9296 51.2714 71.6941 52.3179 71.2378C63.0089 66.5578 66.8119 59.2758 68.1279 55.3508C68.6787 53.7008 68.9576 51.9722 68.9539 50.2328V36.9018C68.9604 35.551 68.5013 34.2392 67.6538 33.1873C66.8063 32.1354 65.6222 31.4077 64.3009 31.1268ZM66.1409 50.2338C66.1447 51.6696 65.915 53.0966 65.4609 54.4588C64.2929 57.9408 60.8869 64.4108 51.1899 68.6588C50.4997 68.9597 49.7548 69.1151 49.0019 69.1151C48.2489 69.1151 47.5041 68.9597 46.8139 68.6588C37.1219 64.4158 33.7139 57.9378 32.5479 54.4588C32.0942 53.0965 31.8646 51.6696 31.8679 50.2338V36.8998C31.8601 36.199 32.0937 35.5169 32.5295 34.968C32.9652 34.4192 33.5766 34.037 34.2609 33.8858C37.7819 33.1728 42.7899 31.6688 46.6539 28.5468C47.3382 28.0642 48.155 27.8052 48.9924 27.8052C49.8297 27.8052 50.6466 28.0642 51.3309 28.5468C55.1989 31.6688 60.2079 33.1738 63.7309 33.8868C64.4166 34.0365 65.0296 34.418 65.4668 34.967C65.904 35.516 66.1385 36.199 66.1309 36.9008L66.1409 50.2338Z" fill="white"/>
<path d="M49.0008 37.4359C46.8146 37.4091 44.6697 38.033 42.8388 39.2281C41.0079 40.4233 39.5737 42.1358 38.7184 44.148C37.8631 46.1603 37.6254 48.3814 38.0355 50.529C38.4456 52.6767 39.4849 54.6539 41.0214 56.2094C42.5579 57.765 44.5222 58.8286 46.6646 59.2651C48.8071 59.7016 51.0309 59.4913 53.0535 58.6609C55.0762 57.8304 56.8062 56.4174 58.0238 54.6014C59.2415 52.7854 59.8917 50.6483 59.8919 48.4619C59.8921 45.5609 58.749 42.7766 56.7103 40.7127C54.6716 38.6487 51.9017 37.4714 49.0008 37.4359ZM49.0008 56.6699C47.3717 56.6967 45.7715 56.2381 44.4039 55.3525C43.0362 54.4668 41.9631 53.1943 41.3211 51.6968C40.679 50.1993 40.4971 48.5446 40.7985 46.9434C41.1 45.3422 41.871 43.8669 43.0136 42.7053C44.1562 41.5438 45.6186 40.7485 47.2147 40.4208C48.8107 40.093 50.4681 40.2477 51.976 40.865C53.4839 41.4823 54.7739 42.5344 55.6819 43.8872C56.5899 45.2401 57.0748 46.8326 57.0749 48.4619C57.0762 50.6166 56.2303 52.6854 54.7198 54.2219C53.2093 55.7584 51.1552 56.6395 49.0008 56.6749V56.6699Z" fill="white"/>
<path d="M52.3647 44.8398L46.9927 49.8778L45.9727 48.8078C45.715 48.5374 45.3605 48.3804 44.9871 48.3714C44.6137 48.3624 44.2521 48.5021 43.9817 48.7598C43.7113 49.0174 43.5543 49.3719 43.5453 49.7453C43.5363 50.1187 43.676 50.4804 43.9337 50.7508L45.3737 52.2608C45.7739 52.682 46.3245 52.9277 46.9053 52.9444C47.4861 52.9611 48.0499 52.7473 48.4737 52.3498L54.2947 46.8918C54.4352 46.7668 54.5493 46.6148 54.6302 46.445C54.7111 46.2752 54.7571 46.0908 54.7656 45.9029C54.774 45.715 54.7447 45.5273 54.6794 45.3509C54.6141 45.1745 54.5141 45.0129 54.3854 44.8758C54.2566 44.7387 54.1017 44.6287 53.9297 44.5525C53.7577 44.4762 53.5722 44.4352 53.3841 44.4319C53.196 44.4285 53.0092 44.4629 52.8346 44.5329C52.66 44.603 52.5013 44.7073 52.3677 44.8398H52.3647Z" fill="white"/>
</svg>
