<svg width="97" height="97" viewBox="0 0 97 97" fill="none" xmlns="http://www.w3.org/2000/svg">
<path opacity="0.2" d="M48.457 0C58.0409 0 67.4096 2.84195 75.3783 8.16648C83.347 13.491 89.5578 21.059 93.2254 29.9133C96.893 38.7677 97.8526 48.5108 95.9829 57.9105C94.1132 67.3102 89.4981 75.9444 82.7213 82.7213C75.9444 89.4981 67.3102 94.1132 57.9105 95.9829C48.5108 97.8526 38.7677 96.893 29.9133 93.2254C21.059 89.5578 13.491 83.347 8.16648 75.3783C2.84195 67.4096 0 58.0409 0 48.457C0 35.6054 5.10528 23.2802 14.1927 14.1927C23.2802 5.10528 35.6054 0 48.457 0Z" fill="#D27644"/>
<path d="M48.3446 90.607C71.5616 90.607 90.3826 71.7859 90.3826 48.569C90.3826 25.3521 71.5616 6.53101 48.3446 6.53101C25.1277 6.53101 6.30664 25.3521 6.30664 48.569C6.30664 71.7859 25.1277 90.607 48.3446 90.607Z" fill="#D27644"/>
<path d="M28.9822 44.215H25.6152V46.766H28.9822V44.215Z" fill="white" stroke="#D27644" stroke-width="0.8"/>
<path d="M64.333 43.663C64.2597 43.4957 64.1406 43.3525 63.9896 43.2497C63.8385 43.1469 63.6616 43.0888 63.479 43.082H61.29C61.0049 43.1082 60.7415 43.2455 60.5566 43.4642C60.3718 43.6829 60.2804 43.9655 60.302 44.251V48.856C60.2801 49.1416 60.3714 49.4244 60.5563 49.6431C60.7412 49.8619 61.0048 49.9991 61.29 50.025H66.057C66.2477 49.9971 66.4287 49.923 66.5841 49.8092C66.7396 49.6954 66.8649 49.5453 66.9491 49.372C67.0333 49.1986 67.0739 49.0073 67.0672 48.8148C67.0606 48.6222 67.007 48.4341 66.911 48.267L64.333 43.663Z" fill="white" stroke="#D27644" stroke-width="0.8"/>
<path d="M61.4569 56.682C60.4113 56.682 59.3891 56.9921 58.5196 57.573C57.6502 58.154 56.9725 58.9797 56.5724 59.9458C56.1722 60.9118 56.0675 61.9749 56.2715 63.0004C56.4755 64.026 56.9791 64.9681 57.7185 65.7075C58.4579 66.4469 59.3999 66.9504 60.4255 67.1544C61.4511 67.3584 62.5141 67.2537 63.4802 66.8536C64.4462 66.4534 65.272 65.7757 65.8529 64.9063C66.4338 64.0369 66.7439 63.0147 66.7439 61.969C66.7439 60.5668 66.1869 59.222 65.1954 58.2305C64.2039 57.239 62.8591 56.682 61.4569 56.682ZM61.4569 63.889C61.0772 63.888 60.7063 63.7745 60.391 63.5628C60.0758 63.3511 59.8304 63.0508 59.6857 62.6997C59.5411 62.3486 59.5038 61.9625 59.5785 61.5902C59.6531 61.2179 59.8365 60.8761 60.1053 60.6079C60.3742 60.3397 60.7165 60.1573 61.089 60.0836C61.4615 60.0098 61.8475 60.0482 62.1982 60.1937C62.5489 60.3393 62.8487 60.5855 63.0595 60.9013C63.2704 61.2171 63.3829 61.5883 63.3829 61.968C63.3829 62.2207 63.3331 62.4709 63.2362 62.7043C63.1394 62.9377 62.9974 63.1497 62.8185 63.3281C62.6396 63.5066 62.4272 63.648 62.1936 63.7442C61.96 63.8405 61.7096 63.8897 61.4569 63.889Z" fill="white" stroke="#D27644" stroke-width="0.8"/>
<path d="M44.2715 60.286C44.5806 61.3871 44.5806 62.552 44.2715 63.653H55.2805C54.9705 62.5521 54.9705 61.3869 55.2805 60.286H44.2715Z" fill="white" stroke="#D27644" stroke-width="0.8"/>
<path d="M28.9822 56.604V52.376H25.6152V56.604C25.6177 58.3407 26.2605 60.0156 27.4207 61.308C28.5808 62.6005 30.1768 63.4197 31.9032 63.609C31.5983 62.4947 31.6091 61.3175 31.9342 60.209C31.102 60.0399 30.3536 59.5885 29.8157 58.9313C29.2779 58.2741 28.9834 57.4513 28.9822 56.602V56.604Z" fill="white" stroke="#D27644" stroke-width="0.8"/>
<path d="M76.4342 50.125C75.9522 49.4152 75.2463 48.8871 74.4292 48.625L71.9062 47.808L68.1062 41.117C67.6345 40.3105 66.9603 39.6412 66.1502 39.1755C65.3402 38.7098 64.4226 38.4639 63.4882 38.462H59.1272V36.708C59.1256 34.8396 58.3829 33.0482 57.0619 31.7268C55.7409 30.4055 53.9496 29.6622 52.0812 29.66H32.6632C30.7946 29.6619 29.0029 30.405 27.6816 31.7264C26.3602 33.0477 25.6171 34.8394 25.6152 36.708V38.608H28.9822V36.708C28.9836 35.7322 29.3718 34.7967 30.0618 34.1066C30.7519 33.4166 31.6874 33.0284 32.6632 33.027H52.0802C53.0559 33.0284 53.9912 33.4167 54.6809 34.1068C55.3706 34.7968 55.7584 35.7324 55.7592 36.708V59.038C56.4766 57.6515 57.6731 56.5726 59.1262 56.002V41.834H63.4902C63.8333 41.8339 64.1704 41.923 64.4685 42.0928C64.7666 42.2625 65.0153 42.5069 65.1902 42.802L69.0832 49.66C69.4341 50.2792 70.0054 50.7434 70.6832 50.96L73.4022 51.836C73.4992 51.8644 73.5842 51.9238 73.6442 52.005C73.6662 52.038 73.6822 52.066 73.6962 52.086V58.886C73.6931 59.0973 73.6421 59.3051 73.5472 59.4939C73.4523 59.6826 73.3159 59.8475 73.1482 59.976C72.905 60.1808 72.5972 60.2931 72.2792 60.293H67.6392C67.9483 61.3941 67.9483 62.559 67.6392 63.66H72.2802C73.421 63.6542 74.5222 63.241 75.3852 62.495C75.9103 62.0505 76.3317 61.4965 76.6198 60.8718C76.908 60.2471 77.0559 59.567 77.0532 58.879V51.901C77.03 51.26 76.8135 50.6409 76.4322 50.125H76.4342Z" fill="white" stroke="#D27644" stroke-width="0.8"/>
<path d="M38.0936 56.682C37.048 56.682 36.0258 56.9921 35.1563 57.573C34.2869 58.154 33.6093 58.9797 33.2091 59.9458C32.8089 60.9118 32.7042 61.9749 32.9082 63.0004C33.1122 64.026 33.6158 64.9681 34.3552 65.7075C35.0946 66.4469 36.0366 66.9504 37.0622 67.1544C38.0878 67.3584 39.1508 67.2537 40.1169 66.8536C41.083 66.4534 41.9087 65.7757 42.4896 64.9063C43.0706 64.0369 43.3806 63.0147 43.3806 61.969C43.3806 60.5668 42.8236 59.222 41.8321 58.2305C40.8406 57.239 39.4958 56.682 38.0936 56.682ZM38.0936 63.889C37.7137 63.889 37.3423 63.7763 37.0264 63.5653C36.7105 63.3542 36.4643 63.0542 36.3189 62.7031C36.1735 62.3521 36.1354 61.9659 36.2096 61.5932C36.2837 61.2206 36.4666 60.8783 36.7353 60.6097C37.0039 60.341 37.3462 60.158 37.7189 60.0839C38.0915 60.0098 38.4778 60.0478 38.8288 60.1932C39.1798 60.3386 39.4798 60.5848 39.6909 60.9008C39.902 61.2167 40.0146 61.5881 40.0146 61.968C40.0146 62.4775 39.8123 62.9661 39.452 63.3264C39.0917 63.6866 38.6031 63.889 38.0936 63.889Z" fill="white" stroke="#D27644" stroke-width="0.8"/>
<path d="M40.3218 49.5709C40.3218 49.1246 40.1445 48.6965 39.8289 48.3809C39.5132 48.0653 39.0852 47.8879 38.6388 47.8879H22.6288C22.1823 47.8879 21.7541 48.0653 21.4384 48.381C21.1227 48.6967 20.9453 49.1249 20.9453 49.5714C20.9453 50.0179 21.1227 50.4461 21.4384 50.7619C21.7541 51.0776 22.1823 51.2549 22.6288 51.2549H38.6378C39.0841 51.2547 39.512 51.0773 39.8276 50.7617C40.1431 50.4461 40.3205 50.0182 40.3208 49.5719L40.3218 49.5709Z" fill="white" stroke="#D27644" stroke-width="0.8"/>
<path d="M25.3573 43.093H40.4843C40.9308 43.093 41.359 42.9156 41.6747 42.5999C41.9905 42.2841 42.1678 41.8559 42.1678 41.4095C42.1678 40.963 41.9905 40.5348 41.6747 40.219C41.359 39.9033 40.9308 39.726 40.4843 39.726H25.3573C24.9108 39.726 24.4826 39.9033 24.1669 40.219C23.8512 40.5348 23.6738 40.963 23.6738 41.4095C23.6738 41.8559 23.8512 42.2841 24.1669 42.5999C24.4826 42.9156 24.9108 43.093 25.3573 43.093Z" fill="white" stroke="#D27644" stroke-width="0.8"/>
</svg>
