<svg width="78" height="78" viewBox="0 0 78 78" fill="none" xmlns="http://www.w3.org/2000/svg">
<path d="M66 0H12C5.37258 0 0 5.37258 0 12V66C0 72.6274 5.37258 78 12 78H66C72.6274 78 78 72.6274 78 66V12C78 5.37258 72.6274 0 66 0Z" fill="#DC6874"/>
<path fill-rule="evenodd" clip-rule="evenodd" d="M36.9757 18.069C31.8955 18.5651 27.1695 20.8932 23.6803 24.6188C20.1911 28.3443 18.1771 33.2125 18.0146 38.3143C17.852 43.416 19.5519 48.4025 22.7969 52.3427C26.0419 56.2828 30.61 58.9071 35.6483 59.7256C40.6866 60.5441 45.8506 59.5008 50.1759 56.7905C54.5013 54.0802 57.6923 49.8882 59.153 44.9973C60.6138 40.1065 60.2444 34.8511 58.114 30.2126C55.9835 25.5742 52.2376 21.8697 47.5757 19.791C44.2309 18.3774 40.5959 17.7869 36.9757 18.069ZM40.6587 24.53C42.1659 24.8931 43.5064 25.7544 44.4632 26.9743C45.4199 28.1943 45.9369 29.7014 45.9303 31.2518C45.9237 32.8021 45.394 34.3049 44.4269 35.5166C43.4598 36.7284 42.112 37.5782 40.6017 37.9285C39.0914 38.2788 37.5071 38.109 36.1054 37.4467C34.7036 36.7843 33.5665 35.6682 32.8781 34.279C32.1898 32.8899 31.9905 31.309 32.3125 29.7925C32.6346 28.2759 33.4591 26.9125 34.6527 25.923C35.4766 25.2399 36.4484 24.7583 37.491 24.5165C38.5336 24.2747 39.6182 24.2793 40.6587 24.53ZM44.2587 41.677C48.9587 42.44 51.8337 48.452 48.6937 50.958C45.977 53.1562 42.5922 54.3629 39.0976 54.3789C35.603 54.3949 32.2073 53.2193 29.4707 51.046C28.8712 50.6386 28.4185 50.0494 28.1792 49.3653C27.9399 48.6811 27.9268 47.9382 28.1417 47.246C28.4218 45.8709 29.1018 44.6091 30.0962 43.6189C31.0907 42.6287 32.3554 41.9542 33.7317 41.68C34.3567 41.58 43.6227 41.572 44.2617 41.68" fill="white"/>
</svg>
