<svg width="78" height="78" viewBox="0 0 78 78" fill="none" xmlns="http://www.w3.org/2000/svg">
<path d="M66 0H12C5.37258 0 0 5.37258 0 12V66C0 72.6274 5.37258 78 12 78H66C72.6274 78 78 72.6274 78 66V12C78 5.37258 72.6274 0 66 0Z" fill="#88A9C3"/>
<path d="M56.2287 48.8C55.9571 48.6238 55.6269 48.562 55.3099 48.6279C54.9929 48.6938 54.7147 48.8821 54.5357 49.152C52.7844 51.8677 50.3567 54.0809 47.491 55.5742C44.6254 57.0675 41.4205 57.7894 38.1913 57.6691C34.9622 57.5487 31.8199 56.5902 29.0734 54.8877C26.3269 53.1853 24.0706 50.7974 22.5263 47.959C20.982 45.1205 20.2029 41.929 20.2655 38.6982C20.3281 35.4674 21.2302 32.3085 22.8833 29.532C24.5364 26.7555 26.8835 24.4568 29.6939 22.862C32.5043 21.2673 35.6814 20.4312 38.9127 20.436C39.7047 20.4357 40.4959 20.4852 41.2817 20.584C41.4417 20.6071 41.6046 20.5981 41.7611 20.5576C41.9175 20.5171 42.0644 20.4459 42.193 20.3481C42.3217 20.2503 42.4296 20.1278 42.5104 19.9879C42.5913 19.848 42.6435 19.6933 42.664 19.533C42.6845 19.3727 42.6729 19.2099 42.6298 19.0542C42.5868 18.8984 42.5132 18.7527 42.4133 18.6257C42.3134 18.4986 42.1893 18.3927 42.048 18.3142C41.9068 18.2356 41.7514 18.1859 41.5907 18.168C40.7025 18.0562 39.808 18.0001 38.9127 18C35.2788 18.0141 31.7106 18.971 28.5572 20.777C25.4038 22.5831 22.773 25.1766 20.9221 28.304C19.0712 31.4313 18.0635 34.9854 17.9976 38.6188C17.9317 42.2522 18.8097 45.8406 20.546 49.033C22.2822 52.2254 24.8171 54.9127 27.9029 56.832C30.9888 58.7513 34.5198 59.837 38.1509 59.9829C41.782 60.1288 45.3888 59.33 48.6187 57.6645C51.8485 55.999 54.5909 53.5238 56.5777 50.481C56.6657 50.3473 56.7264 50.1975 56.7562 50.0403C56.786 49.883 56.7845 49.7214 56.7515 49.5648C56.7186 49.4082 56.6551 49.2596 56.5645 49.1277C56.4739 48.9957 56.3581 48.883 56.2237 48.796L56.2287 48.8Z" fill="white"/>
<path d="M59.8105 38.92C59.8022 38.6549 59.691 38.4034 59.5006 38.2188C59.3101 38.0342 59.0552 37.9309 58.79 37.9309C58.5247 37.9309 58.2699 38.0342 58.0794 38.2188C57.8889 38.4034 57.7778 38.6549 57.7695 38.92V39C57.7716 40.7884 57.517 42.5679 57.0135 44.284C56.976 44.4122 56.9642 44.5465 56.9787 44.6792C56.9932 44.812 57.0337 44.9406 57.098 45.0576C57.1623 45.1747 57.249 45.2779 57.3533 45.3613C57.4575 45.4448 57.5772 45.5069 57.7055 45.544C57.7988 45.5711 57.8954 45.5849 57.9925 45.585C58.2123 45.5849 58.4261 45.5139 58.6023 45.3826C58.7785 45.2513 58.9076 45.0666 58.9705 44.856C59.5301 42.95 59.813 40.9735 59.8105 38.987V38.92Z" fill="white"/>
<path d="M56.9899 33.642C57.0665 33.9015 57.2431 34.1199 57.4808 34.2493C57.7185 34.3786 57.9978 34.4081 58.2574 34.3315C58.5169 34.2548 58.7353 34.0783 58.8646 33.8405C58.9939 33.6028 59.0235 33.3235 58.9469 33.064C58.3762 31.1621 57.5342 29.3525 56.4469 27.691C56.299 27.4645 56.0674 27.3057 55.8028 27.2495C55.5382 27.1933 55.2621 27.2441 55.0349 27.391C54.9232 27.4632 54.8268 27.5567 54.7513 27.6661C54.6758 27.7756 54.6226 27.8988 54.5947 28.0288C54.5669 28.1588 54.5649 28.2931 54.5889 28.4239C54.613 28.5546 54.6626 28.6794 54.7349 28.791C55.716 30.2911 56.4755 31.9249 56.9899 33.642Z" fill="white"/>
<path d="M46.6922 21.899C48.3279 22.638 49.8502 23.6061 51.2132 24.774C51.4176 24.9505 51.6839 25.0386 51.9533 25.0188C52.2227 24.999 52.4732 24.873 52.6497 24.6685C52.8262 24.464 52.9142 24.1978 52.8944 23.9284C52.8746 23.659 52.7486 23.4085 52.5442 23.232C51.0337 21.9386 49.3468 20.8669 47.5342 20.049C47.4119 19.9867 47.2782 19.9497 47.1413 19.9405C47.0043 19.9312 46.8669 19.9498 46.7373 19.9951C46.6078 20.0404 46.4887 20.1114 46.3874 20.204C46.286 20.2966 46.2045 20.4088 46.1477 20.5337C46.0909 20.6587 46.06 20.7939 46.0569 20.9311C46.0538 21.0683 46.0785 21.2047 46.1296 21.3321C46.1806 21.4596 46.257 21.5753 46.354 21.6724C46.4511 21.7695 46.5668 21.8459 46.6942 21.897L46.6922 21.899Z" fill="white"/>
<path d="M38.9135 23.409C35.8331 23.4234 32.8259 24.3501 30.2717 26.0721C27.7175 27.7941 25.7306 30.2341 24.562 33.0843C23.3933 35.9345 23.0952 39.067 23.7053 42.0864C24.3154 45.1059 25.8063 47.8769 27.9899 50.0498C30.1735 52.2226 32.9518 53.6999 35.9742 54.2951C38.9967 54.8903 42.1277 54.5767 44.972 53.394C47.8164 52.2113 50.2467 50.2125 51.956 47.6498C53.6654 45.0871 54.5772 42.0755 54.5765 38.995C54.576 36.9419 54.1699 34.9091 53.3817 33.0133C52.5934 31.1175 51.4384 29.3961 49.9831 27.9479C48.5277 26.4997 46.8007 25.3533 44.901 24.5743C43.0014 23.7954 40.9666 23.3994 38.9135 23.409ZM47.9705 45.547C47.7941 45.7876 47.5298 45.9487 47.2351 45.9952C46.9404 46.0416 46.6393 45.9697 46.3975 45.795L38.2525 39.902C38.109 39.7984 37.9922 39.6623 37.9115 39.5048C37.8309 39.3473 37.7887 39.173 37.7885 38.996V30.965C37.7885 30.6664 37.9071 30.38 38.1183 30.1688C38.3295 29.9576 38.6159 29.839 38.9145 29.839C39.2131 29.839 39.4995 29.9576 39.7107 30.1688C39.9219 30.38 40.0405 30.6664 40.0405 30.965V38.427L47.7215 43.984C47.8409 44.0698 47.9422 44.1783 48.0195 44.3034C48.0969 44.4284 48.1487 44.5675 48.1721 44.7126C48.1956 44.8578 48.1901 45.0061 48.156 45.1491C48.1219 45.2922 48.0599 45.427 47.9735 45.546L47.9705 45.547Z" fill="white"/>
</svg>
