<svg width="12" height="12" viewBox="0 0 18 17" fill="none" xmlns="http://www.w3.org/2000/svg">
<path d="M1.40709 7.69898H14.4671L8.46209 1.97898C8.31105 1.83523 8.2233 1.63737 8.21814 1.42893C8.21299 1.22048 8.29085 1.01852 8.43459 0.867481C8.57834 0.71644 8.7762 0.628689 8.98465 0.623532C9.19309 0.618375 9.39505 0.696233 9.54609 0.839981L16.4041 7.37298C16.5512 7.52013 16.6677 7.69502 16.7467 7.88753C16.8258 8.08003 16.8658 8.28631 16.8645 8.49441C16.8632 8.7025 16.8206 8.90826 16.7392 9.09976C16.6577 9.29126 16.5391 9.46469 16.3901 9.60998L9.54609 16.124C9.47188 16.1977 9.3837 16.2559 9.28671 16.2951C9.18973 16.3343 9.0859 16.3537 8.98131 16.3523C8.87671 16.3508 8.77346 16.3285 8.6776 16.2866C8.58174 16.2448 8.4952 16.1842 8.42305 16.1085C8.3509 16.0327 8.2946 15.9433 8.25744 15.8456C8.22028 15.7478 8.20301 15.6436 8.20665 15.539C8.21029 15.4345 8.23475 15.3317 8.27862 15.2367C8.32248 15.1418 8.38486 15.0565 8.46209 14.986L14.4921 9.26598H1.40709C1.19863 9.26598 0.998711 9.18317 0.851308 9.03577C0.703904 8.88836 0.621094 8.68844 0.621094 8.47998C0.621094 8.27152 0.703904 8.0716 0.851308 7.9242C0.998711 7.77679 1.19863 7.69398 1.40709 7.69398V7.69898Z" fill="black" stroke="#171717" stroke-width="0.6"/>
</svg>
