<svg width="21" height="25" viewBox="0 0 21 25" fill="none" xmlns="http://www.w3.org/2000/svg">
<path d="M6.40329 24.957C3.74729 24.957 3.6863 24.937 3.4613 24.862C3.06927 24.7334 2.71807 24.5038 2.44313 24.1962C2.16818 23.8886 1.97922 23.5139 1.8953 23.11C1.8063 22.666 1.18529 9.13099 1.25329 9.05099C1.30129 8.99299 5.8613 8.96699 10.0783 8.96699C14.4783 8.96699 18.9423 8.99499 18.9943 9.05599C19.0573 9.13199 18.4403 22.666 18.3533 23.115C18.2795 23.4694 18.1246 23.8019 17.9008 24.0864C17.677 24.371 17.3904 24.5998 17.0633 24.755L16.6813 24.942L10.2243 24.955H9.9853L6.40329 24.957ZM14.0383 10.192C13.9019 10.1952 13.7686 10.2337 13.6515 10.3038C13.5344 10.374 13.4375 10.4732 13.3703 10.592C13.2883 10.73 13.2523 13.492 13.2523 16.001C13.2523 18.51 13.2893 21.273 13.3703 21.41C13.4338 21.5285 13.5282 21.6276 13.6436 21.6967C13.7589 21.7658 13.8908 21.8022 14.0253 21.8022C14.1597 21.8022 14.2917 21.7658 14.407 21.6967C14.5224 21.6276 14.6168 21.5285 14.6803 21.41C14.7803 21.24 14.7803 21.24 14.7803 16V14.83C14.7803 10.53 14.7803 10.53 14.4933 10.359L14.4773 10.349C14.4583 10.337 14.4383 10.326 14.4173 10.312C14.3055 10.2369 14.1739 10.1969 14.0393 10.197L14.0383 10.192ZM10.1383 10.192C10.0017 10.1951 9.86828 10.2336 9.75103 10.3037C9.63377 10.3738 9.5367 10.4732 9.46929 10.592C9.38729 10.73 9.35129 13.492 9.35129 16.001C9.35129 18.51 9.38829 21.272 9.46929 21.41C9.53268 21.5288 9.62715 21.6281 9.74261 21.6973C9.85806 21.7666 9.99016 21.8032 10.1248 21.8032C10.2594 21.8032 10.3915 21.7666 10.507 21.6973C10.6224 21.6281 10.7169 21.5288 10.7803 21.41C10.8803 21.24 10.8803 21.24 10.8803 16.001V14.825C10.8803 10.525 10.8803 10.525 10.5933 10.354C10.5703 10.341 10.5443 10.326 10.5173 10.307C10.4044 10.2311 10.2713 10.191 10.1353 10.192H10.1383ZM6.2383 10.192C6.10176 10.1953 5.9684 10.2339 5.85118 10.304C5.73396 10.3741 5.63685 10.4733 5.56929 10.592C5.4873 10.73 5.45129 13.492 5.45129 16.001C5.45129 18.51 5.4883 21.271 5.56929 21.41C5.63283 21.5287 5.72741 21.628 5.84294 21.6972C5.95847 21.7664 6.09062 21.803 6.2253 21.803C6.35997 21.803 6.49212 21.7664 6.60765 21.6972C6.72318 21.628 6.81776 21.5287 6.8813 21.41C6.9813 21.241 6.9813 21.144 6.9813 16.001V14.824C6.9813 10.524 6.9813 10.524 6.69429 10.354C6.66819 10.3396 6.64282 10.3239 6.61829 10.307C6.50473 10.231 6.37093 10.1909 6.2343 10.192H6.2383ZM10.1233 7.43999C5.5073 7.43999 0.470295 7.40399 0.341295 7.32499C-0.0027048 7.11499 -0.0137048 7.05899 -0.00070479 5.71599L0.0122957 4.52099L0.155295 4.22899C0.361635 3.83084 0.686152 3.50633 1.0843 3.29999L1.3763 3.15599L3.8003 3.14299L6.2253 3.12899V2.52899C6.17146 2.00264 6.30138 1.47388 6.59301 1.03241C6.88465 0.590952 7.32003 0.263983 7.8253 0.106986C8.48415 0.0344826 9.14647 -0.00190535 9.80929 -0.00201416C9.95829 -0.00201416 10.1093 -0.0020146 10.2843 0.0039854C10.4373 0.0039854 10.5733 0.0039854 10.6993 0.0039854C11.2591 0.00390957 11.8186 0.0336189 12.3753 0.0929861C12.8912 0.243475 13.3383 0.569245 13.6397 1.01412C13.9411 1.459 14.0778 1.9951 14.0263 2.52999V3.12999L16.4513 3.14399L18.8763 3.15699L19.1673 3.30099C19.562 3.50669 19.8842 3.82849 20.0903 4.22299L20.2343 4.51499L20.2473 5.70999C20.2623 7.04699 20.2473 7.10998 19.9053 7.31898C19.7763 7.39998 14.7473 7.43499 10.1233 7.43499V7.43999ZM10.1513 1.58099C9.3763 1.58099 8.5413 1.59299 8.4223 1.62199C7.9953 1.72199 7.8223 2.00299 7.7933 2.65199L7.7703 3.13399H12.4753L12.4523 2.65199C12.4223 1.98699 12.2523 1.72699 11.8003 1.61999C11.6773 1.59099 10.8833 1.57799 10.1473 1.57799L10.1513 1.58099Z" fill="#252849"/>
</svg>
