<svg width="23" height="34" viewBox="0 0 23 34" fill="none" xmlns="http://www.w3.org/2000/svg">
<path d="M6.11302 33.986C5.68702 33.935 2.85302 33.544 1.41802 32.051C0.439452 30.8108 -0.0634794 29.2615 2.27229e-05 27.683C0.00677641 27.4639 0.0985337 27.256 0.255873 27.1033C0.413213 26.9506 0.623786 26.8652 0.843023 26.865C0.868356 26.865 0.893689 26.865 0.919023 26.865C1.73215 26.8991 2.53014 27.0962 3.26557 27.4448C4.00099 27.7933 4.65884 28.2862 5.20002 28.894C6.17618 30.2265 6.71778 31.8276 6.75102 33.479C6.75032 33.5571 6.73202 33.6339 6.69748 33.7039C6.66295 33.7739 6.61307 33.8353 6.55156 33.8833C6.49006 33.9314 6.4185 33.9649 6.34223 33.9815C6.26595 33.9981 6.18692 33.9972 6.11102 33.979L6.11302 33.986ZM22.313 33.886C22.2424 33.8856 22.1732 33.8659 22.113 33.829L8.70002 28.339C8.35854 28.2298 8.06059 28.0149 7.84921 27.7254C7.63783 27.4358 7.52395 27.0865 7.52402 26.728C7.52402 26.6767 7.52636 26.626 7.53102 26.576V21.882C7.53102 21.877 7.53102 21.872 7.53102 21.867C7.53202 21.7994 7.55064 21.7331 7.58505 21.6749C7.61946 21.6166 7.66847 21.5684 7.72723 21.5348C7.786 21.5013 7.85249 21.4837 7.92015 21.4837C7.98781 21.4838 8.05429 21.5014 8.11302 21.535L21.873 27.335C21.905 27.347 21.936 27.36 21.967 27.374C22.1904 27.479 22.3793 27.6455 22.5116 27.8539C22.6439 28.0624 22.7141 28.3041 22.714 28.551L22.707 33.48C22.707 33.49 22.707 33.5 22.707 33.51C22.7054 33.6121 22.6638 33.7095 22.591 33.7812C22.5182 33.8529 22.4202 33.893 22.318 33.893L22.313 33.886ZM6.11302 25.031C5.68702 24.98 2.85302 24.589 1.41802 23.096C0.439452 21.8558 -0.0634794 20.3065 2.27229e-05 18.728C0.00677641 18.5089 0.0985337 18.301 0.255873 18.1483C0.413213 17.9956 0.623786 17.9102 0.843023 17.91C0.868356 17.91 0.893689 17.91 0.919023 17.91C1.73223 17.9442 2.53026 18.1415 3.26569 18.4902C4.00112 18.839 4.65893 19.332 5.20002 19.94C6.17618 21.2725 6.71778 22.8736 6.75102 24.525C6.75102 24.6627 6.69634 24.7947 6.59901 24.892C6.50168 24.9893 6.36967 25.044 6.23202 25.044C6.19203 25.0446 6.1521 25.0395 6.11302 25.031ZM11.7 20.955L8.43302 19.638C8.39636 19.6247 8.36036 19.6103 8.32502 19.595L8.31002 19.589C8.03439 19.4624 7.80164 19.2582 7.64026 19.0014C7.47888 18.7446 7.39587 18.4463 7.40138 18.143C7.4069 17.8397 7.50071 17.5447 7.67133 17.2939C7.84194 17.0431 8.08197 16.8475 8.36202 16.731L21.918 10.556C21.9777 10.5319 22.0425 10.5229 22.1065 10.5299C22.1705 10.5369 22.2317 10.5597 22.2848 10.5961C22.3379 10.6326 22.3811 10.6816 22.4107 10.7388C22.4402 10.796 22.4551 10.8596 22.454 10.924C22.454 10.934 22.454 10.943 22.454 10.952L22.329 16.045C22.329 16.058 22.329 16.07 22.329 16.083C22.3292 16.3549 22.2441 16.62 22.0857 16.841C21.9273 17.062 21.7036 17.2278 21.446 17.315L13.191 20.974C12.9604 21.0954 12.7031 21.1572 12.4425 21.1537C12.1819 21.1502 11.9263 21.0816 11.699 20.954L11.7 20.955ZM6.11302 16.078C5.68702 16.027 2.85302 15.636 1.41802 14.143C0.439224 12.9025 -0.0637204 11.3529 2.27229e-05 9.77402C0.00677641 9.55488 0.0985337 9.34698 0.255873 9.1943C0.413213 9.04163 0.623786 8.95617 0.843023 8.95602C0.868356 8.95602 0.893689 8.95602 0.919023 8.95602C1.73215 8.99006 2.53014 9.18722 3.26557 9.53578C4.00099 9.88434 4.65884 10.3772 5.20002 10.985C6.17761 12.317 6.72061 13.9181 6.75502 15.57C6.75432 15.6481 6.73602 15.725 6.70148 15.795C6.66695 15.8649 6.61707 15.9263 6.55556 15.9743C6.49406 16.0224 6.4225 16.0559 6.34623 16.0725C6.26995 16.0891 6.19092 16.0882 6.11502 16.07L6.11302 16.078ZM16.722 10.139C16.7141 10.1386 16.7064 10.1369 16.699 10.134C16.616 10.084 8.12402 6.36402 8.12402 6.36402V6.35902C7.92689 6.26027 7.75811 6.11301 7.63356 5.93107C7.509 5.74914 7.43277 5.53852 7.41202 5.31902C7.41179 5.31636 7.41179 5.31368 7.41202 5.31102C7.41202 5.31102 7.41202 5.30202 7.41202 5.29102C7.41202 5.25968 7.41202 5.22802 7.41202 5.19602C7.41202 5.16402 7.41202 5.14035 7.41202 5.12502C7.41202 4.31502 7.41202 1.13502 7.41202 0.656017C7.41018 0.629049 7.41018 0.601985 7.41202 0.575017C7.41397 0.481786 7.43821 0.390376 7.48271 0.308432C7.52722 0.226489 7.59071 0.156396 7.66786 0.104016C7.74501 0.0516365 7.83358 0.0184932 7.92617 0.00735875C8.01875 -0.00377566 8.11265 0.00742265 8.20002 0.0400169L21.424 5.80802C21.6633 5.90171 21.873 6.05812 22.031 6.26081C22.189 6.46351 22.2895 6.70502 22.3219 6.95996C22.3543 7.21491 22.3175 7.47388 22.2153 7.70968C22.1131 7.94548 21.9493 8.1494 21.741 8.30002L19.521 9.80002C19.1327 10.1127 18.6645 10.3102 18.1695 10.3701C17.6746 10.43 17.1737 10.35 16.722 10.139ZM6.11302 7.12302C5.68702 7.07202 2.85302 6.68102 1.41802 5.18802C0.439452 3.94778 -0.0634794 2.39855 2.27229e-05 0.820017C0.00629169 0.599492 0.0986578 0.390188 0.257342 0.236924C0.416026 0.0836598 0.628413 -0.00137912 0.849023 1.69206e-05C0.874356 1.69206e-05 0.899356 1.69206e-05 0.924023 1.69206e-05C1.73645 0.0349776 2.53357 0.232768 3.2681 0.581652C4.00263 0.930536 4.6596 1.42341 5.20002 2.03102C6.17761 3.36303 6.72061 4.96412 6.75502 6.61602C6.75432 6.69407 6.73602 6.77095 6.70148 6.84095C6.66695 6.91095 6.61707 6.97226 6.55556 7.02031C6.49406 7.06836 6.4225 7.10192 6.34623 7.11849C6.26995 7.13506 6.19092 7.13422 6.11502 7.11602L6.11302 7.12302Z" fill="#67997D"/>
</svg>
