<svg width="97" height="97" viewBox="0 0 97 97" fill="none" xmlns="http://www.w3.org/2000/svg">
<path opacity="0.2" d="M48.457 0C58.0409 0 67.4096 2.84195 75.3783 8.16648C83.347 13.491 89.5578 21.059 93.2254 29.9133C96.893 38.7677 97.8526 48.5108 95.9829 57.9105C94.1132 67.3102 89.4981 75.9444 82.7213 82.7213C75.9444 89.4981 67.3102 94.1132 57.9105 95.9829C48.5108 97.8526 38.7677 96.893 29.9133 93.2254C21.059 89.5578 13.491 83.347 8.16648 75.3783C2.84195 67.4096 0 58.0409 0 48.457C0 35.6054 5.10528 23.2802 14.1927 14.1927C23.2802 5.10528 35.6054 0 48.457 0Z" fill="#88A9C3"/>
<path d="M48.3446 90.607C71.5616 90.607 90.3826 71.7859 90.3826 48.569C90.3826 25.3521 71.5616 6.53101 48.3446 6.53101C25.1277 6.53101 6.30664 25.3521 6.30664 48.569C6.30664 71.7859 25.1277 90.607 48.3446 90.607Z" fill="#88A9C3"/>
<path d="M47.159 25.694H44.386C43.4639 25.6956 42.5802 26.0631 41.9288 26.7157C41.2774 27.3684 40.9117 28.2529 40.912 29.175C40.9112 29.3029 40.8688 29.4271 40.7912 29.5288C40.7136 29.6305 40.6051 29.7043 40.482 29.739C39.0146 30.1508 37.6008 30.7342 36.27 31.477C36.1576 31.5404 36.0274 31.5649 35.8995 31.5469C35.7717 31.5288 35.6535 31.4691 35.563 31.377C34.9106 30.7275 34.0276 30.3629 33.107 30.3629C32.1864 30.3629 31.3034 30.7275 30.651 31.377L28.693 33.339C28.3697 33.6615 28.1132 34.0446 27.9382 34.4664C27.7632 34.8882 27.6731 35.3404 27.6731 35.797C27.6731 36.2536 27.7632 36.7058 27.9382 37.1276C28.1132 37.5494 28.3697 37.9325 28.693 38.255C28.7851 38.3452 28.8449 38.4633 28.863 38.591C28.8811 38.7187 28.8565 38.8488 28.793 38.961C28.0507 40.2898 27.4677 41.7016 27.056 43.167C27.0214 43.2926 26.946 43.4031 26.8418 43.4811C26.7375 43.5591 26.6102 43.6002 26.48 43.598C25.5578 43.5977 24.6733 43.9636 24.0207 44.6152C23.3682 45.2668 23.0011 46.1508 23 47.073V49.843C23.0016 50.7657 23.3695 51.65 24.0227 52.3016C24.676 52.9532 25.5613 53.3188 26.484 53.318C26.6123 53.3175 26.7371 53.3594 26.8391 53.4372C26.9411 53.5149 27.0145 53.6242 27.048 53.748C27.4601 55.215 28.0435 56.6284 28.786 57.959C28.8482 58.0706 28.872 58.1994 28.854 58.3259C28.8359 58.4523 28.7769 58.5693 28.686 58.659C28.3627 58.9815 28.1062 59.3646 27.9312 59.7864C27.7562 60.2082 27.6661 60.6604 27.6661 61.117C27.6661 61.5736 27.7562 62.0258 27.9312 62.4476C28.1062 62.8694 28.3627 63.2525 28.686 63.575L30.646 65.535C31.2982 66.1859 32.182 66.5515 33.1035 66.5515C34.025 66.5515 34.9088 66.1859 35.561 65.535C35.651 65.4447 35.768 65.3861 35.8943 65.368C36.0206 65.35 36.1493 65.3735 36.261 65.435C37.5921 66.1756 39.0058 66.7566 40.473 67.166C40.5972 67.2009 40.7066 67.2756 40.7844 67.3785C40.8622 67.4814 40.9042 67.607 40.904 67.736C40.9048 68.6572 41.271 69.5405 41.9223 70.192C42.5736 70.8435 43.4568 71.2099 44.378 71.211H47.151C48.0723 71.2099 48.9556 70.8435 49.607 70.192C50.2585 69.5406 50.6249 68.6573 50.626 67.736V66.138C50.626 65.7561 50.4743 65.3898 50.2042 65.1198C49.9342 64.8497 49.5679 64.698 49.186 64.698C48.8041 64.698 48.4378 64.8497 48.1678 65.1198C47.8977 65.3898 47.746 65.7561 47.746 66.138V67.745C47.746 67.9041 47.6828 68.0567 47.5703 68.1693C47.4577 68.2818 47.3051 68.345 47.146 68.345H44.386C44.2279 68.3434 44.0768 68.2795 43.9656 68.1672C43.8544 68.0548 43.792 67.9031 43.792 67.745C43.7905 66.9884 43.5424 66.253 43.0853 65.6501C42.6282 65.0472 41.9871 64.6097 41.259 64.404C40.0107 64.054 38.808 63.5579 37.676 62.926C37.0158 62.5591 36.2543 62.4169 35.5062 62.5208C34.7582 62.6247 34.0642 62.9691 33.529 63.502C33.4168 63.6125 33.2655 63.6745 33.108 63.6745C32.9505 63.6745 32.7992 63.6125 32.687 63.502L30.727 61.539C30.6713 61.4839 30.6271 61.4184 30.5969 61.3461C30.5667 61.2738 30.5512 61.1963 30.5512 61.118C30.5512 61.0397 30.5667 60.9622 30.5969 60.8899C30.6271 60.8176 30.6713 60.7521 30.727 60.697C31.2583 60.1608 31.6012 59.4665 31.704 58.7186C31.8068 57.9707 31.664 57.2097 31.297 56.55C30.6644 55.4186 30.1673 54.2167 29.816 52.969C29.6093 52.2412 29.1711 51.6005 28.5677 51.144C27.9643 50.6875 27.2286 50.44 26.472 50.439C26.3932 50.439 26.3152 50.4235 26.2424 50.3933C26.1696 50.3632 26.1035 50.319 26.0477 50.2633C25.992 50.2076 25.9478 50.1414 25.9177 50.0686C25.8875 49.9958 25.872 49.9178 25.872 49.839V47.069C25.872 46.9902 25.8875 46.9122 25.9177 46.8394C25.9478 46.7666 25.992 46.7005 26.0477 46.6447C26.1035 46.589 26.1696 46.5448 26.2424 46.5147C26.3152 46.4845 26.3932 46.469 26.472 46.469C27.2286 46.4671 27.964 46.2187 28.5669 45.7615C29.1697 45.3043 29.6072 44.6631 29.813 43.935C30.1651 42.6892 30.6642 41.4897 31.3 40.362C31.6667 39.7015 31.8088 38.9396 31.7049 38.1913C31.601 37.443 31.2568 36.7487 30.724 36.213C30.6686 36.158 30.6246 36.0926 30.5945 36.0205C30.5645 35.9484 30.549 35.8711 30.549 35.793C30.5488 35.7148 30.5643 35.6373 30.5945 35.5652C30.6248 35.4931 30.6691 35.4277 30.725 35.373L32.683 33.415C32.7954 33.3036 32.9472 33.241 33.1055 33.241C33.2638 33.241 33.4156 33.3036 33.528 33.415C34.0639 33.9458 34.7577 34.2883 35.5049 34.3911C36.2522 34.4939 37.0127 34.3514 37.672 33.985C38.8058 33.3548 40.0097 32.86 41.259 32.511C41.987 32.3047 42.628 31.8668 43.0849 31.2636C43.5418 30.6604 43.7897 29.9247 43.791 29.168C43.791 29.0099 43.8534 28.8582 43.9646 28.7458C44.0758 28.6335 44.2269 28.5696 44.385 28.568H47.158C47.3171 28.568 47.4697 28.6312 47.5823 28.7437C47.6948 28.8563 47.758 29.0089 47.758 29.168V30.774C47.758 30.9631 47.7952 31.1504 47.8676 31.3251C47.94 31.4998 48.046 31.6585 48.1798 31.7922C48.3135 31.926 48.4722 32.032 48.6469 32.1044C48.8216 32.1768 49.0089 32.214 49.198 32.214C49.3871 32.214 49.5744 32.1768 49.7491 32.1044C49.9238 32.032 50.0825 31.926 50.2162 31.7922C50.35 31.6585 50.456 31.4998 50.5284 31.3251C50.6008 31.1504 50.638 30.9631 50.638 30.774V29.169C50.6369 28.247 50.2699 27.3631 49.6176 26.7116C48.9653 26.06 48.081 25.694 47.159 25.694Z" fill="white"/>
<path d="M45.7727 38.577C46.785 38.5757 47.7914 38.7301 48.7567 39.035C48.938 39.095 49.1293 39.1184 49.3197 39.1038C49.5101 39.0892 49.6957 39.0368 49.8656 38.9498C50.0356 38.8628 50.1865 38.7429 50.3097 38.597C50.4329 38.4511 50.5258 38.2822 50.5831 38.1001C50.6404 37.9179 50.6609 37.7262 50.6434 37.5361C50.6259 37.346 50.5708 37.1612 50.4812 36.9926C50.3917 36.8239 50.2695 36.6748 50.1217 36.5538C49.974 36.4329 49.8037 36.3425 49.6207 36.288C47.7094 35.6845 45.6827 35.5399 43.705 35.8658C41.7273 36.1917 39.8542 36.979 38.2376 38.1639C36.6209 39.3488 35.3062 40.8979 34.4 42.6857C33.4937 44.4735 33.0215 46.4496 33.0215 48.454C33.0215 50.4583 33.4937 52.4345 34.4 54.2223C35.3062 56.0101 36.6209 57.5592 38.2376 58.7441C39.8542 59.929 41.7273 60.7163 43.705 61.0422C45.6827 61.3681 47.7094 61.2235 49.6207 60.62C49.985 60.5046 50.2885 60.2493 50.4645 59.9101C50.6405 59.5709 50.6746 59.1758 50.5592 58.8115C50.4438 58.4472 50.1885 58.1437 49.8493 57.9677C49.5102 57.7917 49.115 57.7576 48.7507 57.873C47.3924 58.3026 45.9573 58.4334 44.5437 58.2564C43.1302 58.0795 41.7716 57.5989 40.5611 56.8477C39.3507 56.0964 38.317 55.0923 37.531 53.9042C36.745 52.716 36.2253 51.3719 36.0074 49.9641C35.7895 48.5562 35.8786 47.1179 36.2687 45.7478C36.6588 44.3776 37.3405 43.108 38.2672 42.026C39.194 40.944 40.3437 40.0752 41.6376 39.4792C42.9316 38.8832 44.3391 38.5741 45.7637 38.573L45.7727 38.577Z" fill="white"/>
<path d="M59.2726 34.831C60.1106 34.8346 60.9333 34.6067 61.6499 34.1723C62.3665 33.7378 62.9492 33.1139 63.3336 32.3693C63.718 31.6246 63.8892 30.7883 63.8283 29.9525C63.7674 29.1167 63.4767 28.314 62.9884 27.633C62.5001 26.9519 61.8332 26.4191 61.0612 26.0931C60.2892 25.7672 59.4421 25.6609 58.6135 25.786C57.7849 25.9111 57.0069 26.2626 56.3655 26.8019C55.7241 27.3412 55.2441 28.0472 54.9786 28.842H52.0156V31.722H54.9786C55.2791 32.6245 55.8552 33.4099 56.6257 33.9675C57.3963 34.5251 58.3225 34.8268 59.2736 34.83L59.2726 34.831ZM59.2726 28.614C59.6024 28.6144 59.9247 28.7126 60.1988 28.8961C60.4728 29.0796 60.6863 29.3403 60.8122 29.6451C60.9382 29.9499 60.9709 30.2852 60.9063 30.6086C60.8417 30.9321 60.6827 31.2291 60.4494 31.4622C60.216 31.6952 59.9188 31.8539 59.5953 31.9181C59.2718 31.9823 58.9365 31.9491 58.6318 31.8228C58.3272 31.6965 58.0668 31.4827 57.8836 31.2085C57.7004 30.9342 57.6026 30.6118 57.6026 30.282C57.6026 30.0628 57.6458 29.8457 57.7298 29.6432C57.8137 29.4407 57.9368 29.2568 58.0919 29.1018C58.247 28.9469 58.4311 28.8241 58.6337 28.7404C58.8363 28.6567 59.0534 28.6137 59.2726 28.614Z" fill="white"/>
<path d="M66.4505 43.907C65.4993 43.9101 64.5731 44.2117 63.8025 44.7693C63.0319 45.327 62.4558 46.1124 62.1555 47.015H52.3125V49.895H62.1555C62.4219 50.6873 62.9018 51.3907 63.5423 51.9278C64.1829 52.4648 64.9592 52.8146 65.7859 52.9387C66.6125 53.0628 67.4574 52.9562 68.2273 52.6309C68.9973 52.3055 69.6625 51.7739 70.1497 51.0947C70.6369 50.4154 70.9272 49.6149 70.9885 48.7812C71.0499 47.9476 70.8799 47.1132 70.4974 46.37C70.1149 45.6267 69.5347 45.0035 68.8206 44.5689C68.1065 44.1343 67.2864 43.9053 66.4505 43.907ZM66.4505 50.124C66.1207 50.1238 65.7983 50.0258 65.5242 49.8425C65.25 49.6591 65.0364 49.3986 64.9103 49.0938C64.7842 48.7891 64.7512 48.4538 64.8156 48.1303C64.88 47.8069 65.0388 47.5098 65.272 47.2765C65.5053 47.0433 65.8024 46.8845 66.1258 46.8201C66.4493 46.7557 66.7846 46.7886 67.0894 46.9148C67.3941 47.0409 67.6546 47.2545 67.838 47.5287C68.0213 47.8028 68.1193 48.1252 68.1195 48.455C68.1196 48.6742 68.0766 48.8913 67.9927 49.0938C67.9089 49.2964 67.786 49.4804 67.631 49.6354C67.4759 49.7905 67.2919 49.9134 67.0894 49.9972C66.8868 50.081 66.6697 50.1241 66.4505 50.124Z" fill="white"/>
<path d="M59.8136 42.613L63.4336 40.278C64.2372 40.9842 65.2656 41.3819 66.3353 41.4001C67.405 41.4184 68.4464 41.0559 69.2736 40.3774C70.1007 39.699 70.6599 38.7486 70.8513 37.6961C71.0427 36.6435 70.8539 35.5571 70.3185 34.6309C69.7832 33.7047 68.9361 32.9988 67.9285 32.6392C66.9209 32.2797 65.8183 32.2899 64.8175 32.668C63.8167 33.0461 62.9828 33.7675 62.4647 34.7035C61.9465 35.6395 61.7778 36.7291 61.9886 37.778L58.6096 39.958H52.0156V42.838H59.0336C59.3097 42.8383 59.5802 42.7603 59.8136 42.613ZM66.4486 35.225C66.7784 35.2254 67.1007 35.3235 67.3748 35.5071C67.6488 35.6906 67.8623 35.9512 67.9882 36.2561C68.1142 36.5609 68.1469 36.8962 68.0823 37.2196C68.0177 37.5431 67.8587 37.8401 67.6254 38.0731C67.392 38.3062 67.0948 38.4649 66.7713 38.5291C66.4478 38.5933 66.1125 38.5601 65.8078 38.4338C65.5032 38.3075 65.2428 38.0937 65.0596 37.8195C64.8764 37.5452 64.7786 37.2228 64.7786 36.893C64.7786 36.6738 64.8218 36.4567 64.9058 36.2542C64.9897 36.0517 65.1128 35.8677 65.2679 35.7128C65.423 35.5579 65.6071 35.4351 65.8097 35.3514C66.0123 35.2677 66.2294 35.2247 66.4486 35.225Z" fill="white"/>
<path d="M59.2726 62.079C58.3216 62.0823 57.3956 62.384 56.6252 62.9416C55.8548 63.4992 55.2789 64.2846 54.9786 65.187H52.0156V68.067H54.9786C55.245 68.8593 55.7249 69.5627 56.3654 70.0998C57.006 70.6368 57.7824 70.9866 58.609 71.1107C59.4356 71.2347 60.2805 71.1282 61.0505 70.8029C61.8204 70.4775 62.4857 69.9459 62.9729 69.2667C63.4601 68.5874 63.7503 67.7869 63.8117 66.9532C63.873 66.1196 63.7031 65.2852 63.3205 64.542C62.938 63.7987 62.3578 63.1755 61.6437 62.7409C60.9297 62.3063 60.1085 62.0773 59.2726 62.079ZM59.2726 68.296C58.9428 68.2958 58.6205 68.1978 58.3463 68.0145C58.0722 67.8311 57.8585 67.5706 57.7324 67.2658C57.6063 66.9611 57.5733 66.6258 57.6377 66.3023C57.7021 65.9789 57.861 65.6817 58.0942 65.4485C58.3274 65.2153 58.6245 65.0565 58.948 64.9921C59.2714 64.9277 59.6067 64.9606 59.9115 65.0868C60.2162 65.2129 60.4767 65.4265 60.6601 65.7007C60.8435 65.9748 60.9414 66.2972 60.9416 66.627C60.9418 66.8462 60.8987 67.0633 60.8148 67.2658C60.731 67.4684 60.6081 67.6524 60.4531 67.8074C60.2981 67.9625 60.114 68.0854 59.9115 68.1692C59.7089 68.253 59.4918 68.2961 59.2726 68.296Z" fill="white"/>
<path d="M66.4496 55.463C65.3348 55.4665 64.2608 55.8826 63.4346 56.631L59.8146 54.296C59.582 54.1463 59.3112 54.0668 59.0346 54.067H52.0156V56.947H58.6096L61.9886 59.127C61.8064 60.0465 61.9128 60.9999 62.2933 61.8567C62.6737 62.7135 63.3096 63.4318 64.1139 63.9133C64.9183 64.3947 65.8518 64.6159 66.7866 64.5465C67.7215 64.4771 68.6121 64.1205 69.3365 63.5255C70.0609 62.9305 70.5838 62.1262 70.8335 61.2226C71.0833 60.3191 71.0477 59.3604 70.7317 58.4778C70.4157 57.5953 69.8346 56.8319 69.0681 56.2922C68.3016 55.7526 67.3871 55.4629 66.4496 55.463ZM66.4496 61.68C66.1197 61.6798 65.7973 61.5818 65.5231 61.3983C65.2489 61.2149 65.0353 60.9542 64.9092 60.6494C64.7831 60.3445 64.7503 60.0091 64.8149 59.6856C64.8794 59.3621 65.0385 59.065 65.2719 58.8318C65.5053 58.5987 65.8026 58.44 66.1262 58.3758C66.4498 58.3117 66.7852 58.3449 67.0899 58.4713C67.3946 58.5978 67.655 58.8117 67.8381 59.0861C68.0212 59.3605 68.1188 59.6831 68.1186 60.013C68.1185 60.232 68.0752 60.4489 67.9913 60.6512C67.9073 60.8535 67.7844 61.0374 67.6294 61.1921C67.4744 61.3469 67.2904 61.4697 67.088 61.5534C66.8856 61.6371 66.6687 61.6801 66.4496 61.68Z" fill="white"/>
</svg>
