<svg width="97" height="97" viewBox="0 0 97 97" fill="none" xmlns="http://www.w3.org/2000/svg">
<path opacity="0.2" d="M48.457 0C58.0409 0 67.4096 2.84195 75.3783 8.16648C83.347 13.491 89.5578 21.059 93.2254 29.9133C96.893 38.7677 97.8526 48.5108 95.9829 57.9105C94.1132 67.3102 89.4981 75.9444 82.7213 82.7213C75.9444 89.4981 67.3102 94.1132 57.9105 95.9829C48.5108 97.8526 38.7677 96.893 29.9133 93.2254C21.059 89.5578 13.491 83.347 8.16648 75.3783C2.84195 67.4096 0 58.0409 0 48.457C0 35.6054 5.10528 23.2802 14.1927 14.1927C23.2802 5.10528 35.6054 0 48.457 0Z" fill="#9C836C"/>
<path d="M48.3446 90.607C71.5616 90.607 90.3826 71.7859 90.3826 48.569C90.3826 25.3521 71.5616 6.53101 48.3446 6.53101C25.1277 6.53101 6.30664 25.3521 6.30664 48.569C6.30664 71.7859 25.1277 90.607 48.3446 90.607Z" fill="#9C836C"/>
<path d="M70.8077 47.241L67.2777 42.469L70.7777 37.748C71.1066 37.3401 71.3342 36.8602 71.4418 36.3474C71.5494 35.8346 71.5339 35.3036 71.3967 34.798C71.2654 34.3042 71.0203 33.848 70.681 33.466C70.3417 33.0839 69.9176 32.7867 69.4427 32.598L56.3837 26.749C55.7637 26.5134 55.0868 26.4708 54.4422 26.627C53.7975 26.7832 53.2152 27.1307 52.7717 27.624L49.0007 31.789L45.2267 27.628C44.7706 27.128 44.1723 26.7795 43.5123 26.6296C42.8523 26.4796 42.1622 26.5352 41.5347 26.789L28.6387 32.57C28.1526 32.7522 27.7163 33.0463 27.3649 33.4285C27.0136 33.8106 26.7571 34.2701 26.6162 34.7697C26.4753 35.2694 26.454 35.7951 26.554 36.3045C26.654 36.8139 26.8724 37.2927 27.1917 37.702L30.7227 42.474L27.2227 47.196C26.894 47.604 26.6666 48.0839 26.559 48.5967C26.4514 49.1094 26.4668 49.6403 26.6037 50.146C26.7346 50.64 26.9796 51.0964 27.3189 51.4785C27.6583 51.8606 28.0826 52.1577 28.5577 52.346L31.0087 53.446V62.235C31.0098 63.2534 31.3283 64.2461 31.9197 65.0752C32.5111 65.9043 33.3461 66.5285 34.3087 66.861L46.4617 71.042C48.1085 71.6075 49.8969 71.6075 51.5437 71.042L63.6917 66.854C64.6546 66.5213 65.4899 65.8968 66.0813 65.0674C66.6728 64.2379 66.991 63.2447 66.9917 62.226V53.437L69.3637 52.373C69.8496 52.1904 70.2857 51.8961 70.6366 51.5137C70.9876 51.1313 71.2436 50.6716 71.3839 50.1719C71.5242 49.6722 71.5449 49.1465 71.4443 48.6373C71.3437 48.1281 71.1246 47.6498 70.8047 47.241H70.8077ZM54.7767 29.442C54.8475 29.3603 54.939 29.2992 55.0417 29.2653C55.1443 29.2313 55.2542 29.2257 55.3597 29.249L68.4147 35.102C68.5052 35.1352 68.5863 35.1897 68.6512 35.2609C68.7161 35.3321 68.763 35.4179 68.7877 35.511C68.8142 35.6135 68.8144 35.721 68.7884 35.8236C68.7623 35.9262 68.7109 36.0205 68.6387 36.098L65.0387 40.96L50.2447 34.439L54.7767 29.442ZM49.0007 47.579L36.8187 42.21L49.0007 36.842L61.1827 42.211L49.0007 47.579ZM29.3287 36.049C29.2681 35.9746 29.2261 35.8867 29.2065 35.7927C29.1868 35.6988 29.19 35.6015 29.2157 35.509C29.2479 35.4038 29.306 35.3083 29.3846 35.2312C29.4632 35.1542 29.5599 35.0981 29.6657 35.068L42.5627 29.289C42.6765 29.2462 42.8006 29.2385 42.9188 29.2671C43.037 29.2956 43.144 29.359 43.2257 29.449L47.7567 34.449L32.9637 40.96L29.3287 36.049ZM32.6207 51.203L29.5917 49.844C29.5009 49.8111 29.4195 49.7566 29.3545 49.6852C29.2895 49.6137 29.2429 49.5275 29.2187 49.434C29.1924 49.3317 29.1923 49.2244 29.2183 49.122C29.2444 49.0195 29.2957 48.9253 29.3677 48.848L33.2547 43.589L47.6547 49.931V50.621L43.2287 55.499C43.158 55.581 43.0663 55.6424 42.9635 55.6766C42.8607 55.7107 42.7505 55.7164 42.6447 55.693L33.1647 51.447C33.0039 51.326 32.818 51.2426 32.6207 51.203ZM47.3417 68.489L35.1917 64.301C34.761 64.1516 34.3873 63.8721 34.1224 63.501C33.8574 63.13 33.7143 62.6859 33.7127 62.23V54.652L41.6127 58.186C42.2329 58.4208 42.9095 58.4629 43.554 58.3067C44.1984 58.1506 44.7808 57.8036 45.2247 57.311L47.6517 54.639V68.567C47.5517 68.54 47.4457 68.524 47.3437 68.489H47.3417ZM64.2917 62.227C64.2902 62.6829 64.147 63.127 63.8821 63.498C63.6171 63.8691 63.2434 64.1486 62.8127 64.298L50.6617 68.489C50.5617 68.523 50.4567 68.539 50.3537 68.566V54.639L52.7797 57.314C53.0861 57.655 53.461 57.9275 53.8799 58.1136C54.2988 58.2997 54.7523 58.3952 55.2107 58.394C55.6415 58.3925 56.0684 58.3129 56.4707 58.159L64.2917 54.648V62.227ZM68.7917 49.436C68.7593 49.5411 68.7012 49.6366 68.6226 49.7136C68.5441 49.7906 68.4475 49.8467 68.3417 49.877L55.4417 55.665C55.3281 55.7084 55.2039 55.7163 55.0857 55.6876C54.9674 55.6588 54.8607 55.5948 54.7797 55.504L50.3547 50.616V49.937L64.7547 43.591L68.6807 48.891C68.7417 48.9656 68.7838 49.0538 68.8035 49.1482C68.8231 49.2425 68.8198 49.3402 68.7937 49.433L68.7917 49.436Z" fill="white"/>
</svg>
