<svg width="43" height="43" viewBox="0 0 43 43" fill="none" xmlns="http://www.w3.org/2000/svg">
<path d="M35.414 42.3C34.0521 42.3006 32.7208 41.8972 31.5883 41.1408C30.4558 40.3845 29.5731 39.3092 29.052 38.0511C28.5308 36.7929 28.3946 35.4084 28.6605 34.0728C28.9265 32.7372 29.5826 31.5105 30.546 30.548L30.562 30.529C31.546 29.336 32.729 27.905 32.823 27.8C33.5195 27.1283 34.4494 26.753 35.417 26.753C36.3846 26.753 37.3144 27.1283 38.011 27.8L38.018 27.806C38.19 28.006 39.743 29.878 40.327 30.583L40.38 30.647L40.396 30.666C41.6322 31.9331 42.3155 33.6388 42.296 35.409C42.297 37.2353 41.5726 38.9873 40.282 40.2796C38.9914 41.5719 37.2403 42.2986 35.414 42.3ZM35.414 29.818C35.2769 29.8181 35.1435 29.8619 35.033 29.943L35.01 29.961L32.82 32.605C32.4388 32.968 32.1343 33.4038 31.9248 33.8867C31.7152 34.3696 31.6048 34.8896 31.6 35.416C31.598 35.9177 31.6958 36.4147 31.8877 36.8783C32.0797 37.3418 32.3619 37.7625 32.718 38.116C33.443 38.8114 34.4088 39.1997 35.4135 39.1997C36.4181 39.1997 37.3839 38.8114 38.109 38.116C38.8235 37.4028 39.2257 36.4352 39.2272 35.4256C39.2287 34.4161 38.8294 33.4472 38.117 32.732L35.817 29.966L35.793 29.949C35.6835 29.8661 35.5503 29.8205 35.413 29.819L35.414 29.818ZM8.66797 42.3C6.95325 42.3 5.27704 41.7915 3.85134 40.8388C2.42563 39.8862 1.31448 38.5321 0.658411 36.9478C0.00234318 35.3636 -0.169167 33.6204 0.165573 31.9386C0.500312 30.2569 1.32626 28.7122 2.53897 27.5L25.525 4.51697L23.625 2.61697C23.3534 2.32542 23.2058 1.93976 23.2132 1.5414C23.2206 1.14304 23.3826 0.763155 23.6648 0.481943C23.9471 0.20073 24.3275 0.0401955 24.7259 0.03423C25.1243 0.0282645 25.5094 0.177334 25.8 0.44997L41.849 16.5C42.1301 16.7894 42.286 17.1778 42.2831 17.5813C42.2801 17.9848 42.1185 18.3709 41.8332 18.6562C41.5479 18.9415 41.1618 19.1031 40.7583 19.1061C40.3548 19.109 39.9664 18.9531 39.677 18.672L37.777 16.778L14.8 39.762C13.9966 40.5697 13.041 41.2099 11.9884 41.6456C10.9358 42.0813 9.80716 42.3037 8.66797 42.3ZM18.816 15.571L4.71597 29.671C3.92636 30.4467 3.387 31.441 3.16732 32.526C2.94764 33.6109 3.05769 34.7367 3.4833 35.7585C3.90892 36.7803 4.63062 37.6514 5.55551 38.2595C6.4804 38.8677 7.56614 39.1851 8.67297 39.171C10.113 39.1806 11.5021 38.6385 12.555 37.656L26.735 23.479L18.82 15.564L18.816 15.571ZM27.7 6.68897L20.985 13.4L28.9 21.314L35.61 14.604L27.7 6.68897Z" fill="black"/>
</svg>
