<svg width="50" height="50" viewBox="0 0 50 50" fill="none" xmlns="http://www.w3.org/2000/svg">
<path d="M25 0C20.0555 0 15.222 1.46622 11.1108 4.21326C6.99953 6.96029 3.79521 10.8648 1.90302 15.4329C0.0108322 20.0011 -0.484251 25.0277 0.480379 29.8773C1.44501 34.7268 3.82603 39.1814 7.32234 42.6777C10.8187 46.174 15.2732 48.555 20.1228 49.5196C24.9723 50.4843 29.9989 49.9892 34.5671 48.097C39.1353 46.2048 43.0397 43.0005 45.7868 38.8893C48.5338 34.778 50 29.9445 50 25C50 18.3696 47.3661 12.0107 42.6777 7.32233C37.9893 2.63392 31.6304 0 25 0ZM25 47C20.6488 47 16.3953 45.7097 12.7775 43.2923C9.15959 40.8749 6.33979 37.439 4.67466 33.419C3.00953 29.3991 2.57386 24.9756 3.42273 20.708C4.27161 16.4404 6.36691 12.5204 9.44366 9.44365C12.5204 6.3669 16.4404 4.2716 20.708 3.42272C24.9756 2.57385 29.3991 3.00952 33.419 4.67465C37.439 6.33978 40.875 9.15957 43.2923 12.7775C45.7097 16.3953 47 20.6488 47 25C47 30.8348 44.6822 36.4305 40.5564 40.5564C36.4306 44.6822 30.8348 47 25 47Z" fill="black"/>
<path d="M40.678 24.7249C40.6696 24.645 40.6552 24.5658 40.635 24.4879C40.6 24.3659 37.272 12.4659 25 12.4659C12.832 12.4659 9.39996 24.3549 9.36596 24.4809C9.33643 24.5924 9.31867 24.7067 9.31296 24.8219C9.30796 24.8889 9.30396 24.9559 9.30396 25.0009C9.30377 25.0868 9.30878 25.1727 9.31896 25.2579C9.32738 25.3489 9.34378 25.4389 9.36796 25.5269C9.40096 25.6469 12.832 37.5359 25 37.5359C37.272 37.5359 40.6 25.6359 40.633 25.5209C40.6621 25.4114 40.6795 25.2991 40.685 25.1859C40.691 25.1169 40.695 25.0469 40.695 25.0009C40.6945 24.9087 40.6888 24.8166 40.678 24.7249ZM25 34.5339C15.994 34.5339 12.884 26.6089 12.346 25.0009C12.895 23.3639 16.009 15.4659 25 15.4659C34.016 15.4659 37.117 23.3909 37.653 24.9989C37.11 26.6269 34.006 34.5339 25 34.5339Z" fill="black"/>
<path d="M25 18.218C23.6587 18.218 22.3474 18.6158 21.2321 19.361C20.1168 20.1062 19.2476 21.1654 18.7343 22.4047C18.221 23.6439 18.0866 25.0075 18.3483 26.3231C18.61 27.6387 19.2559 28.8471 20.2044 29.7956C21.1529 30.7441 22.3613 31.39 23.6769 31.6517C24.9925 31.9134 26.3561 31.7791 27.5954 31.2658C28.8346 30.7525 29.8938 29.8832 30.639 28.7679C31.3843 27.6526 31.782 26.3414 31.782 25C31.782 23.2013 31.0675 21.4763 29.7956 20.2044C28.5237 18.9325 26.7987 18.218 25 18.218ZM25 28.782C24.252 28.782 23.5208 28.5602 22.8989 28.1446C22.2769 27.7291 21.7922 27.1384 21.5059 26.4473C21.2197 25.7563 21.1448 24.9958 21.2907 24.2622C21.4366 23.5286 21.7968 22.8547 22.3257 22.3257C22.8547 21.7968 23.5286 21.4366 24.2622 21.2907C24.9958 21.1448 25.7563 21.2197 26.4473 21.5059C27.1384 21.7922 27.7291 22.2769 28.1446 22.8989C28.5602 23.5208 28.782 24.252 28.782 25C28.782 26.0031 28.3836 26.965 27.6743 27.6743C26.965 28.3836 26.0031 28.782 25 28.782Z" fill="black"/>
</svg>
