<svg width="50" height="48" viewBox="0 0 50 48" fill="none" xmlns="http://www.w3.org/2000/svg">
<path d="M25.064 0H22.187C21.2311 0.00264781 20.3153 0.384292 19.6405 1.06123C18.9656 1.73816 18.5867 2.65513 18.587 3.611C18.586 3.74364 18.5419 3.87235 18.4615 3.97784C18.3811 4.08332 18.2686 4.15987 18.141 4.196C16.619 4.62229 15.1526 5.22646 13.772 5.996C13.6558 6.0621 13.521 6.08813 13.3886 6.07006C13.2561 6.05198 13.1333 5.99082 13.039 5.896C12.3621 5.22086 11.4451 4.84172 10.489 4.84172C9.53295 4.84172 8.61592 5.22086 7.939 5.896L5.906 7.932C5.57038 8.26645 5.30409 8.66387 5.12239 9.10145C4.94069 9.53904 4.84716 10.0082 4.84716 10.482C4.84716 10.9558 4.94069 11.425 5.12239 11.8625C5.30409 12.3001 5.57038 12.6975 5.906 13.032C6.00088 13.126 6.06211 13.2487 6.08019 13.381C6.09827 13.5134 6.07219 13.648 6.006 13.764C5.23662 15.1425 4.63245 16.607 4.206 18.127C4.16998 18.2576 4.09142 18.3725 3.98274 18.4535C3.87406 18.5345 3.74149 18.5769 3.606 18.574C2.64987 18.5748 1.73313 18.955 1.05705 19.6311C0.380966 20.3071 0.000794456 21.2239 0 22.18V25.053C0.00159011 26.0102 0.383147 26.9276 1.06082 27.6035C1.73849 28.2795 2.65682 28.6588 3.614 28.658C3.74718 28.6569 3.87695 28.7001 3.98287 28.7808C4.08878 28.8616 4.16482 28.9753 4.199 29.104C4.62579 30.6263 5.23028 32.093 6 33.474C6.06611 33.5899 6.09215 33.7243 6.07407 33.8565C6.05599 33.9886 5.9948 34.1111 5.9 34.205C5.56438 34.5395 5.29809 34.9369 5.11639 35.3745C4.93469 35.812 4.84116 36.2812 4.84116 36.755C4.84116 37.2288 4.93469 37.698 5.11639 38.1355C5.29809 38.5731 5.56438 38.9705 5.9 39.305L7.934 41.339C8.61066 42.0146 9.52779 42.3941 10.484 42.3941C11.4402 42.3941 12.3573 42.0146 13.034 41.339C13.1281 41.245 13.2504 41.1844 13.3822 41.1663C13.514 41.1483 13.6481 41.1738 13.764 41.239C15.1448 42.0088 16.6116 42.6129 18.134 43.039C18.263 43.0753 18.3765 43.1528 18.4572 43.2597C18.5379 43.3666 18.5814 43.497 18.581 43.631C18.5818 44.586 18.9612 45.5017 19.636 46.1775C20.3108 46.8532 21.226 47.2339 22.181 47.236H25.058C26.0138 47.2349 26.9301 46.8548 27.606 46.179C28.2818 45.5031 28.6619 44.5868 28.663 43.631V41.96C28.663 41.5638 28.5056 41.1838 28.2254 40.9036C27.9452 40.6234 27.5652 40.466 27.169 40.466C26.7728 40.466 26.3928 40.6234 26.1126 40.9036C25.8324 41.1838 25.675 41.5638 25.675 41.96V43.627C25.6747 43.7906 25.6096 43.9473 25.494 44.063C25.3783 44.1786 25.2216 44.2437 25.058 44.244H22.187C22.1056 44.2437 22.025 44.2274 21.95 44.1959C21.8749 44.1644 21.8068 44.1184 21.7495 44.0605C21.6923 44.0026 21.647 43.934 21.6164 43.8586C21.5858 43.7831 21.5703 43.7024 21.571 43.621C21.5686 42.8369 21.311 42.0749 20.837 41.4503C20.363 40.8256 19.6985 40.3723 18.944 40.159C17.649 39.7957 16.4013 39.2808 15.227 38.625C14.5421 38.2452 13.7524 38.0984 12.9768 38.2066C12.2011 38.3148 11.4817 38.6722 10.927 39.225C10.8111 39.3406 10.6542 39.4055 10.4905 39.4055C10.3268 39.4055 10.1699 39.3406 10.054 39.225L8.016 37.186C7.9584 37.1288 7.91269 37.0608 7.88149 36.9859C7.8503 36.911 7.83424 36.8307 7.83424 36.7495C7.83424 36.6684 7.8503 36.588 7.88149 36.5131C7.91269 36.4382 7.9584 36.3702 8.016 36.313C8.5669 35.757 8.92244 35.0372 9.0292 34.2617C9.13595 33.4863 8.98815 32.6972 8.608 32.013C7.95155 30.8393 7.43567 29.5924 7.071 28.298C6.85693 27.5422 6.40223 26.8768 5.77584 26.4027C5.14946 25.9286 4.38556 25.6717 3.6 25.671C3.43644 25.6707 3.27966 25.6056 3.16401 25.49C3.04835 25.3743 2.98326 25.2176 2.983 25.054V22.18C2.98339 22.0983 2.99992 22.0175 3.03163 21.9423C3.06333 21.867 3.1096 21.7987 3.16777 21.7414C3.22594 21.6841 3.29487 21.6388 3.37059 21.6082C3.44631 21.5776 3.52733 21.5622 3.609 21.563C4.39396 21.5611 5.15692 21.3034 5.78233 20.829C6.40774 20.3546 6.86153 19.6894 7.075 18.934C7.43705 17.6384 7.95235 16.3906 8.61 15.217C8.98914 14.532 9.13562 13.7423 9.02742 12.9669C8.91922 12.1914 8.56218 11.4721 8.01 10.917C7.9526 10.8598 7.90706 10.7919 7.876 10.7171C7.84494 10.6422 7.82897 10.562 7.829 10.481C7.82871 10.3999 7.84466 10.3195 7.87592 10.2446C7.90717 10.1697 7.9531 10.1019 8.011 10.045L10.045 8.01C10.1024 7.95231 10.1707 7.90653 10.2458 7.8753C10.321 7.84406 10.4016 7.82798 10.483 7.82798C10.5644 7.82798 10.645 7.84406 10.7202 7.8753C10.7953 7.90653 10.8636 7.95231 10.921 8.01C11.4769 8.56104 12.1968 8.91668 12.9722 9.02344C13.7477 9.1302 14.5368 8.98231 15.221 8.602C16.3974 7.94818 17.6467 7.43499 18.943 7.073C19.6987 6.85898 20.364 6.40443 20.838 5.77824C21.3121 5.15206 21.5691 4.38839 21.57 3.603C21.57 3.43953 21.6349 3.28275 21.7504 3.16707C21.8659 3.05139 22.0225 2.98626 22.186 2.986H25.063C25.2266 2.98626 25.3833 3.05135 25.499 3.16701C25.6146 3.28266 25.6797 3.43944 25.68 3.603V5.271C25.68 5.66723 25.8374 6.04724 26.1176 6.32742C26.3978 6.6076 26.7778 6.765 27.174 6.765C27.5702 6.765 27.9502 6.6076 28.2304 6.32742C28.5106 6.04724 28.668 5.66723 28.668 5.271V3.61C28.6683 2.65353 28.2888 1.73606 27.6131 1.05917C26.9373 0.38228 26.0205 0.00132509 25.064 0Z" fill="black"/>
<path d="M23.6261 13.368C24.6777 13.3661 25.7233 13.5264 26.7261 13.843C26.9139 13.9049 27.1121 13.9289 27.3093 13.9135C27.5064 13.8982 27.6985 13.8439 27.8745 13.7538C28.0505 13.6637 28.2069 13.5395 28.3346 13.3885C28.4622 13.2375 28.5586 13.0626 28.6182 12.8741C28.6777 12.6855 28.6993 12.487 28.6815 12.2901C28.6638 12.0931 28.6072 11.9017 28.5149 11.7268C28.4226 11.5519 28.2965 11.3971 28.1439 11.2713C27.9914 11.1455 27.8154 11.0513 27.6261 10.994C25.6431 10.368 23.5406 10.218 21.4889 10.5562C19.4371 10.8944 17.494 11.7113 15.8168 12.9405C14.1397 14.1698 12.7757 15.777 11.8356 17.6317C10.8954 19.4864 10.4055 21.5366 10.4055 23.616C10.4055 25.6954 10.8954 27.7456 11.8356 29.6003C12.7757 31.4551 14.1397 33.0622 15.8168 34.2915C17.494 35.5208 19.4371 36.3376 21.4889 36.6758C23.5406 37.014 25.6431 36.864 27.6261 36.238C27.9994 36.115 28.3092 35.8499 28.4884 35.5C28.6675 35.1502 28.7016 34.7438 28.5832 34.369C28.4648 33.9942 28.2035 33.6811 27.8559 33.4977C27.5082 33.3143 27.1023 33.2752 26.7261 33.389C25.3166 33.8367 23.8268 33.9741 22.3592 33.7918C20.8915 33.6094 19.4807 33.1116 18.2236 32.3326C16.9665 31.5535 15.8929 30.5116 15.0764 29.2785C14.26 28.0453 13.7201 26.6501 13.4937 25.1886C13.2674 23.727 13.36 22.2338 13.7653 20.8115C14.1705 19.3892 14.8787 18.0714 15.8413 16.9486C16.8039 15.8258 17.9981 14.9246 19.3419 14.3069C20.6856 13.6892 22.1471 13.3696 23.6261 13.37V13.368Z" fill="black"/>
<path d="M37.631 9.48C38.5007 9.48428 39.3546 9.24816 40.0986 8.7977C40.8425 8.34723 41.4475 7.69996 41.8467 6.92733C42.2459 6.15471 42.4239 5.28678 42.3609 4.41939C42.2979 3.552 41.9965 2.71887 41.4899 2.01201C40.9832 1.30514 40.2911 0.75202 39.49 0.413722C38.6888 0.0754235 37.8097 -0.0348959 36.9498 0.0949437C36.0898 0.224783 35.2825 0.589731 34.6169 1.14949C33.9513 1.70926 33.4534 2.44206 33.178 3.267H30.1021V6.255H33.178C33.4896 7.19141 34.0873 8.00639 34.8868 8.585C35.6862 9.16361 36.6472 9.47666 37.6341 9.48H37.631ZM37.631 3.03C37.9733 3.03039 38.3078 3.13225 38.5922 3.3227C38.8766 3.51314 39.0981 3.78362 39.2289 4.09996C39.3596 4.41629 39.3936 4.76427 39.3265 5.09992C39.2595 5.43557 39.0945 5.74382 38.8523 5.98571C38.6102 6.22759 38.3017 6.39225 37.966 6.45888C37.6303 6.52551 37.2823 6.49112 36.9662 6.36004C36.65 6.22897 36.3798 6.0071 36.1896 5.72248C35.9995 5.43786 35.8981 5.10327 35.8981 4.761C35.8981 4.53351 35.9429 4.30826 36.03 4.09811C36.1171 3.88797 36.2448 3.69705 36.4058 3.53629C36.5667 3.37552 36.7578 3.24806 36.968 3.16119C37.1783 3.07431 37.4036 3.02974 37.631 3.03Z" fill="black"/>
<path d="M45.0769 18.895C44.09 18.8982 43.129 19.2112 42.3295 19.7898C41.53 20.3684 40.9323 21.1835 40.6209 22.12H30.4109V25.108H40.6229C40.8994 25.9299 41.3974 26.6596 42.0621 27.2167C42.7267 27.7737 43.5323 28.1364 44.3899 28.2649C45.2476 28.3935 46.124 28.2827 46.9228 27.945C47.7215 27.6072 48.4115 27.0556 48.9168 26.3508C49.4221 25.6459 49.723 24.8153 49.7864 23.9504C49.8498 23.0855 49.6733 22.2199 49.2762 21.4489C48.8791 20.678 48.2769 20.0316 47.536 19.5809C46.7951 19.1303 45.9441 18.8929 45.0769 18.895ZM45.0769 25.345C44.7346 25.3448 44.4 25.2431 44.1155 25.0528C43.8309 24.8624 43.6092 24.592 43.4784 24.2757C43.3475 23.9594 43.3134 23.6114 43.3803 23.2757C43.4472 22.9399 43.6121 22.6316 43.8542 22.3896C44.0964 22.1476 44.4048 21.9829 44.7406 21.9162C45.0763 21.8495 45.4243 21.8838 45.7405 22.0148C46.0568 22.1459 46.3271 22.3677 46.5172 22.6524C46.7074 22.937 46.8089 23.2717 46.8089 23.614C46.8089 23.8414 46.7641 24.0665 46.677 24.2766C46.59 24.4867 46.4624 24.6776 46.3015 24.8383C46.1407 24.9991 45.9497 25.1266 45.7396 25.2135C45.5295 25.3004 45.3043 25.3451 45.0769 25.345Z" fill="black"/>
<path d="M38.194 17.554L41.95 15.132C42.7843 15.8643 43.8517 16.2762 44.9616 16.2943C46.0715 16.3124 47.1517 15.9354 48.0095 15.2308C48.8672 14.5261 49.4465 13.5395 49.6441 12.4471C49.8417 11.3548 49.6447 10.2278 49.0882 9.26728C48.5317 8.30677 47.652 7.57529 46.606 7.20341C45.5601 6.83153 44.4161 6.84345 43.3781 7.23706C42.3402 7.63066 41.4759 8.38032 40.9395 9.35222C40.4032 10.3241 40.2297 11.455 40.45 12.543L36.944 14.805H30.104V17.792H37.385C37.6718 17.7909 37.9523 17.7084 38.194 17.554ZM45.078 9.89299C45.4203 9.89338 45.7548 9.99524 46.0392 10.1857C46.3236 10.3761 46.5451 10.6466 46.6758 10.9629C46.8065 11.2793 46.8405 11.6273 46.7735 11.9629C46.7065 12.2986 46.5415 12.6068 46.2993 12.8487C46.0571 13.0906 45.7487 13.2552 45.413 13.3219C45.0772 13.3885 44.7293 13.3541 44.4131 13.223C44.0969 13.092 43.8267 12.8701 43.6366 12.5855C43.4465 12.3009 43.345 11.9663 43.345 11.624C43.345 11.3965 43.3898 11.1712 43.477 10.9611C43.5641 10.751 43.6918 10.56 43.8527 10.3993C44.0137 10.2385 44.2047 10.1111 44.415 10.0242C44.6252 9.93731 44.8505 9.89273 45.078 9.89299Z" fill="black"/>
<path d="M37.631 37.749C36.6446 37.7528 35.6843 38.0661 34.8854 38.6447C34.0865 39.2233 33.4893 40.038 33.178 40.974H30.1021V43.957H33.178C33.4545 44.7789 33.9525 45.5085 34.617 46.0655C35.2816 46.6226 36.087 46.9853 36.9446 47.1139C37.8021 47.2425 38.6785 47.1319 39.4773 46.7943C40.276 46.4568 40.966 45.9053 41.4714 45.2006C41.9768 44.496 42.2779 43.6655 42.3415 42.8007C42.4051 41.9359 42.2288 41.0704 41.832 40.2993C41.4353 39.5283 40.8334 38.8818 40.0927 38.4309C39.352 37.98 38.5012 37.7423 37.6341 37.744L37.631 37.749ZM37.631 44.199C37.2887 44.1988 36.9542 44.0971 36.6696 43.9068C36.3851 43.7165 36.1634 43.4461 36.0325 43.1298C35.9017 42.8134 35.8675 42.4654 35.9344 42.1297C36.0013 41.794 36.1663 41.4857 36.4084 41.2437C36.6505 41.0017 36.959 40.8369 37.2947 40.7702C37.6305 40.7035 37.9785 40.7378 38.2947 40.8689C38.6109 40.9999 38.8812 41.2218 39.0714 41.5064C39.2616 41.7911 39.3631 42.1257 39.3631 42.468C39.3631 42.6954 39.3182 42.9206 39.2312 43.1307C39.1441 43.3408 39.0165 43.5316 38.8557 43.6924C38.6949 43.8531 38.5039 43.9806 38.2938 44.0675C38.0837 44.1545 37.8585 44.1992 37.631 44.199Z" fill="black"/>
<path d="M45.078 30.885C43.9214 30.8887 42.8072 31.3204 41.95 32.097L38.194 29.675C37.9525 29.5195 37.6713 29.4368 37.384 29.437H30.103V32.425H36.944L40.45 34.691C40.2606 35.6452 40.3706 36.6346 40.7651 37.5238C41.1596 38.4129 41.8193 39.1585 42.6538 39.6584C43.4884 40.1582 44.457 40.388 45.4271 40.3161C46.3972 40.2443 47.3215 39.8744 48.0733 39.2571C48.8251 38.6398 49.3678 37.8052 49.627 36.8676C49.8863 35.93 49.8494 34.9352 49.5215 34.0194C49.1936 33.1035 48.5907 32.3114 47.7953 31.7514C46.9999 31.1914 46.0508 30.8909 45.078 30.891V30.885ZM45.078 37.335C44.7357 37.3348 44.4011 37.2331 44.1165 37.0427C43.832 36.8524 43.6102 36.5819 43.4794 36.2655C43.3486 35.9491 43.3145 35.6011 43.3815 35.2653C43.4485 34.9296 43.6135 34.6212 43.8557 34.3793C44.098 34.1374 44.4065 33.9727 44.7423 33.9061C45.0781 33.8395 45.4262 33.874 45.7424 34.0052C46.0586 34.1364 46.3288 34.3584 46.5189 34.6432C46.7089 34.9279 46.8102 35.2627 46.81 35.605C46.8099 35.8323 46.765 36.0574 46.6779 36.2674C46.5908 36.4773 46.4632 36.6681 46.3023 36.8287C46.1415 36.9894 45.9506 37.1168 45.7405 37.2036C45.5305 37.2905 45.3053 37.3351 45.078 37.335Z" fill="black"/>
</svg>
