<svg width="30" height="30" viewBox="0 0 30 30" fill="none" xmlns="http://www.w3.org/2000/svg">
<path d="M16.661 26.988H10.779V9.45202H16.66V11.903L16.892 11.627C17.8952 10.4241 19.2448 9.55949 20.757 9.15102C21.0763 9.09503 21.3998 9.06693 21.724 9.06702H21.982C22.5712 9.06698 23.1588 9.12662 23.736 9.24502C26.511 9.97502 28.168 12.145 28.536 15.519C28.574 15.866 28.596 18.052 28.596 21.532V26.981H22.716L22.699 21.681L22.683 16.381L22.55 15.937C22.458 15.3118 22.1434 14.7407 21.6641 14.3289C21.1848 13.917 20.573 13.6919 19.941 13.695H19.803C19.2127 13.6958 18.6352 13.8668 18.1397 14.1874C17.6441 14.5081 17.2515 14.9649 17.009 15.503C16.662 16.203 16.662 16.203 16.662 21.879V26.987L16.661 26.988ZM7.606 26.988H1.719V9.45802H7.602V26.993L7.606 26.988ZM4.792 7.11402H4.703C4.40057 7.11262 4.09905 7.08079 3.803 7.01902C3.13831 6.87854 2.5404 6.51805 2.10589 5.99579C1.67139 5.47353 1.42567 4.82003 1.40844 4.14087C1.39121 3.46172 1.60349 2.7966 2.01095 2.25298C2.41842 1.70937 2.99728 1.31902 3.654 1.14502C4.0129 1.04947 4.38259 1.0004 4.754 0.999023H4.918C5.31902 0.999153 5.71608 1.07842 6.08642 1.23228C6.45676 1.38614 6.7931 1.61157 7.07615 1.89565C7.35921 2.17973 7.58343 2.51687 7.73595 2.88776C7.88848 3.25865 7.96631 3.656 7.965 4.05702C7.97389 4.44894 7.90393 4.83864 7.75929 5.20299C7.61465 5.56734 7.39827 5.89892 7.123 6.17802C6.49573 6.78063 5.65882 7.1159 4.789 7.11302L4.792 7.11402Z" fill="white" stroke="#A8879D" stroke-width="1.5"/>
</svg>
