<svg width="30" height="30" viewBox="0 0 36 36" fill="none" xmlns="http://www.w3.org/2000/svg">
<path d="M11.6772 30.537C14.9171 32.2008 18.6449 32.6527 22.1885 31.8111C25.7322 30.9696 28.8588 28.8899 31.0047 25.947C33.1507 23.0041 34.1749 19.3915 33.8929 15.7602C33.6108 12.1289 32.041 8.71781 29.4663 6.14159C26.8917 3.56536 23.4815 1.99349 19.8504 1.70923C16.2192 1.42497 12.606 2.44703 9.66181 4.59122C6.71761 6.73541 4.6361 9.8607 3.7924 13.4039C2.94869 16.947 3.39829 20.675 5.06016 23.916L1.66016 33.933L11.6772 30.537Z" stroke="white" stroke-width="2.4" stroke-linecap="round" stroke-linejoin="round"/>
<path d="M11.8472 16.9541H11.8642" stroke="white" stroke-width="2.4" stroke-linecap="round" stroke-linejoin="round"/>
<path d="M18.6392 16.9541H18.6562" stroke="white" stroke-width="2.4" stroke-linecap="round" stroke-linejoin="round"/>
<path d="M25.4302 16.9541H25.4472" stroke="white" stroke-width="2.4" stroke-linecap="round" stroke-linejoin="round"/>
</svg>
