<svg width="52" height="51" viewBox="0 0 52 51" fill="none" xmlns="http://www.w3.org/2000/svg">
<path d="M43.939 7.43597C40.3887 3.88516 35.8652 1.46692 30.9405 0.487051C26.0158 -0.492815 20.9111 0.00971472 16.272 1.93109C11.633 3.85246 7.66783 7.10637 4.87811 11.2813C2.08838 15.4563 0.599365 20.3647 0.599365 25.386C0.599365 30.4072 2.08838 35.3157 4.87811 39.4906C7.66783 43.6656 11.633 46.9195 16.272 48.8409C20.9111 50.7622 26.0158 51.2648 30.9405 50.2849C35.8652 49.305 40.3887 46.8868 43.939 43.336C48.6992 38.5751 51.3734 32.1184 51.3734 25.386C51.3734 18.6536 48.6992 12.1969 43.939 7.43597ZM13.329 43.868C13.854 40.8919 15.4108 38.1959 17.7259 36.2535C20.041 34.3111 22.9665 33.2464 25.9885 33.2464C29.0105 33.2464 31.936 34.3111 34.2511 36.2535C36.5662 38.1959 38.123 40.8919 38.648 43.868C34.9219 46.4261 30.5082 47.7953 25.9885 47.7953C21.4688 47.7953 17.0551 46.4261 13.329 43.868ZM17.92 22.193C17.92 20.5963 18.3935 19.0355 19.2806 17.7079C20.1676 16.3803 21.4285 15.3455 22.9036 14.7345C24.3787 14.1235 26.002 13.9636 27.568 14.2751C29.134 14.5866 30.5724 15.3555 31.7015 16.4845C32.8305 17.6135 33.5994 19.052 33.9109 20.618C34.2224 22.184 34.0625 23.8072 33.4515 25.2824C32.8405 26.7575 31.8057 28.0184 30.4781 28.9054C29.1505 29.7925 27.5897 30.266 25.993 30.266C23.8519 30.266 21.7985 29.4154 20.2845 27.9014C18.7706 26.3875 17.92 24.3341 17.92 22.193ZM41.223 41.8C40.5693 39.4904 39.3996 37.3594 37.8023 35.5677C36.205 33.7761 34.2217 32.3705 32.002 31.457C33.9998 30.1591 35.5245 28.2501 36.3487 26.0149C37.173 23.7797 37.2526 21.3379 36.5757 19.0537C35.8989 16.7695 34.5018 14.7653 32.5929 13.34C30.6839 11.9146 28.3654 11.1445 25.983 11.1445C23.6006 11.1445 21.2821 11.9146 19.3732 13.34C17.4642 14.7653 16.0671 16.7695 15.3903 19.0537C14.7134 21.3379 14.7931 23.7797 15.6173 26.0149C16.4415 28.2501 17.9662 30.1591 19.964 31.457C17.7459 32.3715 15.7643 33.7775 14.1686 35.5691C12.5729 37.3608 11.4047 39.4912 10.752 41.8C7.44903 38.7374 5.14561 34.7505 4.14216 30.3594C3.13871 25.9682 3.48181 21.3766 5.12671 17.1833C6.77161 12.9901 9.64196 9.38981 13.3634 6.8521C17.0849 4.31439 21.4847 2.95702 25.989 2.95702C30.4933 2.95702 34.8932 4.31439 38.6146 6.8521C42.3361 9.38981 45.2064 12.9901 46.8513 17.1833C48.4962 21.3766 48.8393 25.9682 47.8358 30.3594C46.8324 34.7505 44.529 38.7374 41.226 41.8H41.223Z" fill="black"/>
</svg>
