<svg width="33" height="24" viewBox="0 0 33 24" fill="none" xmlns="http://www.w3.org/2000/svg">
<path d="M29.8889 23.236H2.61994C2.36039 23.2304 2.10384 23.1793 1.86194 23.085L11.6039 13.694L15.5449 17.369C15.7388 17.5494 15.9945 17.6487 16.2593 17.6465C16.5242 17.6442 16.7781 17.5407 16.9689 17.357L20.9249 13.549L30.9789 22.934C30.6463 23.126 30.27 23.2293 29.8859 23.234L29.8889 23.236ZM0.435937 21.549C0.376988 21.3593 0.343364 21.1626 0.335938 20.964V3.23303L10.0599 12.28L0.436937 21.543L0.435937 21.549ZM32.0849 21.156L22.4039 12.114L32.0969 2.78003C32.101 2.79847 32.101 2.81758 32.0969 2.83603C32.0903 2.85298 32.0862 2.87085 32.0849 2.88903V21.156ZM16.2439 15.18L1.18394 1.13703C1.58499 0.798498 2.09115 0.609746 2.61594 0.603027H29.8889C30.2925 0.609158 30.6868 0.724586 31.0299 0.937027L16.2439 15.18Z" fill="black"/>
</svg>
