<svg width="30" height="30" viewBox="0 0 30 30" fill="none" xmlns="http://www.w3.org/2000/svg">
<path d="M26.7449 5.38501H16.1309L18.3439 23.145C18.3725 23.4951 18.3312 23.8474 18.2226 24.1815C18.1139 24.5156 17.94 24.8247 17.7109 25.091L13.9629 29.374H26.7449C27.4247 29.3732 28.0764 29.1028 28.557 28.6222C29.0377 28.1415 29.3081 27.4898 29.3089 26.81V8.01001C29.3114 7.32356 29.044 6.66364 28.5643 6.17258C28.0847 5.68151 27.4312 5.39865 26.7449 5.38501ZM26.7449 14.844H26.5129C26.0816 16.2162 25.3817 17.4889 24.4539 18.588C25.0819 19.163 25.7539 19.632 26.4259 20.159C26.5895 20.3045 26.691 20.5073 26.7095 20.7254C26.728 20.9435 26.6622 21.1605 26.5255 21.3315C26.3888 21.5025 26.1918 21.6146 25.9749 21.6447C25.758 21.6747 25.5379 21.6204 25.3599 21.493C24.6349 20.921 23.9539 20.44 23.2719 19.817C22.5909 20.441 21.9719 20.917 21.2419 21.493C21.0639 21.6204 20.8437 21.6747 20.6269 21.6447C20.41 21.6146 20.213 21.5025 20.0763 21.3315C19.9396 21.1605 19.8738 20.9435 19.8923 20.7254C19.9108 20.5073 20.0123 20.3045 20.1759 20.159C20.8429 19.631 21.4579 19.159 22.0839 18.588C21.1759 17.4848 20.4961 16.2121 20.0839 14.844H19.8519C19.6303 14.8364 19.4204 14.7431 19.2663 14.5837C19.1123 14.4242 19.0261 14.2112 19.0261 13.9895C19.0261 13.7678 19.1123 13.5548 19.2663 13.3954C19.4204 13.2359 19.6303 13.1426 19.8519 13.135H22.4159V12.28C22.412 12.1653 22.4312 12.051 22.4724 11.9439C22.5135 11.8368 22.5758 11.7391 22.6556 11.6566C22.7353 11.5741 22.8308 11.5085 22.9365 11.4637C23.0421 11.4189 23.1557 11.3958 23.2704 11.3958C23.3851 11.3958 23.4987 11.4189 23.6043 11.4637C23.71 11.5085 23.8055 11.5741 23.8852 11.6566C23.965 11.7391 24.0273 11.8368 24.0685 11.9439C24.1096 12.051 24.1288 12.1653 24.1249 12.28V13.135H26.7459C26.9675 13.1426 27.1774 13.2359 27.3315 13.3954C27.4855 13.5548 27.5717 13.7678 27.5717 13.9895C27.5717 14.2112 27.4855 14.4242 27.3315 14.5837C27.1774 14.7431 26.9665 14.8364 26.7449 14.844Z" fill="black"/>
<path d="M14.0507 2.44297C13.9722 1.82369 13.6706 1.25424 13.2026 0.841205C12.7345 0.428169 12.132 0.19985 11.5077 0.198975L2.70072 0.198975C2.02095 0.199769 1.36925 0.470158 0.888574 0.95083C0.407903 1.4315 0.137513 2.0832 0.136719 2.76297L0.136719 21.682C0.137513 22.3617 0.407903 23.0134 0.888574 23.4941C1.36925 23.9748 2.02095 24.2452 2.70072 24.246H16.1827C16.4327 23.96 16.6467 23.782 16.6467 23.411C16.6497 23.314 14.0587 2.53797 14.0507 2.44297ZM10.6187 16.536C10.5085 16.558 10.395 16.558 10.2847 16.536C10.1744 16.5141 10.0696 16.4706 9.97614 16.4081C9.8827 16.3456 9.8025 16.2653 9.74014 16.1717C9.67778 16.0782 9.63448 15.9733 9.61272 15.863L9.06972 13.131H6.64972L6.10372 15.858C6.08876 15.9741 6.05012 16.0859 5.99019 16.1864C5.93026 16.287 5.85031 16.3742 5.75531 16.4426C5.6603 16.511 5.55226 16.5592 5.43788 16.5841C5.3235 16.6091 5.20522 16.6102 5.09036 16.5876C4.9755 16.565 4.86652 16.519 4.77016 16.4525C4.6738 16.386 4.59212 16.3004 4.53019 16.2011C4.46825 16.1017 4.42737 15.9907 4.41009 15.875C4.39281 15.7592 4.39949 15.6411 4.42972 15.528L6.13672 6.97997C6.17553 6.78628 6.28022 6.61201 6.43299 6.48677C6.58576 6.36153 6.77718 6.29305 6.97472 6.29297H8.73672C8.93426 6.29305 9.12568 6.36153 9.27845 6.48677C9.43122 6.61201 9.5359 6.78628 9.57472 6.97997L11.2837 15.527C11.3062 15.6371 11.3067 15.7506 11.2853 15.8609C11.2639 15.9712 11.221 16.0763 11.1589 16.17C11.0969 16.2637 11.017 16.3443 10.9238 16.4071C10.8305 16.4699 10.7259 16.5137 10.6157 16.536H10.6187Z" fill="black"/>
<path d="M10.123 25.955L10.269 27.128C10.3296 27.5563 10.4966 27.9625 10.7548 28.3094C11.0131 28.6564 11.3542 28.9331 11.747 29.114L14.6171 25.955H10.123Z" fill="black"/>
<path d="M21.8672 14.844C22.1985 15.7392 22.6712 16.5754 23.2672 17.321C23.8836 16.5788 24.3768 15.7425 24.7282 14.844H21.8672Z" fill="black"/>
</svg>
