<svg width="35" height="26" viewBox="0 0 35 26" fill="none" xmlns="http://www.w3.org/2000/svg">
<path d="M29.584 0H4.755C4.1304 -5.52502e-08 3.51191 0.123058 2.93488 0.362144C2.35785 0.60123 1.83357 0.95166 1.392 1.39341C0.950432 1.83517 0.600223 2.35959 0.361379 2.93673C0.122536 3.51386 -0.000262294 4.1324 4.20648e-07 4.757V20.871C4.20648e-07 22.1321 0.500972 23.3416 1.39271 24.2333C2.28444 25.125 3.4939 25.626 4.755 25.626H29.584C30.8451 25.626 32.0546 25.125 32.9463 24.2333C33.838 23.3416 34.339 22.1321 34.339 20.871V4.757C34.3391 4.13253 34.2162 3.51415 33.9773 2.93718C33.7384 2.36022 33.3882 1.83598 32.9466 1.39441C32.505 0.952846 31.9808 0.6026 31.4038 0.363685C30.8269 0.124771 30.2085 0.00186848 29.584 0.00199986V0ZM10.315 8.731C10.315 9.1511 10.1481 9.554 9.85106 9.85106C9.554 10.1481 9.1511 10.315 8.731 10.315H6.081C5.66142 10.3142 5.25929 10.147 4.96288 9.85C4.66647 9.55303 4.5 9.15058 4.5 8.731V6.083C4.5 5.6629 4.66689 5.26 4.96394 4.96294C5.261 4.66588 5.6639 4.499 6.084 4.499H8.734C9.1541 4.499 9.557 4.66588 9.85406 4.96294C10.1511 5.26 10.318 5.6629 10.318 6.083V8.733L10.315 8.731ZM24.315 16.711C24.1605 16.711 24.0106 16.6589 23.8894 16.5631C23.7681 16.4674 23.6827 16.3336 23.6469 16.1834C23.6111 16.0331 23.6269 15.8752 23.6919 15.735C23.7569 15.5949 23.8672 15.4807 24.005 15.411C24.4552 15.1477 24.8248 14.7662 25.0739 14.308C25.323 13.8497 25.4419 13.332 25.418 12.811C25.4408 12.2904 25.3207 11.7735 25.0707 11.3163C24.8208 10.859 24.4505 10.4789 24 10.217C23.918 10.1772 23.8448 10.1216 23.7846 10.0533C23.7243 9.98498 23.6783 9.90537 23.6491 9.81909C23.6199 9.73281 23.6081 9.64159 23.6145 9.55073C23.6209 9.45987 23.6453 9.37119 23.6862 9.28984C23.7272 9.20849 23.784 9.1361 23.8532 9.07689C23.9224 9.01767 24.0027 8.9728 24.0894 8.9449C24.1761 8.917 24.2675 8.90662 24.3582 8.91436C24.449 8.9221 24.5373 8.94781 24.618 8.99C25.2943 9.36798 25.854 9.92434 26.2359 10.5984C26.6178 11.2726 26.8074 12.0386 26.784 12.813C26.8073 13.5873 26.6178 14.3531 26.236 15.0272C25.8543 15.7013 25.295 16.2577 24.619 16.636C24.524 16.6847 24.4188 16.7104 24.312 16.711H24.315ZM26.315 18.988C26.1518 19.0696 25.9628 19.0829 25.7897 19.0252C25.6166 18.9674 25.4736 18.8432 25.392 18.68C25.3104 18.5168 25.2971 18.3278 25.3548 18.1547C25.4126 17.9816 25.5368 17.8386 25.7 17.757C26.5619 17.2595 27.2712 16.5356 27.751 15.6638C28.2309 14.7919 28.4629 13.8053 28.422 12.811C28.4626 11.8171 28.2306 10.831 27.7512 9.95941C27.2718 9.08782 26.5632 8.36391 25.702 7.866C25.5421 7.78244 25.4215 7.63932 25.3662 7.46758C25.3109 7.29583 25.3255 7.10923 25.4066 6.94809C25.4878 6.78695 25.6291 6.66421 25.8 6.60638C25.9709 6.54854 26.1577 6.56026 26.32 6.639C27.4082 7.25182 28.3075 8.15117 28.9204 9.23933C29.5332 10.3275 29.8361 11.5628 29.796 12.811C29.8364 14.0595 29.5337 15.2953 28.9209 16.3838C28.308 17.4724 27.4085 18.372 26.32 18.985L26.315 18.988Z" fill="black"/>
</svg>
