<svg width="67" height="66" viewBox="0 0 67 66" fill="none" xmlns="http://www.w3.org/2000/svg">
<path fill-rule="evenodd" clip-rule="evenodd" d="M27.7122 0.257003C1.64816 3.941 -8.69783 34.802 10.1112 52.771C17.3872 59.723 28.9112 62.824 38.1112 60.306L40.7012 59.597L43.1152 61.782C56.1772 73.603 73.9582 55.822 62.1382 42.76L59.9532 40.346L60.6622 37.756C65.9902 18.287 47.6622 -2.564 27.7102 0.256003M37.3462 3.143C52.7712 6.943 62.6682 23.343 58.3462 37.943C57.4462 41 55.5382 39.702 56.3052 36.55C62.0792 12.824 33.9132 -4.791 14.6412 10.494C-6.54083 27.294 10.6412 62.374 36.9032 55.954C40.0542 55.184 41.3552 57.087 38.2962 57.993C21.1702 63.061 2.83317 48.92 2.83317 30.644C2.83317 12.628 20.0762 -1.112 37.3442 3.144M29.9692 8.029C30.1842 8.594 30.6462 9.057 30.9972 9.057C31.3482 9.057 31.8102 8.594 32.0252 8.029C32.4672 6.866 32.7662 6.821 35.8082 7.456C41.0572 8.551 47.2952 12.431 46.3192 13.994C45.5672 15.194 46.4432 15.943 47.8552 15.3C48.8632 14.841 48.9772 14.934 50.7142 17.618C53.9232 22.579 55.6562 29.418 53.7722 29.683C52.3892 29.883 52.2662 31.16 53.5822 31.66C54.7822 32.115 54.8822 32.798 54.1692 35.704C53.5302 38.327 53.3222 38.513 50.7332 38.78C47.7816 39.1396 45.0355 40.4774 42.933 42.5799C40.8305 44.6824 39.4928 47.4284 39.1332 50.38C38.8662 52.969 38.6802 53.18 36.0572 53.816C33.1512 54.525 32.4682 54.425 32.0132 53.229C31.5132 51.913 30.2322 52.036 30.0362 53.419C29.7682 55.303 22.9362 53.57 17.9702 50.361C15.2862 48.625 15.1932 48.51 15.6532 47.502C16.2982 46.086 15.5532 45.215 14.3382 45.972C12.8042 46.93 9.53816 42.004 8.14416 36.644C7.11716 32.679 7.14416 32.144 8.38216 31.673C9.71916 31.164 9.69616 30.117 8.33616 29.6C7.32316 29.215 7.27917 29.083 7.55417 27.246C8.38217 21.715 12.6482 13.777 14.0422 15.172C14.7742 15.904 15.9882 15.733 15.9882 14.898C15.9738 14.457 15.8102 14.0339 15.5242 13.698C14.0742 12.248 23.9902 7.217 28.6412 7.043C28.9437 7.02612 29.2425 7.11642 29.485 7.29804C29.7275 7.47966 29.8982 7.74096 29.9672 8.036M30.2552 13.847C29.9848 15.8479 29.8884 17.8685 29.9672 19.886V25.637L28.3222 27.155C25.5002 29.76 26.2502 33.809 29.7702 34.97C32.7622 35.957 36.3892 32.534 35.3892 29.67C35.0052 28.57 35.1442 28.333 37.6132 25.886C40.3642 23.159 40.6272 22.641 39.6622 21.84C39.1892 21.447 38.5252 21.877 36.1672 24.101C32.2202 27.824 32.0792 27.682 31.9312 19.824C31.8192 13.857 31.4752 12.631 30.2562 13.85M32.6652 29.4C32.9813 29.7965 33.1416 30.2948 33.1158 30.8013C33.09 31.3077 32.88 31.7873 32.5252 32.1496C32.1704 32.5118 31.6954 32.7319 31.1896 32.7683C30.6838 32.8046 30.1821 32.6548 29.7792 32.347C29.5214 32.1761 29.3045 31.9504 29.144 31.6859C28.9836 31.4215 28.8836 31.1248 28.8511 30.8172C28.8186 30.5096 28.8545 30.1987 28.9561 29.9065C29.0578 29.6144 29.2227 29.3483 29.4391 29.1274C29.6555 28.9064 29.9181 28.7359 30.208 28.6282C30.498 28.5204 30.8081 28.4781 31.1163 28.5041C31.4245 28.5302 31.7232 28.624 31.9909 28.7789C32.2587 28.9337 32.4889 29.1458 32.6652 29.4ZM57.3202 41.965C64.7972 45.371 65.8722 56.096 59.2442 61.152C50.9092 67.509 38.7232 59.288 41.6342 49.273C42.0577 47.6776 42.8266 46.1946 43.8864 44.9291C44.9462 43.6636 46.2711 42.6463 47.7675 41.9493C49.2638 41.2522 50.895 40.8924 52.5457 40.8953C54.1964 40.8982 55.8263 41.2627 57.3202 41.965ZM53.6862 44.205C52.8912 45 52.0292 47.568 52.3712 48.121C53.1532 49.386 55.4602 47.021 55.4602 44.957C55.462 44.7508 55.4027 44.5487 55.2896 44.3762C55.1766 44.2038 55.0149 44.0688 54.8251 43.9882C54.6352 43.9077 54.4258 43.8853 54.2232 43.9239C54.0207 43.9625 53.8341 44.0603 53.6872 44.205M48.2752 45.64C47.4482 47.474 47.6542 48.54 48.8352 48.54C49.7152 48.54 51.2522 45.269 50.7522 44.46C50.1522 43.493 48.9952 44.045 48.2752 45.64ZM46.3122 50.202C45.2222 50.861 45.2832 56.868 46.3982 58.697C48.3662 61.925 54.0592 62.163 56.0652 59.097C56.5653 58.4235 57.3028 57.9652 58.1282 57.815C58.8349 57.7204 59.5017 57.4326 60.0553 56.9832C60.6088 56.5338 61.0276 55.9404 61.2654 55.2682C61.5033 54.596 61.551 53.8713 61.4032 53.1738C61.2555 52.4762 60.9181 51.833 60.4282 51.315L59.2282 49.972L53.1282 49.866C49.3742 49.801 46.7522 49.927 46.3092 50.195M54.6352 54.771C54.6352 58.005 53.9922 58.812 51.4172 58.812C48.7002 58.812 48.0562 58.051 48.0562 54.842V52.23H54.6342V54.763M58.9892 53.263C59.2692 54.378 58.6002 55.519 57.6672 55.519C57.2802 55.519 57.1012 54.997 57.1012 53.875C57.1012 51.895 58.5302 51.432 58.9892 53.263Z" fill="black"/>
</svg>
