<svg width="79" height="51" viewBox="0 0 79 51" fill="none" xmlns="http://www.w3.org/2000/svg">
<path fill-rule="evenodd" clip-rule="evenodd" d="M22.7679 1.12197C17.4909 2.94597 14.4259 8.29397 14.3929 15.737C14.3632 17.0862 14.4691 18.4349 14.7089 19.763C14.9539 20.617 14.9089 21.015 14.5449 21.319C13.6389 22.071 13.3019 21.295 13.3019 18.465C13.3019 14.771 12.9919 14.476 9.1179 14.476C5.4609 14.476 5.09091 14.747 4.95691 17.532L4.8569 19.689L2.89091 19.8C0.0209074 19.962 0.00390625 19.994 0.00390625 25.233C0.00390625 30.506 0.0789077 30.653 2.76491 30.653C4.88391 30.653 4.9359 30.725 5.1219 33.888L5.2169 35.506L8.77991 35.606C13.0899 35.731 13.0799 35.743 13.3049 31.981L13.4849 29.032L15.3469 28.924L17.2089 28.816L18.1779 30.541C22.6779 38.551 30.4259 46.19 37.4399 49.532L38.7469 50.155L41.7069 48.58C48.9311 44.567 54.9531 38.6983 59.1509 31.58L60.5999 29.032H64.5319L64.7119 31.981C64.9409 35.743 64.9269 35.731 69.2369 35.606L72.7999 35.506L72.8949 33.888C73.0799 30.725 73.1329 30.653 75.2509 30.653C77.9389 30.653 78.0119 30.508 78.0119 25.21C78.0119 20.022 78.0779 20.145 75.1359 19.872L73.1589 19.689L73.0589 17.532C72.9249 14.739 72.5589 14.476 68.8359 14.476C65.0529 14.476 64.7859 14.74 64.6419 18.62C64.5579 20.881 64.4219 21.486 63.9959 21.486C63.5419 21.486 63.4779 20.886 63.5869 17.692C64.1269 1.93697 54.5359 -3.30803 40.3599 4.98497C39.2129 5.65597 39.1709 5.65597 38.0229 4.98497C33.7039 2.46497 32.3859 1.79997 30.4579 1.16697C27.974 0.291799 25.2683 0.275249 22.7739 1.11997M32.4829 4.56697C34.0315 5.34411 35.5316 6.21437 36.9749 7.17297C39.0669 8.65997 38.9749 8.66597 41.9399 6.86597C49.9819 1.97897 56.0729 2.19597 59.1699 7.47897C64.0249 15.764 60.2179 29.387 50.2979 39.222C48.2389 41.263 42.4769 45.749 41.9129 45.749C41.3522 45.9803 40.8178 46.2709 40.3189 46.616C37.8249 48.19 30.2089 43.044 24.6699 36.043C10.9179 18.671 16.4209 -3.50103 32.4769 4.56897M40.8639 15.279C39.9201 17.7612 39.1077 20.2914 38.4299 22.859C36.5359 29.493 36.4859 29.609 35.8639 28.841C35.5208 28.4263 35.3011 27.9235 35.2299 27.39C35.2299 25.211 34.1299 24.183 31.7979 24.183C29.8719 24.183 29.3979 24.04 28.2209 23.104C24.7699 20.362 20.6109 24.357 23.6999 27.445C24.0297 27.801 24.437 28.0764 24.8902 28.25C25.3434 28.4235 25.8305 28.4906 26.3137 28.4459C26.797 28.4013 27.2635 28.2461 27.6773 27.9925C28.091 27.7388 28.4409 27.3934 28.6999 26.983C29.0759 26.453 29.5419 26.327 30.8089 26.411C32.6299 26.532 32.6749 26.602 33.9899 31.372C35.4819 36.79 36.8199 37.204 38.0479 32.63C38.2609 31.839 38.8479 29.817 39.3479 28.136C39.8479 26.455 40.4419 24.436 40.6589 23.642C41.4679 20.694 41.5179 20.637 42.1809 21.919C42.4775 22.4544 42.6785 23.0375 42.7749 23.642C42.7749 25.561 43.7749 26.342 46.2419 26.342C48.3629 26.342 48.7419 26.456 49.8419 27.421C53.1069 30.287 57.3709 26.142 54.3079 23.08C52.9259 21.698 51.5499 21.706 49.7869 23.107C49.2729 23.588 48.6392 23.9222 47.952 24.0747C47.2647 24.2272 46.5491 24.1924 45.8799 23.974C45.3099 23.755 45.2429 23.584 43.6799 18.345C42.6229 14.814 41.7449 13.857 40.8669 15.282M10.6059 25.261V33.349L9.2059 33.464C7.2269 33.626 7.20591 33.53 7.19791 25.051C7.19191 16.659 7.12891 16.916 9.15691 17.065L10.6079 17.172V25.26M70.7439 24.541C70.8709 33.706 70.8919 33.601 68.9229 33.458L67.4069 33.348L67.3069 25.628C67.1929 16.559 67.1179 16.917 69.1069 17.061L70.6379 17.172L70.7379 24.542M4.8679 23.213C5.0023 24.1353 5.03583 25.0694 4.9679 25.999L4.8569 27.957H2.33791L2.22591 25.999C2.06091 23.079 2.3259 22.385 3.5949 22.385C4.4069 22.385 4.7099 22.585 4.8679 23.213ZM75.6849 23.213C75.8194 24.1352 75.853 25.0694 75.7849 25.999L75.6739 27.957H73.1579L73.0439 25.999C72.8779 23.079 73.1439 22.385 74.4129 22.385C75.2249 22.385 75.5269 22.585 75.6849 23.213ZM15.3439 24.099C16.6439 24.927 16.2919 26.337 14.7819 26.337C13.3999 26.337 13.3049 26.272 13.3049 25.318C13.3049 23.872 14.1719 23.354 15.3439 24.099ZM64.6439 25.168C64.7549 26.318 64.7319 26.336 63.2569 26.336C61.8019 26.336 61.7649 26.307 62.0049 25.351C62.4979 23.387 64.4599 23.252 64.6439 25.168ZM26.7009 24.753C27.1009 25.153 26.5309 25.976 25.8489 25.976C25.754 25.9847 25.6583 25.9718 25.569 25.9381C25.4798 25.9045 25.3994 25.8511 25.3338 25.7818C25.2682 25.7126 25.2192 25.6294 25.1905 25.5385C25.1618 25.4476 25.154 25.3513 25.1679 25.257C25.1955 25.0932 25.2674 24.94 25.3759 24.8142C25.4843 24.6883 25.6251 24.5945 25.7831 24.543C25.941 24.4915 26.1101 24.4842 26.2719 24.5219C26.4336 24.5596 26.582 24.6409 26.7009 24.757M52.8479 25.257C52.8312 25.4381 52.7537 25.6083 52.628 25.7398C52.5024 25.8713 52.3359 25.9565 52.1557 25.9814C51.9755 26.0063 51.7922 25.9695 51.6355 25.877C51.4789 25.7845 51.3581 25.6418 51.2929 25.472C51.0509 24.84 51.3399 24.538 52.1929 24.538C52.2862 24.5324 52.3795 24.5476 52.4662 24.5827C52.5528 24.6177 52.6305 24.6716 52.6937 24.7405C52.7568 24.8094 52.8038 24.8915 52.8311 24.9809C52.8585 25.0702 52.8656 25.1645 52.8519 25.257" fill="black"/>
</svg>
