<svg width="30" height="30" viewBox="0 0 30 30" fill="none" xmlns="http://www.w3.org/2000/svg">
<path d="M28.6641 17.579L26.0191 20.224V22.324C26.0177 23.2977 25.6303 24.2312 24.9418 24.9198C24.2533 25.6083 23.3198 25.9957 22.3461 25.997H20.2391L17.5971 28.638C17.2561 28.9793 16.8513 29.25 16.4057 29.4347C15.9601 29.6194 15.4824 29.7144 15.0001 29.7144C14.5177 29.7144 14.0401 29.6194 13.5944 29.4347C13.1488 29.25 12.744 28.9793 12.4031 28.638L9.76406 26.001H7.65406C6.67964 25.9997 5.74556 25.6117 5.05691 24.9223C4.36826 24.2329 3.98133 23.2984 3.98106 22.324V20.224L1.34006 17.579C0.65204 16.8896 0.265625 15.9555 0.265625 14.9815C0.265625 14.0076 0.65204 13.0734 1.34006 12.384L3.98106 9.74301V7.63601C3.98239 6.66228 4.36979 5.7288 5.05832 5.04027C5.74686 4.35173 6.68033 3.96433 7.65406 3.96301H9.76406L12.4031 1.32401C13.1028 0.655811 14.0331 0.282959 15.0006 0.282959C15.9681 0.282959 16.8984 0.655811 17.5981 1.32401L20.2391 3.96501H22.3461C22.6708 3.96501 22.9823 4.09402 23.2119 4.32366C23.4416 4.5533 23.5706 4.86475 23.5706 5.18951C23.5706 5.51427 23.4416 5.82573 23.2119 6.05536C22.9823 6.285 22.6708 6.41401 22.3461 6.41401H19.7321C19.5712 6.41429 19.4118 6.3827 19.2632 6.32109C19.1145 6.25947 18.9796 6.16904 18.8661 6.05501L15.8661 3.05501C15.6327 2.83278 15.3228 2.70882 15.0006 2.70882C14.6783 2.70882 14.3684 2.83278 14.1351 3.05501L11.1351 6.05501C11.0215 6.16895 10.8865 6.25933 10.7379 6.32093C10.5893 6.38254 10.4299 6.41418 10.2691 6.41401H7.65406C7.33012 6.41454 7.01955 6.54325 6.79021 6.77203C6.56086 7.00082 6.43139 7.31107 6.43006 7.63501V10.249C6.43023 10.4099 6.3986 10.5692 6.33699 10.7178C6.27538 10.8665 6.18501 11.0014 6.07106 11.115L3.07106 14.115C2.84195 14.345 2.7133 14.6564 2.7133 14.981C2.7133 15.3056 2.84195 15.617 3.07106 15.847L6.07106 18.847C6.18501 18.9606 6.27538 19.0956 6.33699 19.2442C6.3986 19.3928 6.43023 19.5521 6.43006 19.713V22.324C6.4298 22.485 6.46126 22.6444 6.52264 22.7932C6.58402 22.942 6.67413 23.0772 6.7878 23.1912C6.90147 23.3051 7.03648 23.3955 7.18512 23.4573C7.33376 23.519 7.49311 23.5509 7.65406 23.551H10.2691C10.43 23.5507 10.5893 23.5823 10.738 23.6439C10.8866 23.7055 11.0216 23.796 11.1351 23.91L14.1351 26.91C14.3679 27.1329 14.6778 27.2573 15.0001 27.2573C15.3224 27.2573 15.6322 27.1329 15.8651 26.91L18.8651 23.91C18.9786 23.7961 19.1136 23.7057 19.2622 23.6441C19.4109 23.5825 19.5702 23.5508 19.7311 23.551H22.3451C22.5062 23.5511 22.6658 23.5195 22.8146 23.4579C22.9635 23.3962 23.0987 23.3058 23.2126 23.1919C23.3265 23.0779 23.4168 22.9426 23.4783 22.7936C23.5398 22.6447 23.5713 22.4851 23.5711 22.324V19.712C23.5708 19.5511 23.6024 19.3918 23.664 19.2431C23.7256 19.0945 23.816 18.9595 23.9301 18.846L26.9301 15.846C27.1592 15.616 27.2878 15.3046 27.2878 14.98C27.2878 14.6554 27.1592 14.344 26.9301 14.114C26.7005 13.8841 26.5717 13.5724 26.572 13.2475C26.5723 12.9225 26.7016 12.6111 26.9316 12.3815C27.1615 12.152 27.4732 12.0232 27.7981 12.0234C28.123 12.0237 28.4345 12.1531 28.6641 12.383C29.3511 13.0727 29.7368 14.0065 29.7368 14.98C29.7368 15.9535 29.3511 16.8873 28.6641 17.577V17.579ZM13.3911 17.061L9.69106 13.403C9.5777 13.2858 9.44207 13.1924 9.29214 13.1283C9.1422 13.0642 8.98098 13.0307 8.81792 13.0297C8.65485 13.0287 8.49324 13.0603 8.34254 13.1226C8.19184 13.1849 8.0551 13.2766 7.94033 13.3924C7.82556 13.5083 7.73507 13.6459 7.67417 13.7971C7.61327 13.9484 7.58318 14.1103 7.58567 14.2734C7.58816 14.4364 7.62318 14.5973 7.68867 14.7466C7.75416 14.896 7.84881 15.0307 7.96706 15.143L11.6671 18.803C12.3953 19.5205 13.377 19.9222 14.3993 19.9211C15.4216 19.92 16.4024 19.5161 17.1291 18.797L28.0641 7.93501C28.2823 7.70367 28.402 7.39652 28.3979 7.0785C28.3938 6.76048 28.2661 6.45654 28.042 6.23093C27.8178 6.00533 27.5147 5.87576 27.1967 5.86961C26.8787 5.86347 26.5708 5.98124 26.3381 6.19801L15.4031 17.06C15.1351 17.3251 14.7735 17.4738 14.3966 17.4738C14.0197 17.4738 13.658 17.3251 13.3901 17.06L13.3911 17.061Z" fill="#090909"/>
</svg>
