<svg width="20" height="20" viewBox="0 0 44 44" fill="none" xmlns="http://www.w3.org/2000/svg">
<path d="M21.9998 43.9997C17.6487 43.9996 13.3954 42.7092 9.77762 40.2918C6.15987 37.8744 3.34018 34.4385 1.67511 30.4187C0.010039 26.3988 -0.425633 21.9754 0.423184 17.7079C1.272 13.4404 3.36719 9.52046 6.4438 6.44371C10.5696 2.31787 16.1655 -6.14798e-08 22.0003 0C27.8351 6.14798e-08 33.431 2.31787 37.5568 6.44371C41.6826 10.5696 44.0005 16.1654 44.0005 22.0002C44.0005 27.835 41.6826 33.4309 37.5568 37.5567C35.5185 39.606 33.0941 41.2306 30.4237 42.3365C27.7533 43.4425 24.8901 44.0078 21.9998 43.9997ZM27.1198 15.5917L14.2698 28.4417C14.1 28.6131 14.0048 28.8445 14.0048 29.0857C14.0047 29.2656 14.058 29.4414 14.1578 29.591C14.2577 29.7406 14.3997 29.8571 14.5659 29.926C14.732 29.9948 14.9149 30.0128 15.0913 29.9777C15.2677 29.9426 15.4297 29.8559 15.5568 29.7287L28.4238 16.8617L28.1698 26.4897C28.1666 26.6094 28.1871 26.7286 28.23 26.8404C28.2729 26.9523 28.3374 27.0545 28.4199 27.1414C28.5024 27.2282 28.6012 27.2979 28.7106 27.3465C28.8201 27.3952 28.9381 27.4217 29.0578 27.4247H29.0828C29.3208 27.4255 29.5496 27.3328 29.7198 27.1665C29.89 27.0002 29.9881 26.7737 29.9928 26.5357L30.2618 15.5847C30.2654 15.3439 30.2211 15.1047 30.1314 14.8812C30.0418 14.6576 29.9086 14.4541 29.7397 14.2824C29.5707 14.1108 29.3693 13.9744 29.1472 13.8812C28.9251 13.788 28.6867 13.74 28.4458 13.7397H28.4398L17.4668 13.9997C17.2249 14.0029 16.9942 14.102 16.8254 14.2753C16.6567 14.4486 16.5636 14.6818 16.5668 14.9237C16.57 15.1656 16.6691 15.3963 16.8424 15.5651C17.0157 15.7339 17.2489 15.8269 17.4908 15.8237H17.5138L27.1138 15.5897L27.1198 15.5917Z" fill="white"/>
</svg>
