<svg width="30" height="30" viewBox="0 0 29 32" fill="none" xmlns="http://www.w3.org/2000/svg">
<path d="M1.55908 14.218H5.83208C6.58768 14.218 7.31234 14.5182 7.84663 15.0525C8.38092 15.5867 8.68108 16.3114 8.68108 17.067V21.34C8.68082 22.0954 8.38054 22.8198 7.84628 23.3539C7.31201 23.888 6.58751 24.188 5.83208 24.188H4.40808C3.65248 24.188 2.92783 23.8878 2.39353 23.3536C1.85924 22.8193 1.55908 22.0946 1.55908 21.339V14.218ZM1.55908 14.218C1.58894 10.8377 2.95271 7.60595 5.35359 5.22618C7.75447 2.84641 10.9981 1.51123 14.3786 1.51123C17.759 1.51123 21.0027 2.84641 23.4036 5.22618C25.8045 7.60595 27.1682 10.8377 27.1981 14.218M27.1981 14.218V21.34C27.1978 22.0954 26.8975 22.8198 26.3633 23.3539C25.829 23.888 25.1045 24.188 24.3491 24.188H22.9251C22.1695 24.188 21.4448 23.8878 20.9105 23.3536C20.3762 22.8193 20.0761 22.0946 20.0761 21.339V17.066C20.0761 16.3104 20.3762 15.5858 20.9105 15.0515C21.4448 14.5172 22.1695 14.217 22.9251 14.217L27.1981 14.218Z" stroke="white" stroke-width="2.4" stroke-linecap="round" stroke-linejoin="round"/>
<path d="M27.1992 21.3389V24.1879C27.1992 25.6996 26.5986 27.1494 25.5297 28.2184C24.4607 29.2873 23.0109 29.8879 21.4992 29.8879H14.3792" stroke="white" stroke-width="2.4" stroke-linecap="round" stroke-linejoin="round"/>
</svg>
