<svg width="30" height="30" viewBox="0 0 33 33" fill="none" xmlns="http://www.w3.org/2000/svg">
<path d="M23.438 32.2451H9.14497C6.81318 32.2383 4.57884 31.3089 2.93001 29.6601C1.28117 28.0113 0.35183 25.7769 0.344971 23.4451V9.14814C0.352092 6.81643 1.28152 4.58225 2.9303 2.93347C4.57908 1.28469 6.81326 0.355266 9.14497 0.348145H23.438C25.7697 0.355266 28.0039 1.28469 29.6526 2.93347C31.3014 4.58225 32.2308 6.81643 32.238 9.14814V23.4421C32.2314 25.774 31.3021 28.0085 29.6532 29.6574C28.0043 31.3063 25.7698 32.2355 23.438 32.2421V32.2451ZM9.14497 3.17614C7.56354 3.18377 6.04907 3.81544 4.93091 4.93379C3.81275 6.05214 3.18133 7.56671 3.17397 9.14814V23.4421C3.18081 25.0239 3.81199 26.539 4.93021 27.6578C6.04842 28.7766 7.5632 29.4085 9.14497 29.4161H23.438C25.0201 29.409 26.5354 28.7773 27.654 27.6585C28.7727 26.5397 29.4041 25.0243 29.411 23.4421V9.14814C29.4036 7.56654 28.7721 6.05181 27.6537 4.93344C26.5353 3.81506 25.0206 3.18351 23.439 3.17614H9.14497ZM16.29 24.5151C14.6642 24.5151 13.075 24.0331 11.7232 23.1298C10.3714 22.2266 9.31783 20.9428 8.69568 19.4408C8.07353 17.9388 7.91075 16.286 8.22792 14.6915C8.54509 13.097 9.32797 11.6323 10.4776 10.4827C11.6271 9.33314 13.0918 8.55026 14.6863 8.23309C16.2809 7.91592 17.9336 8.0787 19.4356 8.70085C20.9376 9.32301 22.2214 10.3766 23.1247 11.7284C24.0279 13.0801 24.51 14.6694 24.51 16.2951C24.51 18.4752 23.6439 20.566 22.1024 22.1076C20.5608 23.6491 18.4701 24.5151 16.29 24.5151ZM16.29 10.9041C14.8606 10.9041 13.4897 11.472 12.479 12.4827C11.4683 13.4934 10.9005 14.8643 10.9005 16.2936C10.9005 17.723 11.4683 19.0939 12.479 20.1046C13.4897 21.1153 14.8606 21.6831 16.29 21.6831H16.326C17.0284 21.6849 17.7242 21.5474 18.3732 21.2786C19.0222 21.0098 19.6115 20.615 20.107 20.1171C20.8593 19.3619 21.3712 18.401 21.5783 17.3553C21.7855 16.3097 21.6785 15.2261 21.2708 14.2412C20.8632 13.2562 20.1732 12.4139 19.2877 11.8205C18.4022 11.227 17.3609 10.9089 16.295 10.9061L16.29 10.9041ZM24.856 9.82214C24.3935 9.82241 23.9441 9.66814 23.5793 9.38385C23.2145 9.09957 22.9552 8.70155 22.8424 8.253C22.7297 7.80446 22.77 7.3311 22.957 6.9081C23.144 6.4851 23.467 6.1367 23.8746 5.91823C24.2823 5.69976 24.7512 5.62375 25.207 5.70226C25.6628 5.78077 26.0793 6.0093 26.3904 6.35157C26.7014 6.69383 26.8892 7.13021 26.9239 7.59141C26.9587 8.0526 26.8383 8.51217 26.582 8.89715C26.3926 9.18149 26.136 9.41469 25.835 9.57606C25.5339 9.73742 25.1976 9.82195 24.856 9.82214Z" fill="white" stroke="#A8879D" stroke-width="0.6"/>
</svg>
