<svg width="46" height="39" viewBox="0 0 46 39" fill="none" xmlns="http://www.w3.org/2000/svg">
<path d="M45.087 19.079C45.0848 17.4793 44.5292 15.9297 43.5145 14.693C42.4998 13.4562 41.0885 12.6087 39.52 12.294V3.23804C39.5199 2.62063 39.3434 2.01611 39.0112 1.49569C38.6789 0.97528 38.2049 0.560657 37.6449 0.300674C37.0849 0.040691 36.4623 -0.0538205 35.8503 0.0282741C35.2384 0.110369 34.6627 0.365649 34.191 0.76404C28.934 5.21204 23.632 7.84504 18.434 8.58904C18.1334 8.63685 17.8413 8.72814 17.567 8.86004C17.399 8.78786 17.2179 8.75077 17.035 8.75104H10.335C7.79416 8.75333 5.34337 9.69243 3.45159 11.3886C1.55982 13.0849 0.35992 15.4191 0.0814901 17.9446C-0.19694 20.4702 0.465656 23.0097 1.94249 25.0773C3.41932 27.1449 5.60668 28.5953 8.08601 29.151L9.93801 36.257C10.1251 36.9799 10.5467 37.6203 11.1369 38.0778C11.727 38.5353 12.4523 38.7841 13.199 38.785H16.865C17.3801 38.785 17.8884 38.6669 18.3508 38.4399C18.8132 38.2129 19.2174 37.8829 19.5325 37.4754C19.8475 37.0678 20.065 36.5935 20.1682 36.0888C20.2715 35.5842 20.2577 35.0626 20.128 34.564L18.848 29.649C23.916 30.472 29.076 33.067 34.193 37.397C34.7733 37.8926 35.5109 38.1656 36.274 38.167C36.7482 38.1663 37.2164 38.0618 37.646 37.861C38.2086 37.6043 38.685 37.1903 39.0179 36.6691C39.3507 36.1478 39.5258 35.5415 39.522 34.923V25.865C41.0905 25.55 42.5017 24.7022 43.5163 23.4654C44.531 22.2285 45.0866 20.6788 45.089 19.079H45.087ZM2.70501 19.079C2.7066 17.0573 3.51029 15.1189 4.93966 13.6891C6.36904 12.2594 8.30731 11.4552 10.329 11.453H15.68V26.701H10.329C8.30782 26.6989 6.37001 25.8951 4.94072 24.466C3.51143 23.0369 2.70739 21.1002 2.70501 19.079ZM17.389 35.818C17.3272 35.8993 17.2473 35.9651 17.1557 36.01C17.064 36.055 16.9631 36.0779 16.861 36.077H13.199C13.0513 36.077 12.9077 36.0279 12.791 35.9374C12.6742 35.8469 12.5908 35.7201 12.554 35.577L10.945 29.406H15.475C15.6228 29.406 15.7663 29.4552 15.8831 29.5457C15.9998 29.6362 16.0832 29.763 16.12 29.906L17.511 35.242C17.5377 35.3405 17.5411 35.4439 17.5207 35.5439C17.5004 35.6439 17.457 35.7378 17.394 35.818H17.389ZM36.814 34.918C36.8138 35.0196 36.7846 35.1189 36.7299 35.2044C36.6752 35.2899 36.5973 35.3581 36.5053 35.4009C36.4132 35.4438 36.3109 35.4595 36.2102 35.4462C36.1096 35.4329 36.0148 35.3912 35.937 35.326C30.287 30.547 24.526 27.708 18.816 26.89C18.6937 26.8691 18.5829 26.805 18.5037 26.7094C18.4244 26.6139 18.382 26.4931 18.384 26.369V11.79C18.382 11.6658 18.4244 11.5449 18.5036 11.4492C18.5828 11.3535 18.6936 11.2892 18.816 11.268C24.525 10.451 30.285 7.61104 35.936 2.83204C36.0138 2.76683 36.1086 2.72516 36.2092 2.71189C36.3099 2.69863 36.4122 2.71433 36.5043 2.75715C36.5963 2.79996 36.6742 2.86813 36.7289 2.95366C36.7836 3.03919 36.8128 3.13853 36.813 3.24004V34.92L36.814 34.918ZM39.519 23.069V15.087C40.3533 15.3701 41.078 15.9074 41.5913 16.6235C42.1045 17.3396 42.3805 18.1985 42.3805 19.0795C42.3805 19.9606 42.1045 20.8195 41.5913 21.5356C41.078 22.2517 40.3533 22.789 39.519 23.072V23.069Z" fill="black"/>
</svg>
