<svg width="51" height="51" viewBox="0 0 51 51" fill="none" xmlns="http://www.w3.org/2000/svg">
<path d="M25.3679 50.774C21.4294 50.7573 17.5503 49.8127 14.0449 48.017L13.8859 47.938L13.4469 47.718C13.6469 48.518 13.7129 49.308 12.9009 49.729C12.6773 49.8584 12.426 49.9324 12.1679 49.945C11.2869 49.945 10.9499 48.835 10.5369 47.145C10.4929 46.967 10.4512 46.8003 10.4119 46.645C10.0889 45.337 9.92691 44.682 10.2299 44.18C10.5329 43.678 11.1709 43.528 12.4429 43.221L12.9329 43.101C13.6616 42.8823 14.4103 42.7372 15.1679 42.668C15.3189 42.6597 15.4699 42.6845 15.6103 42.7407C15.7507 42.7968 15.8772 42.8829 15.9809 42.993C16.1617 43.1378 16.2977 43.3308 16.3733 43.5498C16.4488 43.7687 16.4608 44.0045 16.4079 44.23C16.2599 44.759 15.6959 45.168 14.7759 45.419C18.024 47.1289 21.6454 48.0064 25.3159 47.973C29.4438 47.9757 33.4939 46.8501 37.0286 44.718C40.5632 42.5858 43.4479 39.5282 45.3709 35.8756C47.2939 32.223 48.182 28.1143 47.9393 23.9935C47.6966 19.8727 46.3324 15.8967 43.9939 12.495C43.8239 12.2846 43.6986 12.0417 43.6257 11.7812C43.5528 11.5207 43.5338 11.2481 43.5699 10.98C43.6075 10.8185 43.6787 10.6668 43.7788 10.5346C43.8789 10.4025 44.0057 10.2929 44.1509 10.213C44.3324 10.1041 44.5393 10.0448 44.7509 10.041C45.6699 10.041 46.5199 11.107 47.9989 14.116C49.9428 17.9341 50.8605 22.1919 50.6621 26.4717C50.4636 30.7516 49.1558 34.9062 46.8669 38.528C44.5963 42.1719 41.4731 45.2086 37.7669 47.376C34.0063 49.5844 29.728 50.7575 25.3669 50.776L25.3679 50.774ZM13.3159 38.615C12.9117 37.8702 12.7221 37.0278 12.7682 36.1816C12.8143 35.3354 13.0942 34.5186 13.5769 33.822C13.5859 33.81 13.5979 33.79 13.6099 33.772C13.5689 33.685 13.4519 33.5 13.3479 33.334C12.4008 31.852 11.74 30.2056 11.3999 28.48C11.0734 26.7144 11.0649 24.9046 11.3749 23.136C11.3749 23.115 11.3869 23.066 11.3899 23.036C11.3035 22.97 11.2137 22.9086 11.1209 22.852C10.4609 22.4326 9.90296 21.8711 9.48774 21.2084C9.07252 20.5458 8.81053 19.7988 8.72091 19.022C8.63542 18.2533 8.72297 17.4751 8.97715 16.7446C9.23133 16.0141 9.6457 15.3496 10.1899 14.8C10.6864 14.2995 11.2771 13.9024 11.928 13.6315C12.5789 13.3607 13.2769 13.2215 13.9819 13.222C15.0454 13.2094 16.0831 13.5495 16.9329 14.189L16.9789 14.223C17.0229 14.258 17.0719 14.294 17.1049 14.317C17.1809 14.28 17.3299 14.182 17.4879 14.08L17.5679 14.028C19.8571 12.5963 22.4999 11.8306 25.1999 11.817C25.8024 11.8159 26.4041 11.86 26.9999 11.949C27.2999 11.996 27.5419 12.029 27.6999 12.049C28.5513 10.9043 29.7449 10.0602 31.1079 9.639C31.5753 9.51138 32.0574 9.44615 32.5419 9.445C33.5752 9.46269 34.584 9.76168 35.4601 10.3098C36.3361 10.858 37.0462 11.6345 37.5139 12.556C38.0034 13.4394 38.2391 14.4408 38.1949 15.4497C38.1508 16.4587 37.8286 17.4357 37.2639 18.273L37.0739 18.553L37.3559 19.065C38.4071 20.9921 38.9824 23.1425 39.0339 25.337L39.0849 26.654L39.4009 26.844C40.3961 27.4009 41.1716 28.2803 41.5996 29.3373C42.0275 30.3943 42.0823 31.5657 41.7549 32.658C41.461 33.7267 40.856 34.6839 40.0169 35.408C39.1418 36.1626 38.0244 36.5768 36.8689 36.575C36.2695 36.571 35.6748 36.4696 35.1079 36.275L34.5649 36.093L33.9709 36.571C31.4084 38.6134 28.2337 39.7351 24.9569 39.756C24.0472 39.7577 23.14 39.6615 22.2509 39.469L21.4399 39.292L20.9939 39.75C20.5648 40.2133 20.0457 40.5842 19.4683 40.8399C18.8909 41.0956 18.2674 41.2307 17.6359 41.237C16.7479 41.223 15.8795 40.9728 15.1203 40.5119C14.361 40.0511 13.7382 39.3963 13.3159 38.615ZM15.5829 35.8C15.471 36.1054 15.4353 36.4336 15.4788 36.756C15.5224 37.0783 15.6439 37.3852 15.8329 37.65C16.0303 37.9246 16.2894 38.1492 16.5893 38.3055C16.8893 38.4618 17.2217 38.5455 17.5599 38.55C17.8579 38.5447 18.1513 38.476 18.4207 38.3486C18.69 38.2211 18.9292 38.0378 19.1222 37.8108C19.3153 37.5838 19.4578 37.3183 19.5404 37.0319C19.6229 36.7456 19.6435 36.4449 19.6009 36.15C19.549 35.8048 19.4122 35.4779 19.2027 35.1986C18.9933 34.9194 18.7178 34.6965 18.4009 34.55C18.1552 34.4367 17.8875 34.3786 17.6169 34.38C17.174 34.3831 16.7425 34.5205 16.3794 34.7741C16.0162 35.0276 15.7385 35.3853 15.5829 35.8ZM20.8469 33.029C21.2974 33.4508 21.6583 33.9591 21.9079 34.5235C22.1576 35.088 22.2909 35.6969 22.2999 36.314V36.335C22.2951 36.4652 22.3038 36.5956 22.3259 36.724C22.6715 36.8379 23.0293 36.9108 23.3919 36.941L23.4309 36.947C24.0032 37.0335 24.5811 37.077 25.1599 37.077C26.9092 37.0789 28.6341 36.6669 30.1938 35.8747C31.7534 35.0825 33.1036 33.9327 34.1339 32.519C35.2011 31.0852 35.9139 29.4192 36.214 27.6573C36.5142 25.8953 36.3932 24.0873 35.8609 22.381C35.622 21.6692 35.3295 20.9766 34.9859 20.309C34.8629 20.352 34.6929 20.409 34.4949 20.488C33.8649 20.7272 33.1968 20.8502 32.5229 20.851C31.0797 20.8472 29.6929 20.2895 28.6489 19.293C27.56 18.2612 26.9146 16.8467 26.8489 15.348C26.8409 15.198 26.8219 14.787 26.7869 14.599C26.5259 14.568 25.8519 14.535 24.9439 14.535C24.461 14.5266 23.9779 14.5446 23.4969 14.589C21.6999 14.8548 19.9931 15.5487 18.5204 16.6122C17.0477 17.6757 15.8523 19.0777 15.0349 20.7C14.2208 22.2972 13.8029 24.0668 13.8164 25.8595C13.83 27.6522 14.2747 29.4153 15.1129 31C15.1579 31.086 15.1989 31.167 15.2369 31.243C15.3672 31.5257 15.5214 31.7967 15.6979 32.053C15.7912 32.0334 15.883 32.0077 15.9729 31.976L16.1059 31.934C16.5735 31.7884 17.0602 31.7139 17.5499 31.713C18.7761 31.7117 19.956 32.1813 20.8459 33.025L20.8469 33.029ZM38.4469 29.898L38.3899 30.075C37.9692 31.3593 37.3729 32.5792 36.6179 33.7C36.5849 33.745 36.5419 33.806 36.4999 33.867C36.5859 33.867 36.6759 33.867 36.7399 33.867C37.2402 33.8749 37.7314 33.7333 38.1507 33.4602C38.57 33.1871 38.8981 32.7951 39.0931 32.3343C39.2881 31.8735 39.341 31.365 39.2452 30.8739C39.1493 30.3828 38.9089 29.9316 38.5549 29.578L38.5479 29.57C38.5159 29.666 38.4789 29.779 38.4429 29.895L38.4469 29.898ZM11.5069 17.658C11.325 18.1102 11.2909 18.6084 11.4095 19.0812C11.528 19.554 11.7932 19.9771 12.1669 20.29L12.1989 20.318L12.2369 20.351C12.2799 20.26 12.3319 20.145 12.3849 20.027L12.4119 19.966C12.9799 18.7568 13.7063 17.6286 14.5719 16.611L14.9719 16.141L14.9279 16.122C14.6062 15.9808 14.2592 15.9067 13.9079 15.904C13.3775 15.92 12.8643 16.0961 12.4357 16.4091C12.0072 16.7222 11.6834 17.1575 11.5069 17.658ZM30.9589 12.575C30.3931 12.9101 29.9552 13.4244 29.7149 14.0365C29.4745 14.6486 29.4453 15.3234 29.6319 15.954C29.779 16.4944 30.0745 16.9828 30.4848 17.364C30.8951 17.7451 31.404 18.0038 31.9537 18.1108C32.5035 18.2177 33.0722 18.1686 33.5955 17.9691C34.1188 17.7695 34.5757 17.4275 34.9147 16.9817C35.2537 16.5358 35.4611 16.004 35.5134 15.4464C35.5658 14.8888 35.461 14.3277 35.211 13.8266C34.9609 13.3254 34.5756 12.9043 34.0986 12.6108C33.6216 12.3174 33.072 12.1633 32.5119 12.166C31.9667 12.1572 31.4295 12.2994 30.9589 12.575ZM2.80791 36.908C0.838997 33.0991 -0.124777 28.8506 0.00791325 24.565C0.146035 20.5102 1.25014 16.5471 3.22843 13.005C5.20672 9.46285 8.00202 6.4442 11.3819 4.2C13.1261 3.04679 15.0073 2.1156 16.9819 1.428C19.0559 0.709356 21.2122 0.255434 23.3999 0.077C24.0149 0.026 24.6429 0 25.2729 0C29.0955 0.022571 32.8657 0.891011 36.3129 2.543L36.5939 2.678C36.8279 2.791 37.0459 2.897 37.2209 2.978C37.1271 2.68661 37.0992 2.37803 37.1391 2.07453C37.1791 1.77104 37.2859 1.4802 37.4519 1.223C37.5505 1.09131 37.6786 0.984477 37.8258 0.911036C37.973 0.837595 38.1354 0.799572 38.2999 0.8C38.5875 0.807321 38.8663 0.901055 39.0999 1.069C39.5569 1.375 39.5999 1.532 40.0939 3.457C40.1259 3.581 40.1569 3.699 40.1869 3.811C40.5649 5.266 40.7549 5.995 40.4289 6.538C40.1029 7.081 39.4149 7.238 38.0349 7.569L37.6939 7.65C36.9725 7.86316 36.2336 8.01175 35.4859 8.094C35.354 8.09777 35.2233 8.06928 35.1049 8.011C34.8371 7.9133 34.6069 7.73382 34.4468 7.49799C34.2867 7.26216 34.2049 6.98193 34.2129 6.697C34.2889 6.08 34.9129 5.573 35.8869 5.343L35.9379 5.33C35.7789 5.249 35.5929 5.158 35.4029 5.064C30.9088 2.84298 25.8051 2.17457 20.8906 3.16336C15.9761 4.15215 11.528 6.74234 8.24255 10.5286C4.95707 14.3149 3.01954 19.0835 2.73317 24.0883C2.4468 29.0932 3.82775 34.0517 6.65991 38.188C6.87596 38.4369 7.02039 38.7398 7.07781 39.0644C7.13522 39.389 7.10346 39.7231 6.98591 40.031C6.86941 40.2321 6.69836 40.3961 6.49255 40.504C6.28674 40.612 6.05458 40.6595 5.82291 40.641C5.01091 40.641 4.19391 39.629 2.80791 36.908Z" fill="black"/>
</svg>
