<svg width="1007" height="1080" viewBox="0 0 1007 1080" fill="none" xmlns="http://www.w3.org/2000/svg">
<path opacity="0.03" d="M270.844 1289.6C251.953 1287.35 126.409 1270.2 62.844 1204.75C-6.00001 1133.86 0.139989 1013.13 0.139989 1013.13L0.239989 1013.04C0.587268 1003.38 4.68106 994.235 11.6544 987.54C18.6278 980.845 27.9332 977.128 37.6 977.174C38.728 977.174 39.844 977.223 40.948 977.322C59.208 978.111 166.471 986.138 230.56 1066.25C300.786 1154.04 299.285 1267.34 299.285 1267.34L299.185 1267.42V1267.45C299.154 1273.52 296.713 1279.32 292.401 1283.59C288.089 1287.86 282.258 1290.24 276.19 1290.21C274.39 1290.22 272.596 1290.01 270.844 1289.6ZM988.576 1285.23C985.516 1285.18 982.523 1284.32 979.904 1282.74L385.486 1041.92C370.421 1037.21 357.248 1027.83 347.878 1015.13C338.509 1002.42 333.431 987.067 333.381 971.283C333.381 969.034 333.481 966.813 333.681 964.619L333.469 758.731L333.686 758.572C333.681 758.347 333.681 758.121 333.681 757.901C333.77 754.925 334.625 752.023 336.164 749.475C337.703 746.927 339.874 744.819 342.467 743.356C345.059 741.893 347.985 741.124 350.962 741.123C353.939 741.123 356.866 741.891 359.459 743.353L969.059 997.526C970.472 998.048 971.853 998.626 973.209 999.252L973.323 999.303L973.328 999.308C983.191 1003.87 991.546 1011.15 997.409 1020.3C1003.27 1029.44 1006.4 1040.08 1006.42 1050.94V1050.95L1006.1 1267.12C1006.12 1267.56 1006.13 1268 1006.12 1268.45C1006.02 1272.95 1004.16 1277.23 1000.93 1280.37C997.709 1283.51 993.381 1285.25 988.882 1285.23L988.576 1285.23ZM270.844 896.874C251.953 894.625 126.409 877.474 62.844 812.02C-6.00001 741.135 0.139989 620.408 0.139989 620.408L0.239989 620.316C0.587268 610.655 4.68106 601.509 11.6544 594.814C18.6278 588.119 27.9332 584.401 37.6 584.448C38.728 584.448 39.844 584.497 40.948 584.596C59.208 585.385 166.471 593.412 230.56 673.523C300.786 761.312 299.285 874.612 299.285 874.612L299.185 874.699V874.725C299.154 880.793 296.713 886.6 292.401 890.869C288.089 895.138 282.258 897.519 276.19 897.489C274.39 897.489 272.597 897.283 270.844 896.874ZM518.367 718.058L373.616 660.307C371.997 659.728 370.405 659.093 368.84 658.401L368.193 658.14V658.109C356.007 652.643 345.696 643.717 338.54 632.441C331.385 621.164 327.7 608.034 327.943 594.68C328.187 581.327 332.348 568.34 339.911 557.332C347.473 546.323 358.103 537.78 370.48 532.762L971.035 261.935L971.097 261.981C973.257 261.115 975.57 260.69 977.897 260.731C980.15 260.759 982.375 261.231 984.446 262.119C986.517 263.007 988.392 264.294 989.965 265.907C991.538 267.52 992.778 269.427 993.614 271.519C994.45 273.612 994.866 275.848 994.838 278.101C994.828 278.521 994.807 278.936 994.771 279.351L994.797 279.366L989.28 502.744C989.295 503.297 989.306 503.861 989.306 504.419C989.269 516.388 985.474 528.044 978.456 537.739C971.438 547.435 961.552 554.682 950.193 558.456L584.484 718.949C574.248 724.275 562.851 726.982 551.313 726.826C539.775 726.671 528.456 723.658 518.367 718.058ZM270.844 504.147C251.953 501.898 126.409 484.747 62.844 419.298C-6.00001 348.413 0.139989 227.686 0.139989 227.686L0.239989 227.586C0.588053 217.926 4.68234 208.781 11.6558 202.088C18.6292 195.394 27.9341 191.678 37.6 191.726C38.728 191.726 39.844 191.774 40.948 191.869C59.208 192.663 166.471 200.685 230.56 280.801C300.786 368.59 299.285 481.89 299.285 481.89L299.185 481.972V482C299.154 488.068 296.713 493.875 292.401 498.143C288.089 502.412 282.258 504.794 276.19 504.764C274.39 504.766 272.596 504.559 270.844 504.147ZM740.826 243.669C740.472 243.649 740.124 243.571 739.796 243.438C736.133 241.261 359.889 78.079 359.889 78.079L359.718 77.848C351.017 73.5518 343.555 67.1078 338.038 59.1252C332.52 51.1425 329.13 41.8848 328.186 32.227C328.151 32.1118 328.127 31.9936 328.114 31.874C328.104 31.746 328.094 31.459 328.083 31.013C327.984 29.635 327.934 28.2467 327.933 26.848C327.933 25.8033 327.962 24.7653 328.021 23.734C327.835 -11.766 328.031 -151.281 328.062 -172.253C327.62 -175.91 327.971 -179.62 329.093 -183.129C330.214 -186.638 332.078 -189.864 334.559 -192.587C337.039 -195.311 340.078 -197.467 343.467 -198.91C346.857 -200.353 350.518 -201.049 354.2 -200.949C357.232 -200.901 360.231 -200.324 363.064 -199.243L363.136 -199.294L949.136 53.737L949.146 53.829C959.691 57.8614 968.947 64.6763 975.928 73.549C982.91 82.4218 987.356 93.0207 988.795 104.219C990.233 115.417 988.61 126.795 984.098 137.145C979.586 147.494 972.354 156.427 963.17 162.994L963.175 163.04L864.827 228.818C847.559 242.529 826.823 251.177 804.929 253.799C783.036 256.421 760.845 252.914 740.827 243.668L740.826 243.669ZM270.844 111.421C251.953 109.172 126.409 92.021 62.844 26.572C-6.00001 -44.313 0.139989 -165.04 0.139989 -165.04L0.239989 -165.132C0.587268 -174.793 4.68106 -183.939 11.6544 -190.634C18.6278 -197.329 27.9332 -201.047 37.6 -201C38.728 -201 39.844 -200.95 40.948 -200.851C59.208 -200.062 166.471 -192.035 230.56 -111.924C300.786 -24.135 299.285 89.165 299.285 89.165L299.185 89.252V89.278C299.154 95.3458 296.713 101.153 292.401 105.421C288.089 109.69 282.258 112.072 276.19 112.042C274.39 112.043 272.596 111.834 270.844 111.421Z" fill="white"/>
</svg>
