<svg width="50" height="50" viewBox="0 0 64 65" fill="none" xmlns="http://www.w3.org/2000/svg">
<path opacity="0.2" d="M32 0.5C38.329 0.5 44.5159 2.37677 49.7782 5.89297C55.0406 9.40918 59.1421 14.4069 61.5641 20.2541C63.9861 26.1014 64.6199 32.5355 63.3851 38.7429C62.1504 44.9503 59.1027 50.6521 54.6274 55.1274C50.1521 59.6027 44.4503 62.6504 38.2429 63.8851C32.0355 65.1199 25.6014 64.4861 19.7541 62.0641C13.9069 59.6421 8.90918 55.5406 5.39297 50.2782C1.87677 45.0159 0 38.829 0 32.5C0 24.0131 3.37142 15.8737 9.37258 9.87258C15.3737 3.87142 23.5131 0.5 32 0.5Z" fill="#D27644"/>
<path d="M32 59.434C46.9117 59.434 59 47.3457 59 32.434C59 17.5223 46.9117 5.43402 32 5.43402C17.0883 5.43402 5 17.5223 5 32.434C5 47.3457 17.0883 59.434 32 59.434Z" fill="#D27644"/>
<path d="M43.4127 28.6944L43.3997 28.6664C42.366 26.7769 41.2369 24.9412 40.0167 23.1664C39.8421 22.8944 39.5964 22.6754 39.3063 22.5329C39.0162 22.3905 38.6926 22.3302 38.3707 22.3584C38.0415 22.3938 37.7283 22.5186 37.4651 22.7194C37.2019 22.9202 36.9987 23.1893 36.8777 23.4974C36.7311 23.8071 36.5024 24.0707 36.2164 24.2593C35.9304 24.448 35.5981 24.5546 35.2557 24.5674C33.8267 24.7954 32.4767 22.0774 31.7307 17.4864C31.6676 17.0464 31.4706 16.6364 31.1665 16.3123C30.8623 15.9881 30.4658 15.7654 30.0307 15.6744C29.612 15.594 29.1788 15.6444 28.7897 15.8186C28.4006 15.9929 28.0745 16.2826 27.8557 16.6484C23.4627 23.7344 21.0367 27.7344 20.6387 28.5444L20.6197 28.5764C20.5715 28.6557 20.5351 28.7416 20.5117 28.8314C19.6393 30.8921 19.2626 33.1287 19.4117 35.3614C19.8537 42.2614 25.5977 48.0004 32.0117 48.0004H32.2217C39.0447 47.8654 44.5957 41.7764 44.5957 34.4264C44.6011 32.4549 44.1994 30.5035 43.4157 28.6944H43.4127ZM32.1807 46.0584C26.8017 46.1874 21.7237 41.1084 21.3487 35.2384C21.2159 33.2628 21.5588 31.2841 22.3487 29.4684C22.3487 29.4584 22.3577 29.4484 22.3617 29.4384C22.3657 29.4284 22.3737 29.4134 22.3787 29.4004C22.4647 29.2064 23.2337 27.7904 29.5037 17.6744C29.5687 17.5654 29.6257 17.5744 29.6527 17.5814C29.6797 17.5884 29.7867 17.6264 29.8147 17.8024C31.0687 25.5294 33.6257 26.7884 35.5557 26.4914C36.183 26.4353 36.7863 26.2228 37.3104 25.8734C37.8344 25.524 38.2626 25.0489 38.5557 24.4914C39.6666 26.0894 40.6895 27.7469 41.6197 29.4564C41.6197 29.4624 41.6247 29.4684 41.6277 29.4734C42.3072 31.0365 42.6571 32.723 42.6557 34.4274C42.6557 40.7264 37.9557 45.9434 32.1807 46.0584Z" fill="white"/>
<path d="M39.5747 31.6951C39.5747 31.6651 39.5647 31.6361 39.5577 31.6071C39.5499 31.5759 39.5406 31.5452 39.5297 31.5151C39.5187 31.4851 39.5077 31.4551 39.4937 31.4271C39.4809 31.3996 39.4665 31.3729 39.4507 31.3471C39.4337 31.3171 39.4147 31.2891 39.3947 31.2621C39.3857 31.2501 39.3787 31.2361 39.3697 31.2241C39.3607 31.2121 39.3487 31.2041 39.3387 31.1931C39.3287 31.1821 39.2927 31.1451 39.2677 31.1221C39.2449 31.1006 39.2209 31.0806 39.1957 31.0621C39.1707 31.0441 39.1457 31.0281 39.1187 31.0121C39.0917 30.9961 39.0627 30.9801 39.0347 30.9651C39.0074 30.9521 38.9793 30.9407 38.9507 30.9311C38.9199 30.9194 38.8885 30.9094 38.8567 30.9011C38.8287 30.8941 38.8007 30.8891 38.7717 30.8841C38.7366 30.8781 38.7012 30.8741 38.6657 30.8721C38.6527 30.8721 38.6397 30.8721 38.6267 30.8721L33.3557 30.8281H33.3457C33.2182 30.8275 33.0918 30.8521 32.9738 30.9005C32.8558 30.9488 32.7484 31.0198 32.6579 31.1096C32.4751 31.291 32.3717 31.5375 32.3707 31.7951C32.3696 32.0526 32.4709 32.3 32.6522 32.4828C32.8336 32.6657 33.0801 32.769 33.3377 32.7701L35.9377 32.7901L31.4907 36.4401L28.7997 34.6101C28.6344 34.4976 28.4384 34.4388 28.2385 34.4419C28.0386 34.4449 27.8445 34.5096 27.6827 34.6271L24.7827 36.7341C24.6761 36.8077 24.5853 36.9018 24.5156 37.011C24.446 37.1202 24.3989 37.2423 24.3771 37.37C24.3553 37.4977 24.3593 37.6284 24.3889 37.7545C24.4184 37.8807 24.4728 37.9996 24.549 38.1044C24.6252 38.2091 24.7216 38.2975 24.8325 38.3645C24.9434 38.4314 25.0666 38.4755 25.1948 38.4941C25.323 38.5127 25.4536 38.5055 25.5789 38.4729C25.7043 38.4402 25.8218 38.3828 25.9247 38.3041L28.2687 36.5991L30.9957 38.4531C31.1693 38.5717 31.3768 38.6308 31.5868 38.6214C31.7969 38.6121 31.9983 38.5347 32.1607 38.4011L37.6487 33.8961V36.5171C37.6487 36.7746 37.751 37.0216 37.9331 37.2037C38.1152 37.3858 38.3621 37.4881 38.6197 37.4881C38.8772 37.4881 39.1242 37.3858 39.3063 37.2037C39.4884 37.0216 39.5907 36.7746 39.5907 36.5171V31.8411C39.5907 31.8261 39.5907 31.8131 39.5907 31.7981C39.5883 31.7633 39.5829 31.7289 39.5747 31.6951Z" fill="white"/>
</svg>
