<svg width="78" height="78" viewBox="0 0 78 78" fill="none" xmlns="http://www.w3.org/2000/svg">
<path d="M66 0H12C5.37258 0 0 5.37258 0 12V66C0 72.6274 5.37258 78 12 78H66C72.6274 78 78 72.6274 78 66V12C78 5.37258 72.6274 0 66 0Z" fill="#88A9C3"/>
<path d="M39 18C34.8466 18 30.7865 19.2316 27.333 21.5391C23.8796 23.8466 21.188 27.1264 19.5985 30.9636C18.0091 34.8009 17.5932 39.0233 18.4035 43.0969C19.2138 47.1705 21.2139 50.9123 24.1508 53.8492C27.0877 56.7861 30.8295 58.7862 34.9031 59.5965C38.9767 60.4068 43.1991 59.9909 47.0364 58.4015C50.8736 56.812 54.1534 54.1204 56.4609 50.667C58.7684 47.2135 60 43.1534 60 39C60 33.4305 57.7875 28.089 53.8493 24.1508C49.911 20.2125 44.5696 18 39 18ZM38.376 48.128C38.2584 48.1364 38.1483 48.189 38.068 48.2753C37.9876 48.3616 37.943 48.4751 37.943 48.593V51.981C37.9409 52.145 37.8908 52.3049 37.799 52.4408C37.7071 52.5767 37.5774 52.6827 37.426 52.7457C37.2746 52.8088 37.108 52.8261 36.9468 52.7956C36.7856 52.7651 36.6369 52.6881 36.519 52.574L29.8 45.9C29.7117 45.8124 29.6415 45.7082 29.5937 45.5934C29.5458 45.4786 29.5212 45.3554 29.5212 45.231C29.5212 45.1066 29.5458 44.9834 29.5937 44.8686C29.6415 44.7538 29.7117 44.6496 29.8 44.562L36.52 37.893C36.637 37.7766 36.7859 37.6974 36.9479 37.6656C37.1098 37.6337 37.2776 37.6506 37.43 37.714C37.5824 37.7775 37.7126 37.8847 37.804 38.0221C37.8955 38.1595 37.9442 38.3209 37.944 38.486V41.826C37.9428 41.9332 37.979 42.0375 38.0463 42.1209C38.1137 42.2043 38.208 42.2616 38.313 42.283C42.261 43.001 46.007 39.447 47.67 37.583C47.7364 37.5103 47.8241 37.4604 47.9206 37.4404C48.017 37.4204 48.1173 37.4314 48.2071 37.4717C48.297 37.512 48.3718 37.5797 48.421 37.665C48.4702 37.7504 48.4912 37.849 48.481 37.947C47.556 46.877 40.243 47.988 38.376 48.128ZM48.2 33.434L41.484 40.1C41.367 40.2164 41.2181 40.2956 41.0561 40.3274C40.8942 40.3593 40.7264 40.3424 40.574 40.279C40.4216 40.2155 40.2915 40.1083 40.2 39.9709C40.1085 39.8335 40.0598 39.6721 40.06 39.507V36.17C40.0612 36.0628 40.0251 35.9585 39.9577 35.8751C39.8904 35.7917 39.7961 35.7344 39.691 35.713C35.743 34.995 31.997 38.549 30.334 40.413C30.2676 40.4857 30.1799 40.5356 30.0835 40.5556C29.987 40.5756 29.8867 40.5646 29.7969 40.5243C29.707 40.484 29.6322 40.4163 29.583 40.331C29.5338 40.2456 29.5128 40.147 29.523 40.049C30.447 31.114 37.755 30 39.623 29.861C39.7406 29.8527 39.8507 29.8 39.931 29.7137C40.0114 29.6274 40.0561 29.5139 40.056 29.396V26.018C40.0581 25.854 40.1082 25.6941 40.2001 25.5582C40.2919 25.4223 40.4216 25.3163 40.573 25.2533C40.7245 25.1902 40.891 25.1729 41.0522 25.2034C41.2134 25.2339 41.3621 25.3109 41.48 25.425L48.2 32.094C48.2882 32.182 48.3582 32.2865 48.4059 32.4015C48.4537 32.5166 48.4783 32.6399 48.4783 32.7645C48.4783 32.8891 48.4537 33.0124 48.4059 33.1275C48.3582 33.2425 48.2882 33.346 48.2 33.434Z" fill="white"/>
</svg>
