<svg width="48" height="48" viewBox="0 0 48 48" fill="none" xmlns="http://www.w3.org/2000/svg">
<path d="M36 0H12C5.37258 0 0 5.37258 0 12V36C0 42.6274 5.37258 48 12 48H36C42.6274 48 48 42.6274 48 36V12C48 5.37258 42.6274 0 36 0Z" fill="#D27644"/>
<path d="M34.2241 21.531L34.2131 21.506C33.3001 19.837 32.3028 18.2156 31.2251 16.648C31.0709 16.4078 30.8538 16.2143 30.5975 16.0886C30.3412 15.963 30.0554 15.9098 29.7711 15.935C29.4806 15.9662 29.2041 16.0763 28.9718 16.2535C28.7394 16.4307 28.5601 16.6681 28.4531 16.94C28.3242 17.2134 28.1229 17.4462 27.8709 17.6132C27.619 17.7802 27.3261 17.8749 27.0241 17.887C25.7621 18.087 24.5701 15.687 23.9121 11.634C23.8565 11.2455 23.6828 10.8836 23.4144 10.5974C23.1461 10.3111 22.7961 10.1144 22.4121 10.034C22.0419 9.96227 21.6586 10.0064 21.3143 10.1602C20.97 10.3141 20.6815 10.5703 20.4881 10.894C16.6081 17.153 14.4651 20.684 14.1131 21.394L14.0961 21.422C14.0519 21.4917 14.0182 21.5675 13.9961 21.647C13.2256 23.4665 12.8926 25.4414 13.0241 27.413C13.4141 33.507 18.4871 38.574 24.1491 38.574H24.3341C30.3591 38.455 35.2611 33.074 35.2611 26.588C35.2657 24.8472 34.911 23.1243 34.2191 21.527L34.2241 21.531ZM24.3051 36.864C19.5551 36.978 15.0711 32.493 14.7401 27.31C14.6229 25.5636 14.9268 23.8146 15.6261 22.21C15.6261 22.201 15.6341 22.192 15.6371 22.183C15.6401 22.174 15.6481 22.161 15.6521 22.15C15.7281 21.979 16.4071 20.728 21.9431 11.795C22.0001 11.695 22.0511 11.709 22.0741 11.713C22.0971 11.717 22.1921 11.752 22.2171 11.913C23.3241 18.736 25.5821 19.848 27.2861 19.585C27.841 19.5361 28.3748 19.3487 28.8385 19.04C29.3021 18.7313 29.6809 18.3111 29.9401 17.818C30.9207 19.2277 31.8238 20.6899 32.6451 22.198C32.6451 22.203 32.6451 22.208 32.6521 22.213C33.2496 23.5943 33.5559 25.084 33.5521 26.589C33.5511 32.155 29.4041 36.762 24.3051 36.864Z" fill="white"/>
<path d="M30.8343 24.181C30.8343 24.155 30.8253 24.129 30.8193 24.103C30.8123 24.0756 30.804 24.0485 30.7943 24.022C30.7843 23.995 30.7753 23.969 30.7633 23.944C30.7519 23.9199 30.7393 23.8966 30.7253 23.874C30.7103 23.848 30.6933 23.823 30.6753 23.799C30.6573 23.775 30.6613 23.776 30.6533 23.766C30.6453 23.756 30.6343 23.748 30.6263 23.739C30.6183 23.73 30.5853 23.697 30.5633 23.677C30.5433 23.6581 30.5223 23.6404 30.5003 23.624C30.4783 23.608 30.4553 23.594 30.4323 23.579C30.4093 23.564 30.3833 23.55 30.3583 23.538C30.3342 23.5265 30.3095 23.5165 30.2843 23.508C30.2571 23.4978 30.2294 23.4892 30.2013 23.482C30.1763 23.476 30.1513 23.471 30.1263 23.467C30.0955 23.4619 30.0644 23.4586 30.0333 23.457C30.0223 23.457 30.0103 23.457 29.9993 23.457L25.3453 23.418H25.3363C25.1088 23.417 24.8904 23.5065 24.7289 23.6667C24.5674 23.8268 24.4762 24.0446 24.4753 24.272C24.4743 24.4994 24.5638 24.7179 24.7239 24.8793C24.8841 25.0408 25.1018 25.132 25.3293 25.133L27.6233 25.151L23.6963 28.374L21.3163 26.753C21.1703 26.6534 20.9971 26.6014 20.8204 26.6041C20.6437 26.6068 20.4722 26.664 20.3293 26.768L17.7713 28.629C17.6802 28.6952 17.6031 28.7786 17.5442 28.8746C17.4854 28.9706 17.4461 29.0773 17.4285 29.1885C17.4109 29.2997 17.4154 29.4133 17.4417 29.5227C17.468 29.6322 17.5156 29.7354 17.5818 29.8265C17.648 29.9175 17.7314 29.9947 17.8274 30.0535C17.9234 30.1123 18.0301 30.1516 18.1413 30.1692C18.2525 30.1868 18.366 30.1824 18.4755 30.1561C18.585 30.1298 18.6882 30.0822 18.7793 30.016L20.8493 28.51L23.2583 30.144C23.4116 30.2489 23.5949 30.3011 23.7804 30.2928C23.966 30.2845 24.1439 30.2161 24.2873 30.098L29.1333 26.12V28.436C29.1333 28.6634 29.2236 28.8815 29.3844 29.0423C29.5452 29.2031 29.7633 29.2935 29.9908 29.2935C30.2182 29.2935 30.4363 29.2031 30.5971 29.0423C30.7579 28.8815 30.8483 28.6634 30.8483 28.436V24.309C30.8483 24.296 30.8483 24.284 30.8483 24.271C30.8462 24.2406 30.8415 24.2105 30.8343 24.181Z" fill="white"/>
</svg>
