<svg width="78" height="78" viewBox="0 0 78 78" fill="none" xmlns="http://www.w3.org/2000/svg">
<path d="M66 0H12C5.37258 0 0 5.37258 0 12V66C0 72.6274 5.37258 78 12 78H66C72.6274 78 78 72.6274 78 66V12C78 5.37258 72.6274 0 66 0Z" fill="#A8879D"/>
<path d="M59.831 38.144C59.4949 32.8459 57.1103 27.8865 53.1819 24.3157C49.2535 20.7448 44.0897 18.8428 38.7837 19.0123C33.4776 19.1817 28.4457 21.4093 24.7532 25.2236C21.0607 29.0378 18.9974 34.1392 19 39.448C19.0955 42.0782 19.5892 44.6787 20.464 47.161C20.6694 47.7813 20.7229 48.4418 20.62 49.087L19.462 56.387C19.4104 56.7117 19.4385 57.0441 19.544 57.3555C19.6496 57.667 19.8293 57.948 20.0677 58.1744C20.3062 58.4008 20.5961 58.5658 20.9125 58.6551C21.229 58.7444 21.5624 58.7554 21.884 58.687L27.952 57.397C28.7669 57.2208 29.6161 57.2964 30.387 57.614C32.866 58.647 36.46 59.886 39.436 59.886C42.2298 59.8861 44.9939 59.3134 47.5576 58.2032C50.1213 57.093 52.4302 55.469 54.3415 53.4314C56.2529 51.3938 57.7262 48.9859 58.6704 46.3565C59.6145 43.7271 60.0095 40.9321 59.831 38.144ZM31.016 42.299C30.3563 42.2982 29.7172 42.0686 29.2077 41.6495C28.6982 41.2303 28.3498 40.6475 28.2218 40.0003C28.0939 39.3531 28.1942 38.6815 28.5058 38.1C28.8175 37.5184 29.321 37.0629 29.9308 36.8111C30.5406 36.5592 31.2188 36.5265 31.85 36.7186C32.4812 36.9107 33.0262 37.3156 33.3923 37.8645C33.7584 38.4133 33.9229 39.0721 33.8577 39.7287C33.7926 40.3852 33.5018 40.9988 33.035 41.465C32.7698 41.7299 32.455 41.94 32.1085 42.0831C31.7621 42.2262 31.3908 42.2996 31.016 42.299ZM39.436 42.299C38.8723 42.2986 38.3213 42.1311 37.8527 41.8176C37.3842 41.5042 37.0191 41.0588 36.8035 40.5379C36.588 40.017 36.5318 39.4438 36.642 38.891C36.7521 38.3381 37.0237 37.8303 37.4224 37.4317C37.8211 37.0331 38.329 36.7617 38.8819 36.6518C39.4348 36.5418 40.0079 36.5983 40.5288 36.8139C41.0497 37.0296 41.4949 37.3949 41.8082 37.8636C42.1215 38.3322 42.2888 38.8833 42.289 39.447C42.2891 39.8217 42.2154 40.1927 42.0721 40.5388C41.9287 40.885 41.7186 41.1995 41.4536 41.4643C41.1886 41.7292 40.8741 41.9393 40.5279 42.0825C40.1817 42.2257 39.8107 42.2993 39.436 42.299ZM47.856 42.299C47.2921 42.2992 46.7408 42.1322 46.2718 41.819C45.8028 41.5059 45.4372 41.0607 45.2213 40.5397C45.0054 40.0188 44.9488 39.4455 45.0587 38.8924C45.1686 38.3393 45.44 37.8312 45.8387 37.4324C46.2374 37.0336 46.7454 36.762 47.2984 36.6519C47.8515 36.5418 48.4248 36.5982 48.9458 36.8139C49.4668 37.0297 49.9121 37.3951 50.2255 37.864C50.5388 38.3329 50.706 38.8841 50.706 39.448C50.706 39.8224 50.6323 40.1932 50.489 40.5391C50.3457 40.885 50.1357 41.1992 49.871 41.464C49.6062 41.7287 49.2919 41.9387 48.946 42.082C48.6001 42.2253 48.2294 42.299 47.855 42.299H47.856Z" fill="white"/>
</svg>
