<svg width="78" height="78" viewBox="0 0 78 78" fill="none" xmlns="http://www.w3.org/2000/svg">
<path d="M66 0H12C5.37258 0 0 5.37258 0 12V66C0 72.6274 5.37258 78 12 78H66C72.6274 78 78 72.6274 78 66V12C78 5.37258 72.6274 0 66 0Z" fill="#DC6874"/>
<path d="M53.9082 22.258H53.0692V20.037C53.0692 19.6234 52.9049 19.2267 52.6124 18.9342C52.32 18.6418 51.9233 18.4775 51.5097 18.4775C51.0961 18.4775 50.6994 18.6418 50.407 18.9342C50.1145 19.2267 49.9502 19.6234 49.9502 20.037V22.257H42.2682V20.037C42.2682 19.6234 42.1039 19.2267 41.8114 18.9342C41.519 18.6418 41.1223 18.4775 40.7087 18.4775C40.2951 18.4775 39.8984 18.6418 39.606 18.9342C39.3135 19.2267 39.1492 19.6234 39.1492 20.037V22.257H31.4712V20.037C31.4609 19.6302 31.2921 19.2436 31.0007 18.9595C30.7094 18.6755 30.3186 18.5165 29.9117 18.5165C29.5048 18.5165 29.114 18.6755 28.8227 18.9595C28.5313 19.2436 28.3625 19.6302 28.3522 20.037V22.257H27.5082C25.8904 22.257 24.3388 22.8997 23.1949 24.0436C22.0509 25.1876 21.4082 26.7392 21.4082 28.357V52.927C21.4082 54.5448 22.0509 56.0964 23.1949 57.2403C24.3388 58.3843 25.8904 59.027 27.5082 59.027H53.9082C55.526 59.027 57.0776 58.3843 58.2216 57.2403C59.3655 56.0964 60.0082 54.5448 60.0082 52.927V28.356C60.0082 26.7382 59.3655 25.1866 58.2216 24.0426C57.0776 22.8987 55.526 22.256 53.9082 22.256V22.258ZM29.6932 50.465C29.3702 50.465 29.0545 50.3692 28.786 50.1898C28.5174 50.0103 28.3081 49.7553 28.1845 49.4569C28.0609 49.1585 28.0286 48.8302 28.0916 48.5134C28.1546 48.1966 28.3101 47.9057 28.5385 47.6773C28.7669 47.4489 29.0578 47.2934 29.3746 47.2304C29.6914 47.1673 30.0197 47.1997 30.3181 47.3233C30.6165 47.4469 30.8716 47.6562 31.051 47.9247C31.2304 48.1933 31.3262 48.509 31.3262 48.832C31.3262 49.2651 31.1542 49.6804 30.8479 49.9867C30.5417 50.2929 30.1263 50.465 29.6932 50.465ZM29.6932 42.965C29.3702 42.965 29.0545 42.8692 28.786 42.6898C28.5174 42.5103 28.3081 42.2553 28.1845 41.9569C28.0609 41.6585 28.0286 41.3302 28.0916 41.0134C28.1546 40.6966 28.3101 40.4057 28.5385 40.1773C28.7669 39.9489 29.0578 39.7934 29.3746 39.7304C29.6914 39.6673 30.0197 39.6997 30.3181 39.8233C30.6165 39.9469 30.8716 40.1562 31.051 40.4247C31.2304 40.6933 31.3262 41.009 31.3262 41.332C31.3257 41.7647 31.1534 42.1796 30.8472 42.4854C30.541 42.7912 30.126 42.963 29.6932 42.963V42.965ZM29.6932 35.465C29.3702 35.465 29.0545 35.3692 28.786 35.1898C28.5174 35.0103 28.3081 34.7553 28.1845 34.4569C28.0609 34.1585 28.0286 33.8302 28.0916 33.5134C28.1546 33.1966 28.3101 32.9057 28.5385 32.6773C28.7669 32.4489 29.0578 32.2934 29.3746 32.2304C29.6914 32.1673 30.0197 32.1997 30.3181 32.3233C30.6165 32.4469 30.8716 32.6562 31.051 32.9247C31.2304 33.1933 31.3262 33.509 31.3262 33.832C31.3251 34.2644 31.1526 34.6787 30.8465 34.9841C30.5404 35.2895 30.1256 35.461 29.6932 35.461V35.465ZM37.1092 50.465C36.7325 50.464 36.3678 50.3325 36.0771 50.0928C35.7865 49.8532 35.5879 49.5202 35.5151 49.1506C35.4424 48.781 35.4999 48.3976 35.6781 48.0657C35.8562 47.7338 36.1439 47.4738 36.4921 47.3301C36.8403 47.1865 37.2276 47.1679 37.5879 47.2776C37.9483 47.3873 38.2595 47.6186 38.4686 47.9319C38.6776 48.2453 38.7716 48.6215 38.7345 48.9963C38.6975 49.3712 38.5316 49.7216 38.2652 49.988C38.1133 50.1395 37.933 50.2597 37.7347 50.3415C37.5363 50.4234 37.3238 50.4653 37.1092 50.465ZM37.1092 42.965C36.7325 42.964 36.3678 42.8325 36.0771 42.5928C35.7865 42.3532 35.5879 42.0202 35.5151 41.6506C35.4424 41.281 35.4999 40.8976 35.6781 40.5657C35.8562 40.2338 36.1439 39.9738 36.4921 39.8301C36.8403 39.6865 37.2276 39.6679 37.5879 39.7776C37.9483 39.8873 38.2595 40.1186 38.4686 40.4319C38.6776 40.7453 38.7716 41.1215 38.7345 41.4963C38.6975 41.8712 38.5316 42.2216 38.2652 42.488C38.1133 42.6395 37.933 42.7597 37.7347 42.8415C37.5363 42.9234 37.3238 42.9653 37.1092 42.965ZM37.1092 35.465C36.7325 35.464 36.3678 35.3325 36.0771 35.0928C35.7865 34.8532 35.5879 34.5202 35.5151 34.1506C35.4424 33.781 35.4999 33.3976 35.6781 33.0657C35.8562 32.7338 36.1439 32.4738 36.4921 32.3301C36.8403 32.1865 37.2276 32.1679 37.5879 32.2776C37.9483 32.3873 38.2595 32.6186 38.4686 32.9319C38.6776 33.2453 38.7716 33.6215 38.7345 33.9963C38.6975 34.3712 38.5316 34.7216 38.2652 34.988C38.1133 35.1395 37.933 35.2597 37.7347 35.3415C37.5363 35.4234 37.3238 35.4653 37.1092 35.465ZM44.5242 50.465C44.1485 50.4632 43.785 50.3312 43.4956 50.0915C43.2062 49.8519 43.0088 49.5194 42.937 49.1505C42.8652 48.7817 42.9235 48.3994 43.1018 48.0687C43.2801 47.738 43.5675 47.4793 43.9151 47.3367C44.2627 47.194 44.649 47.1762 45.0083 47.2863C45.3675 47.3964 45.6775 47.6276 45.8855 47.9405C46.0934 48.2535 46.1865 48.6288 46.1489 49.0026C46.1113 49.3765 45.9453 49.7257 45.6792 49.991C45.3722 50.2957 44.9568 50.4662 44.5242 50.465ZM44.5242 42.965C44.1485 42.9632 43.785 42.8312 43.4956 42.5915C43.2062 42.3519 43.0088 42.0194 42.937 41.6505C42.8652 41.2817 42.9235 40.8994 43.1018 40.5687C43.2801 40.238 43.5675 39.9793 43.9151 39.8367C44.2627 39.694 44.649 39.6762 45.0083 39.7863C45.3675 39.8964 45.6775 40.1276 45.8855 40.4405C46.0934 40.7535 46.1865 41.1288 46.1489 41.5026C46.1113 41.8765 45.9453 42.2257 45.6792 42.491C45.3722 42.7957 44.9568 42.9662 44.5242 42.965ZM44.5242 35.465C44.1485 35.4632 43.785 35.3312 43.4956 35.0915C43.2062 34.8519 43.0088 34.5194 42.937 34.1505C42.8652 33.7817 42.9235 33.3994 43.1018 33.0687C43.2801 32.738 43.5675 32.4793 43.9151 32.3367C44.2627 32.194 44.649 32.1762 45.0083 32.2863C45.3675 32.3964 45.6775 32.6276 45.8855 32.9405C46.0934 33.2535 46.1865 33.6288 46.1489 34.0026C46.1113 34.3765 45.9453 34.7257 45.6792 34.991C45.3722 35.2957 44.9568 35.4662 44.5242 35.465ZM51.9402 50.465C51.9411 50.2857 52.0131 50.1142 52.1403 49.9879C52.2676 49.8617 52.4397 49.791 52.6189 49.7915C52.7982 49.7919 52.9699 49.8635 53.0965 49.9904C53.2231 50.1173 53.2942 50.2892 53.2942 50.4685C53.2942 50.6477 53.2231 50.8197 53.0965 50.9466C52.9699 51.0735 52.7982 51.145 52.6189 51.1455C52.4397 51.1459 52.2676 51.0753 52.1403 50.949C52.0131 50.8228 51.9411 50.6512 51.9402 50.472V50.465ZM51.9402 42.965C51.9411 42.7857 52.0131 42.6142 52.1403 42.4879C52.2676 42.3617 52.4397 42.291 52.6189 42.2915C52.7982 42.2919 52.9699 42.3635 53.0965 42.4904C53.2231 42.6173 53.2942 42.7892 53.2942 42.9685C53.2942 43.1477 53.2231 43.3197 53.0965 43.4466C52.9699 43.5735 52.7982 43.645 52.6189 43.6455C52.4397 43.6459 52.2676 43.5753 52.1403 43.449C52.0131 43.3228 51.9411 43.1512 51.9402 42.972V42.965ZM51.9402 35.465C51.9411 35.2857 52.0131 35.1142 52.1403 34.9879C52.2676 34.8617 52.4397 34.791 52.6189 34.7915C52.7982 34.7919 52.9699 34.8635 53.0965 34.9904C53.2231 35.1173 53.2942 35.2892 53.2942 35.4685C53.2942 35.6477 53.2231 35.8197 53.0965 35.9466C52.9699 36.0735 52.7982 36.145 52.6189 36.1455C52.4397 36.1459 52.2676 36.0753 52.1403 35.949C52.0131 35.8228 51.9411 35.6512 51.9402 35.472V35.465Z" fill="white"/>
</svg>
