<svg width="59" height="50" viewBox="0 0 59 50" fill="none" xmlns="http://www.w3.org/2000/svg">
<path fill-rule="evenodd" clip-rule="evenodd" d="M10.6484 0.996974C8.48338 1.79598 6.51198 3.04414 4.86378 4.65942C3.21558 6.2747 1.9279 8.22052 1.08539 10.369C-0.802608 15.184 -0.0896106 21.979 2.16039 20.608C2.72939 20.261 2.8974 19.489 3.0794 16.381C3.8404 3.38098 16.2004 -1.37903 25.9084 7.59697C29.0744 10.524 28.8974 10.497 31.0984 8.51898C36.1854 3.95798 37.8874 3.10198 41.9124 3.07498C50.6294 3.01698 56.6644 11.175 54.5254 20.127C53.6894 23.627 53.8664 23.527 48.3254 23.527H43.4504L42.4234 24.779C41.8614 25.466 41.3234 25.855 41.2304 25.644C37.7954 17.953 36.7654 17.779 33.7474 24.38C31.4814 29.335 31.4274 29.338 30.4084 24.593C28.5894 16.129 28.3584 15.252 27.8084 14.7C26.6704 13.561 26.2284 14.122 23.1974 20.553C20.8974 25.426 20.6754 25.66 19.9544 23.92C17.9704 19.131 16.7334 18.537 14.5344 21.32L12.9434 23.339L7.70739 23.531L2.47139 23.723L2.3554 24.723C1.8554 29.067 23.8404 49.664 28.9834 49.664C33.7834 49.664 54.6064 30.825 51.2384 29.532C50.2154 29.139 50.0054 29.244 48.4994 30.899C44.0832 35.8545 39.0295 40.2028 33.4704 43.83L29.0944 46.707L27.8864 46.016C20.9294 42.035 12.5984 34.936 8.18639 29.232C5.86439 26.232 5.8664 26.225 10.5084 26.225H14.5234L15.5454 24.976C16.1074 24.289 16.6454 23.9 16.7384 24.111C20.1734 31.802 21.2034 31.976 24.2214 25.376C24.7924 23.9627 25.5054 22.6112 26.3494 21.342C26.6374 21.247 27.5744 24.967 29.2024 32.665C29.7134 35.084 30.7294 35.903 31.9024 34.842C32.2231 34.5941 32.4762 34.2695 32.6384 33.898C32.6384 33.298 36.9214 24.688 37.2204 24.688C37.3964 24.688 37.7544 25.205 38.0204 25.836C40.0204 30.671 41.2624 31.236 43.4994 28.336L45.1304 26.224H50.2114H55.2924L55.9274 24.997C64.5684 8.28798 44.7034 -8.16802 31.1714 4.48998C28.8714 6.64098 29.1884 6.65798 26.4884 4.22698C24.3849 2.31248 21.803 1.00207 19.016 0.434375C16.2289 -0.133321 13.3402 0.0627908 10.6554 1.00197" fill="black"/>
</svg>
