<svg width="50" height="50" viewBox="0 0 64 65" fill="none" xmlns="http://www.w3.org/2000/svg">
<path opacity="0.2" d="M32 0.5C38.329 0.5 44.5159 2.37677 49.7782 5.89297C55.0406 9.40918 59.1421 14.4069 61.5641 20.2541C63.9861 26.1014 64.6199 32.5355 63.3851 38.7429C62.1504 44.9503 59.1027 50.6521 54.6274 55.1274C50.1521 59.6027 44.4503 62.6504 38.2429 63.8851C32.0355 65.1199 25.6014 64.4861 19.7541 62.0641C13.9069 59.6421 8.90918 55.5406 5.39297 50.2782C1.87677 45.0159 0 38.829 0 32.5C0 24.0131 3.37142 15.8737 9.37258 9.87258C15.3737 3.87142 23.5131 0.5 32 0.5Z" fill="#DC6874"/>
<path d="M32 59.5C46.9117 59.5 59 47.4117 59 32.5C59 17.5883 46.9117 5.5 32 5.5C17.0883 5.5 5 17.5883 5 32.5C5 47.4117 17.0883 59.5 32 59.5Z" fill="#DC6874"/>
<path fill-rule="evenodd" clip-rule="evenodd" d="M22.0918 16.636C21.1178 17.23 21.8708 20.183 23.4308 21.89C24.8178 23.408 26.0828 23.848 29.1478 23.882L31.3328 23.906L31.1668 24.563C31.0804 24.9055 31.0123 25.2523 30.9628 25.602L30.9208 25.985L30.5438 25.641C26.7978 22.229 20.3008 24.072 18.7048 29.001C18.0308 31.4479 17.8596 34.0058 18.2015 36.5206C18.5433 39.0354 19.3911 41.4549 20.6938 43.633C23.0838 47.496 26.0578 48.842 29.1278 47.449C29.9724 47.0009 30.9146 46.768 31.8708 46.7708C32.8269 46.7736 33.7677 47.012 34.6098 47.465C37.7098 48.929 40.8668 47.352 43.3008 43.117C46.2278 38.024 46.5218 30.49 43.9308 27C41.4488 23.665 35.9888 22.976 33.1568 25.642L32.8318 25.948L32.8738 25.675C33.1224 24.2413 33.8415 22.9312 34.9175 21.9516C35.9934 20.9719 37.365 20.3785 38.8158 20.265C39.6958 20.265 40.1558 19.923 40.1558 19.282C40.1558 18.4527 39.3911 18.175 37.8618 18.449C36.0897 18.748 34.4614 19.6108 33.2188 20.909C32.5718 21.585 32.6188 21.56 32.5648 21.283C32.244 20.1333 31.6159 19.0927 30.7479 18.2732C29.88 17.4537 28.8051 16.8863 27.6388 16.632C25.7938 16.4522 23.9357 16.4522 22.0908 16.632M26.6628 18.422C27.5934 18.5019 28.4779 18.8617 29.2 19.4542C29.9221 20.0467 30.4477 20.844 30.7078 21.741L30.8078 22.068L29.1628 22.035C27.2818 21.997 26.9148 21.935 26.0738 21.495C25.4892 21.1907 24.9758 20.7661 24.5673 20.249C24.1588 19.7319 23.8645 19.1341 23.7038 18.495L23.6628 18.361H24.8828C25.5528 18.361 26.3548 18.389 26.6638 18.421M26.8848 25.889C27.8512 26.0688 28.74 26.5387 29.4328 27.236C30.1073 27.8776 31.0089 28.2251 31.9395 28.2023C32.8701 28.1794 33.7536 27.788 34.3958 27.114C36.9778 24.814 41.6428 25.966 43.0158 29.242C44.8368 33.587 43.3388 40.98 39.9308 44.471C38.3628 46.077 36.9878 46.462 35.4198 45.734C34.3397 45.1834 33.147 44.89 31.9348 44.8767C30.7226 44.8633 29.5237 45.1304 28.4318 45.657C27.8433 46.0044 27.1589 46.1537 26.4792 46.0832C25.7995 46.0126 25.1604 45.7258 24.6558 45.265C20.7818 42.411 18.7558 34.565 20.5728 29.465C21.0532 28.2343 21.9431 27.2067 23.0927 26.5553C24.2422 25.904 25.582 25.6687 26.8848 25.889Z" fill="white"/>
</svg>
