<svg width="50" height="50" viewBox="0 0 64 65" fill="none" xmlns="http://www.w3.org/2000/svg">
<path opacity="0.2" d="M32 0.5C38.329 0.5 44.5159 2.37677 49.7782 5.89297C55.0406 9.40918 59.1421 14.4069 61.5641 20.2541C63.9861 26.1014 64.6199 32.5355 63.3851 38.7429C62.1504 44.9503 59.1027 50.6521 54.6274 55.1274C50.1521 59.6027 44.4503 62.6504 38.2429 63.8851C32.0355 65.1199 25.6014 64.4861 19.7541 62.0641C13.9069 59.6421 8.90918 55.5406 5.39297 50.2782C1.87677 45.0159 0 38.829 0 32.5C0 24.0131 3.37142 15.8737 9.37258 9.87258C15.3737 3.87142 23.5131 0.5 32 0.5Z" fill="#67997D"/>
<path d="M32 59.434C46.9117 59.434 59 47.3457 59 32.434C59 17.5223 46.9117 5.43402 32 5.43402C17.0883 5.43402 5 17.5223 5 32.434C5 47.3457 17.0883 59.434 32 59.434Z" fill="#67997D"/>
<path d="M33.1548 48.6012H30.855L30.813 44.8668L30.2246 44.8068C27.6252 44.4714 25.1962 43.3314 23.2773 41.546C21.3585 39.7606 20.0464 37.4198 19.5249 34.8512C19.5119 34.7732 19.3869 34.0892 19.3579 33.9772C19.2649 33.6432 18.8947 33.6231 18.5977 33.6061C18.3247 33.5911 17.9049 33.5851 17.1919 33.5851H15.8457L15.8789 31.236L19.29 31.1578L19.5298 29.9728C20.0267 27.4893 21.2687 25.2164 23.0898 23.4562C24.911 21.696 27.2247 20.5324 29.7236 20.1202C29.9136 20.0932 30.1809 20.052 30.3169 20.026L30.8608 19.9259V16.2711H33.1606V20.0172L33.79 20.1168C36.2711 20.5463 38.5657 21.7115 40.3765 23.4611C42.1872 25.2107 43.4304 27.464 43.9448 29.9288L43.9678 30.045C44.0078 30.245 44.0781 30.6021 44.1011 30.7091C44.1801 31.0791 44.4538 31.1548 44.7378 31.1808C45.0008 31.2058 45.4666 31.2118 46.4956 31.2228H46.5308L48.145 31.2399L48.1777 33.587H44.1987L44.0986 34.087V34.1022C43.8988 35.439 43.4912 36.736 42.8906 37.9469C42.0553 39.6481 40.8401 41.1344 39.3389 42.2911C37.8376 43.4478 36.0908 44.2438 34.2329 44.6178L33.2017 44.8322L33.1597 48.5978L33.1548 48.6012ZM31.7798 21.901C29.3101 21.9019 26.9166 22.7557 25.0039 24.318C23.5556 25.5258 22.4579 27.1003 21.8257 28.8771C21.1935 30.6538 21.0498 32.5678 21.4097 34.4191C21.7695 36.2703 22.6193 37.9909 23.8711 39.4015C25.1228 40.812 26.7305 41.8608 28.5259 42.4381C29.5759 42.7722 30.6711 42.943 31.7729 42.9449C32.7547 42.9455 33.7312 42.8047 34.6729 42.527C36.5369 41.9653 38.2125 40.9059 39.5195 39.463C40.8266 38.0201 41.7156 36.2484 42.0908 34.338C42.4695 32.2899 42.2255 30.1754 41.3906 28.2672C40.6718 26.5979 39.534 25.1424 38.0874 24.0421C36.6408 22.9419 34.9344 22.2339 33.1338 21.9869C32.685 21.9298 32.2321 21.9012 31.7798 21.901ZM31.4717 38.3351C30.1501 38.3314 28.872 37.8629 27.8608 37.0118C26.9914 36.2948 26.3438 35.3454 25.9941 34.274C25.6445 33.2027 25.6075 32.0539 25.8867 30.962C26.1659 29.8702 26.7503 28.8801 27.5713 28.108C28.3923 27.336 29.416 26.8138 30.5229 26.6022C32.0243 26.3691 33.5583 26.7089 34.8203 27.5548C36.0824 28.4007 36.9801 29.6908 37.335 31.1681C37.6036 32.3657 37.4851 33.6176 36.9971 34.7438C36.509 35.8699 35.6762 36.8123 34.6187 37.4352C33.6708 38.0139 32.5832 38.3236 31.4727 38.3312L31.4717 38.3351Z" fill="white"/>
</svg>
