<svg width="50" height="50" viewBox="0 0 64 65" fill="none" xmlns="http://www.w3.org/2000/svg">
<path opacity="0.2" d="M32 0.5C38.329 0.5 44.5159 2.37677 49.7782 5.89297C55.0406 9.40918 59.1421 14.4069 61.5641 20.2541C63.9861 26.1014 64.6199 32.5355 63.3851 38.7429C62.1504 44.9503 59.1027 50.6521 54.6274 55.1274C50.1521 59.6027 44.4503 62.6504 38.2429 63.8851C32.0355 65.1199 25.6014 64.4861 19.7541 62.0641C13.9069 59.6421 8.90918 55.5406 5.39297 50.2782C1.87677 45.0159 0 38.829 0 32.5C0 24.0131 3.37142 15.8737 9.37258 9.87258C15.3737 3.87142 23.5131 0.5 32 0.5Z" fill="#9C836C"/>
<path d="M32 59.5C46.9117 59.5 59 47.4117 59 32.5C59 17.5883 46.9117 5.5 32 5.5C17.0883 5.5 5 17.5883 5 32.5C5 47.4117 17.0883 59.5 32 59.5Z" fill="#9C836C"/>
<path fill-rule="evenodd" clip-rule="evenodd" d="M21.6147 20.417C16.7677 25.272 16.7027 25.34 16.4547 25.843C16.1362 26.495 15.9808 27.2146 16.0019 27.9399C16.023 28.6652 16.2199 29.3746 16.5757 30.007C16.7287 30.271 18.8817 32.464 25.2197 38.813L33.6597 47.268L39.0597 47.251L44.4597 47.234L44.9147 47.068C45.5268 46.8456 46.0826 46.4913 46.5426 46.0302C47.0026 45.5692 47.3556 45.0126 47.5767 44.4C47.804 43.1328 47.8219 41.837 47.6297 40.564C46.7297 37.321 44.4407 35.61 40.8407 35.497C40.4209 35.4961 40.0015 35.4707 39.5847 35.421C39.5847 35.401 39.1217 33.081 38.5557 30.266L37.5257 25.148L36.1857 23.8L34.8457 22.454L34.3657 22.913C33.2157 24.013 32.2657 24.007 31.1357 22.899C30.5844 22.3878 30.1461 21.767 29.8489 21.0764C29.5516 20.3859 29.402 19.6408 29.4097 18.889V18.322L27.9977 16.911C27.2207 16.135 26.5717 15.5 26.5547 15.5C26.5377 15.5 24.3147 17.713 21.6147 20.417ZM27.0277 18.68L27.4657 19.13L27.5347 19.781C27.8117 22.395 29.7127 24.981 31.7467 25.521C32.6465 25.7157 33.5846 25.6266 34.4317 25.266L34.7697 25.111L35.2517 25.594L35.7337 26.077L36.0137 27.442C36.1677 28.193 36.3137 28.87 36.3277 28.942L36.3607 29.082H33.3807V31.005H36.7287L36.7617 31.145C36.8037 31.321 37.1037 32.814 37.1037 32.845C37.1037 32.857 36.4337 32.867 35.6147 32.867H34.1247V34.788L35.8127 34.805L37.5007 34.821L37.7537 36.093L38.0067 37.365L39.9587 37.403C40.7303 37.376 41.5028 37.4222 42.2657 37.541C43.1591 37.7609 43.9697 38.2348 44.5997 38.9054C45.2296 39.576 45.652 40.4146 45.8157 41.32L45.8537 41.491H36.0797L27.8747 33.286L19.6687 25.086L23.0977 21.658C24.9827 19.773 26.5397 18.23 26.5577 18.23C26.7246 18.3693 26.8809 18.5196 27.0277 18.68ZM26.7737 34.98L35.2117 43.418H45.8447L45.7587 43.705C45.6416 44.051 45.4501 44.367 45.1976 44.631C44.9452 44.895 44.638 45.1005 44.2977 45.233L43.9567 45.373L39.2417 45.391L34.5267 45.409L26.3977 37.264C17.1877 28.04 17.9687 28.916 17.9667 27.816C17.9667 27.228 18.1447 26.544 18.2987 26.544C18.3197 26.544 22.1347 30.344 26.7757 34.982M16.0087 38.921V39.883H21.8977V37.96H16.0087V38.922M19.7317 42.645V43.607H25.6247V41.682H19.7307V42.644M23.4537 46.336V47.267H29.3477V45.4H23.4537V46.331" fill="white"/>
</svg>
