<svg width="22" height="13" viewBox="0 0 22 13" fill="none" xmlns="http://www.w3.org/2000/svg">
<path d="M10.7687 12.276C10.5707 12.2765 10.3746 12.2378 10.1916 12.1621C10.0087 12.0864 9.8425 11.9752 9.70271 11.835L0.443712 2.575C0.160858 2.29214 0.00195312 1.90851 0.00195313 1.5085C0.00195313 1.10848 0.160858 0.724855 0.443712 0.442001C0.726565 0.159148 1.1102 0.000244147 1.51021 0.000244141C1.91023 0.000244135 2.29386 0.159148 2.57671 0.442001L10.7697 8.635L18.9627 0.442001C19.2466 0.164498 19.6286 0.0101557 20.0256 0.0124741C20.4226 0.0147924 20.8027 0.173584 21.0833 0.454384C21.364 0.735184 21.5226 1.11534 21.5247 1.51235C21.5269 1.90936 21.3723 2.2912 21.0947 2.575L11.8357 11.835C11.6958 11.9753 11.5295 12.0866 11.3463 12.1623C11.1632 12.238 10.9669 12.2766 10.7687 12.276Z" fill="#252849"/>
</svg>
