<svg width="30" height="30" viewBox="0 0 30 30" fill="none" xmlns="http://www.w3.org/2000/svg">
<path fill-rule="evenodd" clip-rule="evenodd" d="M1.75138 0.11299C1.35524 0.242798 0.996834 0.467452 0.707343 0.767399C0.417853 1.06735 0.206053 1.4335 0.0903785 1.83399C-0.0316215 2.23399 -0.0286215 11.079 0.0903785 11.481C0.234062 11.9596 0.514132 12.386 0.89633 12.708C1.27853 13.03 1.74628 13.2336 2.24238 13.294C2.79738 13.366 10.4964 13.367 11.0594 13.294C11.6277 13.224 12.1562 12.9658 12.5607 12.5606C12.9652 12.1554 13.2224 11.6264 13.2914 11.058C13.3644 10.5 13.3644 2.80199 13.2914 2.24399C13.2311 1.74844 13.0278 1.28116 12.7064 0.899197C12.385 0.51723 11.9593 0.237097 11.4814 0.0929903C11.0284 -0.0440097 2.15938 -0.0240097 1.75138 0.11299ZM17.7884 0.11299C17.3257 0.265824 16.9162 0.547364 16.6079 0.924612C16.2995 1.30186 16.1051 1.75919 16.0474 2.24299C15.9744 2.80099 15.9744 10.499 16.0474 11.057C16.1163 11.6254 16.3736 12.1544 16.7781 12.5596C17.1826 12.9648 17.7111 13.223 18.2794 13.293C18.8434 13.365 26.5414 13.365 27.0964 13.293C27.5925 13.2326 28.0602 13.029 28.4424 12.707C28.8246 12.385 29.1047 11.9586 29.2484 11.48C29.3734 11.069 29.3734 2.23299 29.2484 1.82199C29.1261 1.4114 28.9032 1.03787 28.5998 0.735383C28.2965 0.432894 27.9223 0.211038 27.5114 0.0899903C27.0694 -0.0440097 18.1924 -0.0210097 17.7924 0.11599M11.0444 2.25199L11.1774 2.37699V6.66199C11.1774 10.871 11.1774 10.95 11.0624 11.062C10.9474 11.174 10.8714 11.177 6.67038 11.177H2.39238L2.25938 11.052L2.12638 10.927V2.39299L2.25138 2.25999L2.37638 2.12699H10.9114L11.0444 2.25199ZM27.0814 2.25199L27.2144 2.37699V10.913L27.0894 11.046L26.9644 11.179H22.6794C18.4704 11.179 18.3914 11.179 18.2794 11.064C18.1674 10.949 18.1644 10.873 18.1644 6.67199V2.39299L18.2894 2.25999L18.4144 2.12699H26.9494L27.0824 2.25199M2.19338 16.05C1.70812 16.1229 1.2534 16.3317 0.881788 16.6522C0.510175 16.9726 0.236841 17.3917 0.0933785 17.861C-0.0286215 18.261 -0.0316215 27.107 0.0933785 27.508C0.214034 27.9199 0.435935 28.295 0.738827 28.5991C1.04172 28.9033 1.41596 29.1267 1.82738 29.249C2.23838 29.374 11.0744 29.374 11.4854 29.249C11.964 29.1053 12.3904 28.8252 12.7124 28.443C13.0344 28.0608 13.238 27.5931 13.2984 27.097C13.3704 26.542 13.3714 18.843 13.2984 18.28C13.2284 17.7117 12.9702 17.1832 12.565 16.7787C12.1598 16.3742 11.6308 16.1169 11.0624 16.048C10.5464 15.981 2.71638 15.983 2.19638 16.048M18.2254 16.048C17.6691 16.1323 17.1555 16.3959 16.7627 16.7987C16.37 17.2016 16.1195 17.7217 16.0494 18.28C15.9764 18.838 15.9764 26.536 16.0494 27.094C16.1097 27.5901 16.3133 28.0578 16.6353 28.44C16.9573 28.8222 17.3837 29.1023 17.8624 29.246C18.2734 29.371 27.1094 29.371 27.5204 29.246C27.9318 29.1237 28.306 28.9003 28.6089 28.5961C28.9118 28.292 29.1337 27.9169 29.2544 27.505C29.3764 27.105 29.3734 18.26 29.2544 17.858C29.1107 17.3793 28.8306 16.9529 28.4484 16.6309C28.0662 16.309 27.5985 16.1053 27.1024 16.045C26.5814 15.977 18.7544 15.981 18.2284 16.045M11.0684 18.273C11.1814 18.385 11.1834 18.464 11.1834 22.665V26.943L11.0584 27.076L10.9334 27.209H2.39238L2.25938 27.084L2.12638 26.959V18.43L2.25138 18.297L2.37638 18.164H6.66238C10.8714 18.164 10.9504 18.164 11.0624 18.279M27.0814 18.289L27.2144 18.414V26.949L27.0894 27.082L26.9644 27.215H18.4304L18.2974 27.09L18.1644 26.965V22.679C18.1644 18.47 18.1644 18.391 18.2794 18.279C18.3944 18.167 18.4704 18.164 22.6714 18.164H26.9494L27.0824 18.289" fill="#252849"/>
</svg>
