<svg width="30" height="30" viewBox="0 0 30 30" fill="none" xmlns="http://www.w3.org/2000/svg">
<path d="M14.634 26.823H3.658C3.3347 26.823 3.02464 26.6946 2.79604 26.466C2.56743 26.2374 2.439 25.9273 2.439 25.604V3.652C2.44059 3.32974 2.56972 3.02122 2.79815 2.79391C3.02659 2.5666 3.33574 2.439 3.658 2.439H14.633C14.9564 2.439 15.2666 2.31052 15.4953 2.08182C15.724 1.85312 15.8525 1.54293 15.8525 1.2195C15.8525 0.896068 15.724 0.585884 15.4953 0.357183C15.2666 0.128483 14.9564 0 14.633 0H3.658C2.68928 0.00131794 1.76053 0.386314 1.07498 1.07074C0.389428 1.75517 0.00290817 2.68328 0 3.652V25.604C0.00132282 26.5738 0.387143 27.5034 1.07286 28.1891C1.75859 28.8749 2.68824 29.2607 3.658 29.262H14.633C14.9564 29.262 15.2666 29.1335 15.4953 28.9048C15.724 28.6761 15.8525 28.3659 15.8525 28.0425C15.8525 27.7191 15.724 27.4089 15.4953 27.1802C15.2666 26.9515 14.9574 26.823 14.634 26.823Z" fill="#373B63"/>
<path d="M29.0023 13.76L21.5874 6.443C21.3571 6.21597 21.0462 6.0897 20.7229 6.09195C20.3996 6.0942 20.0904 6.22479 19.8634 6.455C19.6363 6.68521 19.51 6.99617 19.5123 7.31949C19.5145 7.6428 19.6451 7.95197 19.8754 8.179L25.1754 13.408H10.9754C10.6519 13.408 10.3417 13.5365 10.113 13.7652C9.88434 13.9939 9.75586 14.3041 9.75586 14.6275C9.75586 14.9509 9.88434 15.2611 10.113 15.4898C10.3417 15.7185 10.6519 15.847 10.9754 15.847H25.1754L19.8754 21.076C19.7614 21.1884 19.6706 21.3222 19.6084 21.4696C19.5461 21.6171 19.5134 21.7754 19.5123 21.9355C19.5112 22.0956 19.5416 22.2543 19.6019 22.4027C19.6621 22.551 19.7509 22.686 19.8634 22.8C19.9758 22.914 20.1095 23.0047 20.257 23.067C20.4045 23.1293 20.5628 23.1619 20.7229 23.1631C20.883 23.1642 21.0417 23.1337 21.19 23.0735C21.3384 23.0133 21.4734 22.9244 21.5874 22.812L29.0023 15.495C29.1174 15.3816 29.2087 15.2465 29.271 15.0974C29.3334 14.9484 29.3655 14.7885 29.3655 14.627C29.3655 14.4655 29.3334 14.3056 29.271 14.1566C29.2087 14.0075 29.1174 13.8734 29.0023 13.76Z" fill="#373B63"/>
</svg>
