<svg width="29" height="33" viewBox="0 0 29 33" fill="none" xmlns="http://www.w3.org/2000/svg">
<path d="M14.1874 32.221C13.0998 32.2194 12.0391 31.8833 11.1491 31.2582C10.2591 30.6332 9.58298 29.7495 9.21239 28.727H3.55539C2.90408 28.7218 2.26985 28.518 1.73745 28.1428C1.20504 27.7676 0.799814 27.2388 0.575898 26.6272C0.351982 26.0156 0.320043 25.3502 0.484346 24.7199C0.64865 24.0896 1.00137 23.5245 1.49539 23.1C2.36128 22.3627 3.05618 21.4456 3.53178 20.4126C4.00737 19.3795 4.25225 18.2553 4.24939 17.118V13.495C4.24954 11.1714 5.06383 8.92123 6.55073 7.13563C8.03764 5.35002 10.1032 4.14183 12.3884 3.721V2.524L12.4104 2.424C12.5016 2.02053 12.7271 1.65997 13.0499 1.40129C13.3727 1.14261 13.7737 1.00114 14.1874 1C14.6018 0.998071 15.0043 1.13873 15.3273 1.39837C15.6503 1.65802 15.8742 2.02085 15.9614 2.426L15.9834 2.526V3.726C18.2681 4.14761 20.3329 5.35608 21.8194 7.14157C23.3058 8.92705 24.1199 11.1768 24.1204 13.5V17.12C24.1171 18.2536 24.36 19.3743 24.8324 20.4047C25.3048 21.4352 25.9954 22.3507 26.8564 23.088C27.3546 23.5095 27.7121 24.0732 27.8809 24.7035C28.0497 25.3339 28.0217 26.0008 27.8007 26.6149C27.5797 27.2289 27.1763 27.7607 26.6445 28.1389C26.1127 28.5172 25.4779 28.7237 24.8254 28.731H19.1624C18.7895 29.7517 18.1127 30.6335 17.2231 31.2575C16.3336 31.8816 15.274 32.2178 14.1874 32.221ZM3.57339 26.885H10.6574L10.8074 27.622C10.9672 28.4001 11.3906 29.0991 12.0061 29.6011C12.6217 30.1031 13.3916 30.3772 14.1859 30.3772C14.9802 30.3772 15.7501 30.1031 16.3657 29.6011C16.9812 29.0991 17.4046 28.4001 17.5644 27.622L17.7144 26.885H24.8074C25.0848 26.8814 25.3544 26.7931 25.5801 26.6318C25.8058 26.4705 25.9767 26.2439 26.0699 25.9827C26.1631 25.7214 26.1741 25.4378 26.1014 25.1701C26.0288 24.9024 25.8759 24.6633 25.6634 24.485C24.5994 23.5747 23.7459 22.444 23.162 21.1713C22.578 19.8986 22.2776 18.5143 22.2814 17.114V13.495C22.2898 11.4832 21.5455 9.54098 20.1947 8.05009C18.8439 6.5592 16.9843 5.62746 14.9814 5.438L14.1874 5.363L13.3984 5.439C11.3943 5.62661 9.53293 6.5576 8.18078 8.04874C6.82864 9.53987 6.08363 11.4831 6.09239 13.496V17.116C6.09568 18.5198 5.79324 19.9075 5.20609 21.1827C4.61895 22.4578 3.76118 23.5898 2.69239 24.5C2.48497 24.6811 2.33738 24.9209 2.2691 25.1877C2.20083 25.4545 2.21509 25.7357 2.31 25.9942C2.4049 26.2527 2.576 26.4763 2.80067 26.6356C3.02535 26.7948 3.29304 26.8821 3.56839 26.886L3.57339 26.885Z" fill="#252849" stroke="#252849" stroke-width="0.4"/>
</svg>
