<svg width="34" height="34" viewBox="0 0 34 34" fill="none" xmlns="http://www.w3.org/2000/svg" >
<path fill-rule="evenodd" clip-rule="evenodd" d="M2.62025 0.112038C2.02388 0.290269 1.48181 0.61541 1.04378 1.05763C0.605753 1.49985 0.285791 2.04499 0.11325 2.64304C-0.03775 3.22304 -0.03775 30.06 0.11325 30.643C0.286014 31.2456 0.6094 31.7943 1.05292 32.2373C1.49643 32.6803 2.04547 33.003 2.64825 33.175C3.22825 33.326 30.0653 33.326 30.6483 33.175C31.2514 33.0027 31.8006 32.6795 32.2442 32.236C32.6877 31.7924 33.0109 31.2432 33.1832 30.64C33.3342 30.06 33.3342 3.22304 33.1832 2.64004C33.0107 2.03656 32.687 1.48706 32.2429 1.04348C31.7988 0.59991 31.2489 0.276918 30.6453 0.105038C30.0842 -0.0379618 3.16625 -0.0349618 2.62025 0.112038ZM30.3722 2.17404C30.7435 2.34434 31.034 2.65239 31.1823 3.03304C31.2883 3.26704 31.2992 3.60004 31.3172 6.84704L31.3363 10.405H1.96625V7.06704C1.96625 2.94904 2.00225 2.73004 2.75025 2.26704C3.23425 1.96704 3.10325 1.96704 16.8123 1.98104L30.0012 1.99104L30.3752 2.17504M5.73625 5.32104C5.5764 5.40857 5.4435 5.53812 5.35193 5.6957C5.26036 5.85327 5.21359 6.03287 5.21668 6.2151C5.21976 6.39732 5.27259 6.57524 5.36945 6.72962C5.46631 6.884 5.60352 7.00897 5.76625 7.09104C7.79695 7.29219 9.84255 7.29219 11.8733 7.09104C12.0359 7.00879 12.1729 6.88366 12.2696 6.72917C12.3663 6.57469 12.4189 6.39672 12.4218 6.21449C12.4247 6.03227 12.3777 5.85273 12.286 5.69526C12.1942 5.53779 12.0612 5.40839 11.9012 5.32104C9.85057 5.14773 7.78893 5.14773 5.73825 5.32104M16.1442 5.33704C15.9329 5.45627 15.7721 5.64829 15.6919 5.8773C15.6116 6.10631 15.6174 6.35669 15.7081 6.58177C15.7988 6.80684 15.9682 6.99126 16.1848 7.10065C16.4015 7.21003 16.6504 7.23692 16.8854 7.17629C17.1204 7.11567 17.3253 6.97168 17.462 6.77115C17.5986 6.57062 17.6577 6.32724 17.6282 6.08638C17.5987 5.84552 17.4826 5.6236 17.3015 5.462C17.1205 5.3004 16.8869 5.21014 16.6443 5.20804C16.4694 5.20832 16.2974 5.25269 16.1442 5.33704ZM21.3962 5.32104C21.235 5.40911 21.101 5.53993 21.0092 5.69913C20.9174 5.85832 20.8712 6.03974 20.8758 6.22346C20.8803 6.40718 20.9354 6.5861 21.035 6.74056C21.1346 6.89502 21.2748 7.01905 21.4403 7.09904C21.6256 7.193 21.8358 7.22603 22.041 7.19341C22.2462 7.16078 22.4358 7.06418 22.5829 6.91737C22.7299 6.77057 22.8268 6.58107 22.8597 6.37593C22.8926 6.17079 22.8599 5.96049 22.7663 5.77504C22.7073 5.65446 22.6248 5.54685 22.5238 5.4585C22.4228 5.37014 22.3051 5.30282 22.1777 5.26045C22.0504 5.21809 21.9158 5.20154 21.782 5.21177C21.6482 5.222 21.5177 5.25881 21.3983 5.32004M26.5743 5.35104C26.46 5.42133 26.3608 5.51362 26.2825 5.62255C26.2042 5.73148 26.1483 5.85488 26.118 5.98559C26.0878 6.11631 26.0838 6.25172 26.1063 6.38398C26.1289 6.51624 26.1774 6.64271 26.2493 6.75604C26.3721 6.94117 26.5535 7.07979 26.7644 7.14976C26.9753 7.21974 27.2035 7.21704 27.4127 7.1421C27.6219 7.06716 27.7999 6.92429 27.9184 6.73631C28.0368 6.54833 28.0889 6.32608 28.0662 6.10504C28.0542 5.93621 27.9985 5.77341 27.9046 5.6326C27.8106 5.49178 27.6818 5.37778 27.5305 5.30176C27.3793 5.22575 27.2109 5.19032 27.0419 5.19896C26.8728 5.2076 26.7089 5.26 26.5662 5.35104M31.3153 21.205L31.2973 29.992L31.1112 30.37C31.0183 30.5652 30.8872 30.7398 30.7258 30.8835C30.5644 31.0272 30.3758 31.1372 30.1712 31.207C29.8193 31.332 3.47125 31.332 3.12125 31.207C2.91668 31.1372 2.72813 31.0272 2.5667 30.8835C2.40527 30.7398 2.27421 30.5652 2.18125 30.37L1.99525 29.992L1.97825 21.205L1.96025 12.418H31.3333L31.3153 21.205ZM7.87525 15.757C7.15213 15.9507 6.50716 16.3646 6.02974 16.9412C5.55231 17.5178 5.26607 18.2287 5.21068 18.9752C5.15529 19.7218 5.33349 20.4671 5.7206 21.1078C6.1077 21.7486 6.68454 22.2531 7.37116 22.5514C8.05778 22.8497 8.82018 22.927 9.55271 22.7726C10.2852 22.6183 10.9516 22.2399 11.4595 21.6899C11.9674 21.1399 12.2916 20.4456 12.3872 19.7031C12.4829 18.9606 12.3452 18.2068 11.9932 17.546C11.5957 16.8397 10.9782 16.2827 10.2348 15.9598C9.49139 15.6368 8.66283 15.5656 7.87525 15.757ZM16.1033 15.791C15.9703 15.8893 15.8622 16.0174 15.7878 16.165C15.7133 16.3127 15.6745 16.4757 15.6745 16.641C15.6745 16.8064 15.7133 16.9694 15.7878 17.117C15.8622 17.2647 15.9703 17.3928 16.1033 17.491C19.9368 17.6857 23.7779 17.6837 27.6112 17.485C27.7551 17.3959 27.8739 17.2715 27.9562 17.1236C28.0386 16.9757 28.0818 16.8093 28.0818 16.64C28.0818 16.4708 28.0386 16.3043 27.9562 16.1564C27.8739 16.0086 27.7551 15.8842 27.6112 15.795C23.7779 15.5964 19.9368 15.5944 16.1033 15.789M9.46625 17.805C9.87077 18.0273 10.1815 18.388 10.3413 18.821C10.4338 19.1573 10.4127 19.5146 10.2813 19.8376C10.1499 20.1606 9.91553 20.4312 9.61456 20.6074C9.3136 20.7835 8.96289 20.8553 8.61692 20.8117C8.27094 20.768 7.94906 20.6114 7.70125 20.366C7.47908 20.1472 7.32733 19.8671 7.26547 19.5615C7.2036 19.2558 7.23445 18.9387 7.35404 18.6507C7.47364 18.3628 7.67653 18.1171 7.9367 17.9452C8.19686 17.7733 8.50245 17.6831 8.81425 17.686C9.03727 17.6828 9.25877 17.7232 9.46625 17.805ZM16.1392 20.996C15.9985 21.0861 15.8816 21.2089 15.7986 21.354C15.7155 21.4991 15.6688 21.662 15.6625 21.8291C15.6561 21.9961 15.6902 22.1621 15.7619 22.3131C15.8336 22.4641 15.9408 22.5955 16.0742 22.696L16.2863 22.847L21.7693 22.865C27.1583 22.882 27.2563 22.88 27.5233 22.751C27.6865 22.6693 27.8243 22.5443 27.9216 22.3898C28.0189 22.2352 28.072 22.057 28.0752 21.8744C28.0784 21.6918 28.0316 21.5119 27.9397 21.354C27.8479 21.1962 27.7146 21.0665 27.5543 20.979C27.1853 20.791 16.4543 20.806 16.1392 20.995M5.75525 26.195C5.59312 26.2778 5.45668 26.4033 5.36063 26.558C5.26457 26.7126 5.21256 26.8906 5.21019 27.0726C5.20783 27.2546 5.2552 27.4339 5.3472 27.591C5.4392 27.748 5.57233 27.877 5.73225 27.964C6.07725 28.14 27.2083 28.14 27.5532 27.964C27.7132 27.8767 27.8462 27.7473 27.938 27.5898C28.0297 27.4323 28.0767 27.2528 28.0738 27.0706C28.0709 26.8884 28.0183 26.7104 27.9216 26.5559C27.8249 26.4014 27.6879 26.2763 27.5252 26.194C27.1003 25.989 6.17025 25.995 5.75525 26.195Z" fill="#252849"/>
</svg>
