<svg width="36" height="36" viewBox="0 0 36 36" fill="none" xmlns="http://www.w3.org/2000/svg">
<path d="M2.83811e-08 17.619C0.000197807 14.1343 1.0337 10.728 2.96982 7.83066C4.90594 4.93337 7.65772 2.67525 10.8772 1.34186C14.0967 0.00847697 17.6392 -0.340295 21.0569 0.339651C24.4746 1.0196 27.6139 2.69772 30.0779 5.16182C32.5418 7.62592 34.2198 10.7653 34.8995 14.1831C35.5793 17.6008 35.2303 21.1433 33.8967 24.3627C32.5632 27.5821 30.3049 30.3338 27.4075 32.2697C24.5101 34.2057 21.1037 35.239 17.619 35.239C15.3052 35.239 13.014 34.7832 10.8763 33.8977C8.73857 33.0122 6.79622 31.7143 5.16013 30.0781C3.52404 28.442 2.22626 26.4995 1.34088 24.3618C0.455501 22.224 -0.000131298 19.9328 2.83811e-08 17.619ZM2.034 17.619C2.0342 20.7011 2.94833 23.714 4.66079 26.2766C6.37326 28.8392 8.80716 30.8365 11.6547 32.0159C14.5023 33.1953 17.6356 33.5038 20.6585 32.9025C23.6814 32.3011 26.4582 30.8169 28.6376 28.6375C30.817 26.4581 32.3012 23.6814 32.9025 20.6585C33.5039 17.6356 33.1953 14.5023 32.0159 11.6547C30.8365 8.80715 28.8393 6.37325 26.2766 4.66078C23.714 2.94831 20.7011 2.03418 17.619 2.03398C15.5723 2.03385 13.5456 2.43688 11.6547 3.22005C9.7638 4.00323 8.04568 5.15121 6.59845 6.59843C5.15122 8.04566 4.00324 9.76379 3.22007 11.6547C2.4369 13.5456 2.03387 15.5723 2.034 17.619Z" fill="#252849"/>
<path d="M19.218 28.469H16.298V25.55H19.218V28.468V28.469ZM19.218 22.624H16.298V19.062L19.725 15.925C20.0258 15.6527 20.2662 15.3203 20.4305 14.9493C20.5949 14.5782 20.6795 14.1768 20.679 13.771C20.6861 13.3832 20.616 12.9979 20.4725 12.6375C20.3291 12.2771 20.1152 11.9489 19.8435 11.6721C19.5718 11.3953 19.2476 11.1755 18.89 11.0254C18.5323 10.8753 18.1483 10.798 17.7605 10.798C17.3726 10.798 16.9886 10.8753 16.6309 11.0254C16.2733 11.1755 15.9491 11.3953 15.6774 11.6721C15.4057 11.9489 15.1919 12.2771 15.0484 12.6375C14.905 12.9979 14.8348 13.3832 14.842 13.771H14.837H11.918C11.9194 12.8007 12.1628 11.846 12.6261 10.9934C13.0894 10.1408 13.758 9.41717 14.5714 8.88801C15.3848 8.35884 16.3172 8.04084 17.2844 7.96277C18.2516 7.8847 19.223 8.04903 20.1107 8.44089C20.9985 8.83276 21.7744 9.43978 22.3685 10.207C22.9625 10.9743 23.3559 11.8776 23.513 12.8351C23.6701 13.7927 23.5859 14.7743 23.2681 15.6911C22.9503 16.608 22.409 17.4311 21.693 18.086L19.218 20.357V22.623V22.624Z" fill="#252849"/>
</svg>
