<svg width="31" height="35" viewBox="0 0 31 35" fill="none" xmlns="http://www.w3.org/2000/svg">
<path fill-rule="evenodd" clip-rule="evenodd" d="M3.16758 0.79799C2.62884 0.927825 2.12449 1.17249 1.68904 1.51526C1.25359 1.85803 0.897317 2.29081 0.644584 2.78399C0.232584 3.61599 0.250584 2.99599 0.269584 15.565L0.287586 27L0.457584 27.465C0.922584 28.735 1.06559 28.847 5.58858 31.465C10.8036 34.479 10.7676 34.465 12.1596 34.136C14.0116 33.699 14.9116 32.436 14.9766 30.179L15.0136 28.903L18.0566 28.87C20.9926 28.838 21.1136 28.832 21.4816 28.693C22.0765 28.4763 22.6062 28.1112 23.0204 27.6324C23.4347 27.1536 23.7197 26.5769 23.8486 25.957C23.9721 24.2639 23.9821 22.5644 23.8786 20.87C23.8193 20.6696 23.7087 20.4883 23.5578 20.3438C23.4068 20.1993 23.2208 20.0967 23.018 20.0462C22.8153 19.9957 22.6029 19.999 22.4018 20.0558C22.2007 20.1126 22.018 20.2209 21.8716 20.37C21.5396 20.725 21.5246 20.847 21.5236 23.253C21.5236 26.703 21.7486 26.51 17.6796 26.511H14.9796V18.211C14.9796 9.01099 15.0056 9.57399 14.5446 8.69699C14.0966 7.84399 13.8536 7.67299 9.73658 5.30399L6.03659 3.17699L13.2996 3.15999L20.5626 3.14299L20.8496 3.28199C21.0345 3.37522 21.1935 3.51261 21.3126 3.68199L21.4886 3.94699L21.5216 6.63499C21.5576 9.59499 21.5496 9.54099 21.9806 9.90299C22.1343 10.0305 22.3179 10.117 22.5141 10.1543C22.7104 10.1916 22.9129 10.1786 23.1027 10.1163C23.2925 10.0541 23.4634 9.94472 23.5995 9.79845C23.7355 9.65219 23.8322 9.47381 23.8806 9.27999C23.9991 7.27465 23.9593 5.26308 23.7616 3.26399C23.5696 2.72115 23.2601 2.22746 22.855 1.81825C22.45 1.40905 21.9594 1.09445 21.4186 0.896989L21.0316 0.74899L12.2616 0.73899C6.90459 0.73299 3.36159 0.75399 3.16159 0.79199M25.3236 10.28C25.1593 10.3294 25.0073 10.413 24.8776 10.5253C24.7479 10.6376 24.6434 10.7761 24.571 10.9316C24.4986 11.0871 24.4598 11.2562 24.4574 11.4278C24.4549 11.5993 24.4887 11.7694 24.5566 11.927C24.7975 12.2642 25.0719 12.5761 25.3756 12.858L26.1036 13.578L21.4616 13.611L16.8196 13.644L16.5686 13.844C16.4087 13.9609 16.2805 14.116 16.1957 14.2951C16.111 14.4741 16.0723 14.6715 16.0832 14.8693C16.0942 15.0672 16.1543 15.2591 16.2583 15.4277C16.3623 15.5964 16.5068 15.7364 16.6786 15.835L16.9716 15.999L21.5056 16.032L26.0396 16.065L25.3786 16.719C24.2036 17.883 24.1246 18.771 25.1526 19.246C25.8656 19.575 26.0196 19.478 28.1526 17.355C30.8796 14.641 30.8726 14.965 28.2696 12.345C26.1916 10.253 25.9606 10.091 25.3236 10.28Z" fill="#F15E66"/>
</svg>
