<svg width="21" height="21" viewBox="0 0 21 21" fill="none" xmlns="http://www.w3.org/2000/svg">
<path d="M18.8292 1.26101C18.5422 0.973887 18.2014 0.746121 17.8263 0.590725C17.4512 0.435329 17.0492 0.355347 16.6432 0.355347C16.2372 0.355347 15.8352 0.435329 15.4601 0.590725C15.085 0.746121 14.7443 0.973887 14.4572 1.26101L2.20021 13.516C2.11675 13.5992 2.05613 13.7026 2.02421 13.816L0.412209 19.632C0.379338 19.7492 0.378241 19.873 0.40902 19.9908C0.439798 20.1085 0.501347 20.216 0.587357 20.3021C0.673366 20.3882 0.780738 20.4499 0.898453 20.4808C1.01617 20.5117 1.13999 20.5107 1.25721 20.478L7.07621 18.866C7.18967 18.8341 7.29299 18.7735 7.37621 18.69L19.6342 6.43701C20.2119 5.85615 20.5362 5.07023 20.5362 4.25101C20.5362 3.43179 20.2119 2.64588 19.6342 2.06501L18.8292 1.26101ZM3.70021 13.962L13.7302 3.93201L16.9642 7.16601L6.93421 17.195L3.70021 13.962ZM3.05421 15.262L5.63821 17.846L2.06321 18.836L3.05421 15.262ZM18.6642 5.46901L17.9352 6.19801L14.7002 2.96201L15.4292 2.23301C15.5887 2.07346 15.778 1.94688 15.9864 1.86052C16.1948 1.77417 16.4181 1.72972 16.6437 1.72972C16.8693 1.72972 17.0927 1.77417 17.301 1.86052C17.5094 1.94688 17.6988 2.07346 17.8582 2.23301L18.6632 3.03901C18.9847 3.36143 19.1653 3.79818 19.1653 4.25351C19.1653 4.70884 18.9847 5.14559 18.6632 5.46801L18.6642 5.46901Z" fill="black"/>
</svg>
