<svg width="27" height="32" viewBox="0 0 27 32" fill="none" xmlns="http://www.w3.org/2000/svg">
<path d="M8.49911 31.804C5.13211 31.804 5.05411 31.778 4.76911 31.684C4.27316 31.5202 3.82907 31.2287 3.48151 30.8388C3.13394 30.4489 2.89514 29.9744 2.78911 29.463C2.67611 28.9 1.88911 11.741 1.97511 11.64C2.03611 11.567 7.81711 11.533 13.1631 11.533C18.7421 11.533 24.4011 11.569 24.4631 11.646C24.5431 11.746 23.7631 28.899 23.6501 29.469C23.5567 29.9183 23.3604 30.3398 23.0767 30.7005C22.7931 31.0612 22.4297 31.3513 22.0151 31.548L21.5311 31.785L13.3461 31.802H13.0461C11.0561 31.804 9.64211 31.804 8.49911 31.804ZM18.1781 13.086C18.0058 13.0893 17.8373 13.1371 17.6889 13.2247C17.5405 13.3123 17.4172 13.4367 17.3311 13.586C17.2311 13.76 17.1811 17.263 17.1811 20.443C17.1811 23.623 17.2281 27.127 17.3311 27.3C17.4116 27.4503 17.5313 27.576 17.6776 27.6636C17.8238 27.7512 17.9911 27.7974 18.1616 27.7974C18.3321 27.7974 18.4994 27.7512 18.6457 27.6636C18.7919 27.576 18.9117 27.4503 18.9921 27.3C19.1181 27.085 19.1181 27.085 19.1181 20.441V18.96C19.1181 13.506 19.1181 13.506 18.7541 13.292L18.7341 13.28C18.7101 13.265 18.6841 13.251 18.6571 13.233C18.5155 13.1378 18.3487 13.086 18.1781 13.086ZM13.2371 13.086C13.0645 13.0889 12.8955 13.1366 12.7468 13.2242C12.598 13.3118 12.4744 13.4364 12.3881 13.586C12.2881 13.76 12.2381 17.263 12.2381 20.443C12.2381 23.623 12.2851 27.125 12.3881 27.3C12.4685 27.4506 12.5883 27.5764 12.7346 27.6642C12.881 27.752 13.0484 27.7984 13.2191 27.7984C13.3898 27.7984 13.5572 27.752 13.7036 27.6642C13.85 27.5764 13.9697 27.4506 14.0501 27.3C14.1761 27.085 14.1761 27.085 14.1761 20.443V18.96C14.1761 13.506 14.1761 13.506 13.8121 13.292C13.7831 13.275 13.7501 13.256 13.7121 13.232C13.5692 13.1357 13.4005 13.0848 13.2281 13.086H13.2371ZM8.29511 13.086C8.12247 13.0889 7.95354 13.1366 7.80476 13.2242C7.65598 13.3118 7.53242 13.4364 7.44611 13.586C7.34611 13.76 7.29611 17.263 7.29611 20.443C7.29611 23.623 7.34311 27.124 7.44611 27.3C7.52664 27.4505 7.64651 27.5764 7.79295 27.6641C7.93939 27.7518 8.1069 27.7982 8.27761 27.7982C8.44833 27.7982 8.61584 27.7518 8.76228 27.6641C8.90872 27.5764 9.02859 27.4505 9.10911 27.3C9.23611 27.086 9.23611 26.962 9.23611 20.443V18.959C9.23611 13.505 9.23611 13.505 8.87211 13.292C8.83777 13.2737 8.80439 13.2537 8.77211 13.232C8.62841 13.1357 8.45908 13.0849 8.28611 13.086H8.29511ZM13.2201 9.59699C7.36811 9.59699 0.983114 9.55199 0.820114 9.45199C0.383114 9.18499 0.370114 9.11399 0.387114 7.41299L0.404113 5.89799L0.585114 5.52799C0.846654 5.02365 1.25777 4.61253 1.76211 4.35099L2.13211 4.16899L5.20511 4.15199L8.27911 4.13399V3.37499C8.2109 2.70811 8.37535 2.03816 8.74458 1.47866C9.11382 0.919153 9.66514 0.504511 10.3051 0.304992C11.1403 0.213146 11.9799 0.167077 12.8201 0.166992C13.0091 0.166992 13.2061 0.166992 13.4201 0.174992C13.6141 0.174992 13.7861 0.168992 13.9461 0.168992C14.6556 0.168978 15.3646 0.206698 16.0701 0.281992C16.724 0.472775 17.2908 0.8857 17.6729 1.44959C18.055 2.01347 18.2283 2.69299 18.1631 3.37099V4.13399L21.2381 4.15199L24.3121 4.16899L24.6811 4.35099C25.1815 4.61179 25.5899 5.01981 25.8511 5.51999L26.0331 5.88999L26.0501 7.40499C26.0691 9.09999 26.0501 9.17599 25.6171 9.44399C25.4541 9.54399 19.0781 9.59099 13.2171 9.59099L13.2201 9.59699ZM13.2561 2.16899C12.2731 2.16899 11.2141 2.18499 11.0641 2.22099C10.5231 2.34899 10.3071 2.70399 10.2641 3.52699L10.2351 4.13799H16.2001L16.1711 3.52699C16.1331 2.68399 15.9231 2.35399 15.3451 2.21899C15.1901 2.18199 14.1821 2.16599 13.2451 2.16599L13.2561 2.16899Z" fill="#F15E66"/>
</svg>
