<svg width="33" height="36" viewBox="0 0 33 36" fill="none" xmlns="http://www.w3.org/2000/svg">
<path d="M27.0408 0.383972H5.80677C4.46822 0.383972 3.18449 0.915708 2.238 1.8622C1.2915 2.8087 0.759766 4.09242 0.759766 5.43097V30.165C0.759766 31.5035 1.2915 32.7872 2.238 33.7337C3.18449 34.6802 4.46822 35.212 5.80677 35.212H27.0408C28.3793 35.212 29.663 34.6802 30.6095 33.7337C31.556 32.7872 32.0878 31.5035 32.0878 30.165V5.43097C32.0878 4.09242 31.556 2.8087 30.6095 1.8622C29.663 0.915708 28.3793 0.383972 27.0408 0.383972ZM4.36677 8.93097C4.3665 8.79357 4.39334 8.65747 4.44574 8.53045C4.49814 8.40344 4.57507 8.288 4.67213 8.19075C4.76919 8.0935 4.88448 8.01635 5.0114 7.96371C5.13831 7.91107 5.27437 7.88397 5.41177 7.88397H13.9918C14.1292 7.88397 14.2652 7.91107 14.3921 7.96371C14.519 8.01635 14.6343 8.0935 14.7314 8.19075C14.8285 8.288 14.9054 8.40344 14.9578 8.53045C15.0102 8.65747 15.037 8.79357 15.0368 8.93097V10.495C15.0368 10.7721 14.9267 11.0379 14.7307 11.2339C14.5347 11.4299 14.2689 11.54 13.9918 11.54C13.7146 11.54 13.4488 11.4299 13.2528 11.2339C13.0569 11.0379 12.9468 10.7721 12.9468 10.495V9.97597H10.7468V15.66H11.2178C11.4949 15.66 11.7607 15.7701 11.9567 15.966C12.1527 16.162 12.2628 16.4278 12.2628 16.705C12.2628 16.9821 12.1527 17.2479 11.9567 17.4439C11.7607 17.6399 11.4949 17.75 11.2178 17.75H8.18477C7.90761 17.75 7.64181 17.6399 7.44584 17.4439C7.24986 17.2479 7.13977 16.9821 7.13977 16.705C7.13977 16.4278 7.24986 16.162 7.44584 15.966C7.64181 15.7701 7.90761 15.66 8.18477 15.66H8.65577V9.97597H6.45577V10.495C6.45577 10.7721 6.34567 11.0379 6.14969 11.2339C5.95372 11.4299 5.68792 11.54 5.41077 11.54C5.13361 11.54 4.86781 11.4299 4.67184 11.2339C4.47586 11.0379 4.36577 10.7721 4.36577 10.495L4.36677 8.93097ZM27.4358 28.394H5.41177C5.13461 28.394 4.86881 28.2839 4.67284 28.0879C4.47686 27.8919 4.36677 27.6261 4.36677 27.349C4.36677 27.0718 4.47686 26.806 4.67284 26.61C4.86881 26.4141 5.13461 26.304 5.41177 26.304H27.4358C27.7129 26.304 27.9787 26.4141 28.1747 26.61C28.3707 26.806 28.4808 27.0718 28.4808 27.349C28.4808 27.6261 28.3707 27.8919 28.1747 28.0879C27.9787 28.2839 27.7129 28.394 27.4358 28.394ZM27.4358 23.618H5.41177C5.13461 23.618 4.86881 23.5079 4.67284 23.3119C4.47686 23.1159 4.36677 22.8501 4.36677 22.573C4.36677 22.2958 4.47686 22.03 4.67284 21.834C4.86881 21.6381 5.13461 21.528 5.41177 21.528H27.4358C27.7129 21.528 27.9787 21.6381 28.1747 21.834C28.3707 22.03 28.4808 22.2958 28.4808 22.573C28.4808 22.8501 28.3707 23.1159 28.1747 23.3119C27.9787 23.5079 27.7129 23.618 27.4358 23.618ZM27.4358 18.842H19.2358C18.9586 18.842 18.6928 18.7319 18.4968 18.5359C18.3009 18.3399 18.1908 18.0741 18.1908 17.797C18.1908 17.5198 18.3009 17.254 18.4968 17.058C18.6928 16.8621 18.9586 16.752 19.2358 16.752H27.4358C27.7129 16.752 27.9787 16.8621 28.1747 17.058C28.3707 17.254 28.4808 17.5198 28.4808 17.797C28.4808 18.0741 28.3707 18.3399 28.1747 18.5359C27.9787 18.7319 27.7129 18.842 27.4358 18.842ZM27.4358 14.066H19.2358C18.9586 14.066 18.6928 13.9559 18.4968 13.7599C18.3009 13.5639 18.1908 13.2981 18.1908 13.021C18.1908 12.7438 18.3009 12.478 18.4968 12.282C18.6928 12.0861 18.9586 11.976 19.2358 11.976H27.4358C27.7129 11.976 27.9787 12.0861 28.1747 12.282C28.3707 12.478 28.4808 12.7438 28.4808 13.021C28.4808 13.2981 28.3707 13.5639 28.1747 13.7599C27.9787 13.9559 27.7129 14.066 27.4358 14.066ZM27.4358 9.28997H19.2358C18.9586 9.28997 18.6928 9.17987 18.4968 8.9839C18.3009 8.78792 18.1908 8.52212 18.1908 8.24497C18.1908 7.96782 18.3009 7.70202 18.4968 7.50605C18.6928 7.31007 18.9586 7.19997 19.2358 7.19997H27.4358C27.7129 7.19997 27.9787 7.31007 28.1747 7.50605C28.3707 7.70202 28.4808 7.96782 28.4808 8.24497C28.4808 8.52212 28.3707 8.78792 28.1747 8.9839C27.9787 9.17987 27.7129 9.28997 27.4358 9.28997Z" fill="black"/>
</svg>
