<svg width="35" height="34" viewBox="0 0 35 34" fill="none" xmlns="http://www.w3.org/2000/svg">
<path d="M17.9993 34C14.0747 34.0025 10.27 32.6471 7.23105 30.1636C4.19207 27.6802 2.10596 24.2218 1.32675 20.3752C0.547528 16.5287 1.1232 12.5311 2.95607 9.06071C4.78895 5.59034 7.76611 2.86104 11.3823 1.33597C13.4756 0.449987 15.7262 -0.00441762 17.9993 -2.95553e-05H18.0443C20.556 0.0034048 23.035 0.56925 25.2993 1.65597C27.5493 2.73974 29.5407 4.29332 31.1393 6.21197C32.3557 7.65808 33.3076 9.30732 33.9513 11.084C34.8984 13.6559 35.2108 16.4185 34.8619 19.137C34.513 21.8555 33.5131 24.4496 31.9473 26.6991C30.3814 28.9485 28.2958 30.7869 25.8675 32.0579C23.4393 33.3289 20.7401 33.9952 17.9993 34ZM14.8473 19.786C14.6762 19.787 14.5095 19.8399 14.3691 19.9378C14.2288 20.0356 14.1215 20.1738 14.0613 20.334C13.947 20.9614 13.9966 21.6077 14.2052 22.2103C14.4138 22.813 14.7745 23.3516 15.2523 23.774L15.2823 23.804C15.7823 24.298 15.7823 24.298 17.0573 24.91L17.1573 24.957C17.3033 25.027 17.3123 25.057 17.3473 25.682C17.4013 26.631 17.6843 27.019 18.3233 27.019C18.9623 27.019 19.2353 26.647 19.2923 25.692C19.3313 25.07 19.3423 25.029 19.4863 24.961L19.5803 24.916C20.8653 24.305 20.8653 24.305 21.3573 23.816L21.3913 23.781C21.9847 23.2214 22.4032 22.5019 22.5962 21.7095C22.7893 20.9171 22.7487 20.0858 22.4793 19.316C22.1536 18.4858 21.5992 17.765 20.8804 17.2372C20.1616 16.7094 19.3079 16.3962 18.4183 16.334H18.3453C17.6799 16.3338 17.0416 16.0698 16.5703 15.6C16.2211 15.2294 15.9885 14.7644 15.9012 14.2627C15.8139 13.761 15.8758 13.2448 16.0793 12.778C16.3158 12.2939 16.7032 11.8999 17.1832 11.6554C17.6631 11.4108 18.2096 11.329 18.7402 11.4223C19.2707 11.5155 19.7566 11.7788 20.1244 12.1723C20.4922 12.5658 20.7221 13.0683 20.7793 13.604C20.8793 14.404 21.1793 14.767 21.7513 14.767H21.7913C21.9624 14.7666 22.1293 14.714 22.2698 14.6163C22.4102 14.5185 22.5175 14.3803 22.5773 14.22C22.6918 13.5926 22.6423 12.9463 22.4334 12.3438C22.2246 11.7412 21.8635 11.2029 21.3853 10.781L21.3563 10.751C20.8563 10.257 20.8563 10.257 19.5813 9.64397L19.4813 9.59697C19.3363 9.52697 19.3273 9.49697 19.2913 8.87197C19.2543 8.17197 19.1673 7.93397 18.8683 7.70897C18.7004 7.57368 18.4937 7.49555 18.2783 7.48597C17.7633 7.48597 17.3973 8.02697 17.3453 8.86497C17.3063 9.48697 17.2963 9.52797 17.1523 9.59597L17.0523 9.64297C15.7733 10.251 15.7733 10.251 15.2813 10.743L15.2493 10.775C14.6559 11.3345 14.2373 12.054 14.0442 12.8464C13.8511 13.6388 13.8918 14.4702 14.1613 15.24C14.4871 16.0697 15.0413 16.7902 15.7596 17.3179C16.478 17.8457 17.3312 18.1591 18.2203 18.222H18.2993C18.7699 18.2237 19.2306 18.3568 19.6295 18.6062C20.0285 18.8557 20.3498 19.2117 20.5573 19.634C20.8295 20.3231 20.8295 21.0899 20.5573 21.779C20.32 22.2634 19.9313 22.6574 19.45 22.9013C18.9688 23.1452 18.4213 23.2257 17.8902 23.1307C17.3591 23.0357 16.8735 22.7703 16.5067 22.3746C16.1399 21.979 15.912 21.4747 15.8573 20.938C15.7573 20.144 15.4573 19.789 14.8903 19.789L14.8473 19.786Z" fill="black"/>
</svg>
