<svg width="27" height="34" viewBox="0 0 27 34" fill="none" xmlns="http://www.w3.org/2000/svg">
<path d="M25.1942 12.592H24.0212V11.42C24.0404 10.0223 23.7818 8.63479 23.2602 7.33793C22.7387 6.04108 21.9646 4.86078 20.983 3.86561C20.0015 2.87043 18.832 2.08021 17.5424 1.54086C16.2529 1.0015 14.869 0.723755 13.4712 0.723755C12.0734 0.723755 10.6895 1.0015 9.39996 1.54086C8.11041 2.08021 6.94088 2.87043 5.95932 3.86561C4.97775 4.86078 4.20371 6.04108 3.68215 7.33793C3.1606 8.63479 2.90194 10.0223 2.92118 11.42V12.592H1.74818C1.59385 12.592 1.44104 12.6225 1.29852 12.6817C1.156 12.7409 1.02657 12.8277 0.917678 12.9371C0.808782 13.0464 0.722559 13.1762 0.663955 13.319C0.605351 13.4617 0.575524 13.6147 0.576183 13.769V32.521C0.576183 32.8319 0.699659 33.13 0.919452 33.3497C1.13924 33.5695 1.43735 33.693 1.74818 33.693H25.1942C25.505 33.693 25.8031 33.5695 26.0229 33.3497C26.2427 33.13 26.3662 32.8319 26.3662 32.521V13.769C26.3663 13.615 26.3361 13.4625 26.2773 13.3202C26.2184 13.1779 26.1321 13.0486 26.0233 12.9396C25.9144 12.8307 25.7852 12.7443 25.6429 12.6853C25.5007 12.6264 25.3482 12.596 25.1942 12.596V12.592ZM16.7872 23.126C16.612 23.6207 16.3284 24.0699 15.957 24.4407C15.5857 24.8115 15.1361 25.0945 14.6412 25.269V27.829C14.6412 28.1398 14.5177 28.438 14.2979 28.6577C14.0781 28.8775 13.78 29.001 13.4692 29.001C13.1583 29.001 12.8602 28.8775 12.6405 28.6577C12.4207 28.438 12.2972 28.1398 12.2972 27.829V25.269C11.6414 25.0374 11.0689 24.6164 10.6523 24.0595C10.2357 23.5025 9.99356 22.8345 9.95655 22.14C9.91954 21.4454 10.0893 20.7555 10.4444 20.1574C10.7995 19.5593 11.3239 19.0799 11.9514 18.7799C12.5789 18.4798 13.2813 18.3726 13.9697 18.4717C14.6581 18.5708 15.3018 18.8718 15.8191 19.3367C16.3365 19.8016 16.7044 20.4094 16.8764 21.0833C17.0483 21.7573 17.0166 22.4671 16.7852 23.123L16.7872 23.126ZM21.6762 12.59H5.26518V11.42C5.26518 9.24365 6.12974 7.15642 7.66866 5.6175C9.20759 4.07857 11.2948 3.21402 13.4712 3.21402C15.6475 3.21402 17.7348 4.07857 19.2737 5.6175C20.8126 7.15642 21.6772 9.24365 21.6772 11.42L21.6762 12.59Z" fill="black"/>
</svg>
