<svg width="34" height="35" viewBox="0 0 34 35" fill="none" xmlns="http://www.w3.org/2000/svg">
<path d="M16.7071 34.2021C14.4741 34.2058 12.2633 33.7584 10.2071 32.8877C8.22198 32.0497 6.41829 30.8354 4.89602 29.3105C3.37015 27.788 2.15398 25.9836 1.31497 23.998C0.444404 21.9418 -0.00216744 19.731 0.00198178 17.498C-0.00170131 15.2651 0.444852 13.0544 1.31497 10.998C2.15402 9.0128 3.3702 7.20962 4.89602 5.68747C6.41839 4.16216 8.22202 2.94632 10.2071 2.10739C12.2634 1.23735 14.4742 0.790618 16.7071 0.794891C18.94 0.790934 21.1508 1.23799 23.2071 2.10837C25.1921 2.9473 26.9957 4.16313 28.5181 5.68845C30.0436 7.21085 31.2597 9.01397 32.0992 10.999C32.9688 13.0555 33.4154 15.2661 33.4121 17.499C33.4159 19.7318 32.9697 21.9425 32.1001 23.999C31.2616 25.9851 30.0454 27.7899 28.5191 29.3125C26.9973 30.838 25.1935 32.0524 23.208 32.8896C21.1513 33.7598 18.9403 34.2065 16.7071 34.2021ZM12.4502 10.1943C12.3232 10.1939 12.1962 10.209 12.0728 10.2392C11.7528 10.3392 11.6731 10.4046 10.8111 11.2656C9.71106 12.3656 9.63821 12.5018 9.63821 13.4218C9.63821 15.4008 11.2168 18.1864 13.7578 20.6924C16.2228 23.1264 19.0038 24.6982 20.8428 24.6982H20.9068C21.2652 24.699 21.6195 24.621 21.9449 24.4707C22.6883 23.8873 23.3619 23.2202 23.9512 22.4814C24.0556 22.277 24.1113 22.0508 24.1148 21.8213C24.1182 21.5917 24.0694 21.3647 23.9712 21.1572C23.2307 20.2725 22.4283 19.4408 21.5708 18.6689C21.3337 18.4912 21.0454 18.3959 20.7491 18.3965H20.7398C20.5479 18.3966 20.3582 18.4355 20.1822 18.5117C20.0061 18.5879 19.8473 18.6991 19.7158 18.8388C19.5918 18.9839 19.4972 19.1518 19.437 19.333C19.3389 19.5859 19.1664 19.803 18.9424 19.956C18.7184 20.109 18.4534 20.191 18.1822 20.1904C18.0165 20.1903 17.8519 20.1583 17.6978 20.0976C15.8978 19.4976 13.8258 17.0222 14.1138 15.8252C14.1658 15.6303 14.2596 15.4492 14.3882 15.2939C14.5168 15.1386 14.6772 15.0123 14.8589 14.9248C15.1053 14.8426 15.331 14.7083 15.52 14.5302C15.7268 14.3187 15.8594 14.0461 15.8985 13.7529C15.9376 13.4597 15.8809 13.1616 15.7368 12.9033C15.004 12.0644 14.2264 11.2651 13.4077 10.5097C13.131 10.3035 12.7953 10.1932 12.4502 10.1943Z" fill="black"/>
</svg>
