<svg width="78" height="78" viewBox="0 0 78 78" fill="none" xmlns="http://www.w3.org/2000/svg">
<path d="M66 0H12C5.37258 0 0 5.37258 0 12V66C0 72.6274 5.37258 78 12 78H66C72.6274 78 78 72.6274 78 66V12C78 5.37258 72.6274 0 66 0Z" fill="#DC6874"/>
<path d="M59.831 38.144C59.4949 32.8459 57.1103 27.8865 53.1819 24.3157C49.2535 20.7448 44.0897 18.8428 38.7837 19.0123C33.4776 19.1817 28.4457 21.4093 24.7532 25.2236C21.0607 29.0378 18.9974 34.1392 19 39.448C19.0956 42.0781 19.5889 44.6786 20.463 47.161C20.6683 47.7813 20.7221 48.4417 20.62 49.087L19.462 56.387C19.4104 56.7117 19.4385 57.0441 19.544 57.3555C19.6496 57.667 19.8293 57.948 20.0677 58.1744C20.3062 58.4008 20.5961 58.5658 20.9125 58.6551C21.229 58.7444 21.5624 58.7554 21.884 58.687L27.952 57.397C28.7669 57.2208 29.6161 57.2964 30.387 57.614C32.866 58.647 36.46 59.886 39.436 59.886C42.2298 59.8861 44.9939 59.3134 47.5576 58.2032C50.1213 57.093 52.4302 55.469 54.3415 53.4314C56.2529 51.3938 57.7262 48.9859 58.6704 46.3565C59.6145 43.7271 60.0095 40.9321 59.831 38.144ZM39.436 51.166C39.1393 51.166 38.8493 51.078 38.6026 50.9132C38.356 50.7484 38.1637 50.5141 38.0502 50.24C37.9367 49.966 37.9069 49.6644 37.9648 49.3734C38.0227 49.0824 38.1656 48.8151 38.3753 48.6054C38.5851 48.3956 38.8524 48.2527 39.1434 48.1948C39.4343 48.137 39.7359 48.1667 40.01 48.2802C40.2841 48.3937 40.5184 48.586 40.6832 48.8327C40.848 49.0793 40.936 49.3693 40.936 49.666C40.936 50.0638 40.778 50.4454 40.4967 50.7267C40.2154 51.008 39.8338 51.166 39.436 51.166ZM46.146 38.386C45.4145 39.5688 44.3427 40.503 43.071 41.066C42.321 41.435 41.296 42.223 41.064 44.802C41.028 45.209 40.8409 45.5878 40.5396 45.8638C40.2383 46.1397 39.8446 46.2929 39.436 46.293C39.3866 46.2939 39.3371 46.2916 39.288 46.286C38.8568 46.2472 38.4587 46.0389 38.1809 45.7069C37.9031 45.3749 37.7682 44.9463 37.806 44.515C38.087 41.392 39.372 39.246 41.628 38.139C42.3157 37.8519 42.9035 37.3684 43.318 36.749C43.7621 35.9785 43.995 35.1044 43.993 34.215C44.0294 32.9684 43.57 31.7582 42.7157 30.8496C41.8613 29.941 40.6815 29.4083 39.435 29.368C38.189 29.4077 37.0095 29.9396 36.1549 30.8471C35.3002 31.7547 34.84 32.9639 34.875 34.21C34.875 34.4247 34.8327 34.6373 34.7505 34.8357C34.6684 35.0341 34.5479 35.2143 34.3961 35.3661C34.2443 35.518 34.0641 35.6384 33.8657 35.7206C33.6673 35.8027 33.4547 35.845 33.24 35.845C33.0253 35.845 32.8127 35.8027 32.6143 35.7206C32.4159 35.6384 32.2357 35.518 32.0839 35.3661C31.9321 35.2143 31.8116 35.0341 31.7295 34.8357C31.6473 34.6373 31.605 34.4247 31.605 34.21C31.5707 32.097 32.3757 30.0566 33.8435 28.5361C35.3113 27.0157 37.3221 26.1392 39.435 26.099C41.5478 26.1395 43.5583 27.016 45.0259 28.5365C46.4934 30.0569 47.2983 32.0971 47.264 34.21C47.2661 35.6776 46.88 37.1197 46.145 38.39L46.146 38.386Z" fill="white"/>
</svg>
