<svg width="78" height="78" viewBox="0 0 78 78" fill="none" xmlns="http://www.w3.org/2000/svg">
<path d="M66 0H12C5.37258 0 0 5.37258 0 12V66C0 72.6274 5.37258 78 12 78H66C72.6274 78 78 72.6274 78 66V12C78 5.37258 72.6274 0 66 0Z" fill="#D27644"/>
<path d="M32.388 30.0281H25.577C23.5675 30.0281 21.6402 30.8264 20.2193 32.2473C18.7983 33.6683 18 35.5955 18 37.6051V38.9211C18.0005 40.9303 18.7991 42.857 20.22 44.2775C21.6409 45.6981 23.5678 46.4961 25.577 46.4961H32.388V30.0281Z" fill="white"/>
<path d="M50.8292 22.4081C45.8012 26.6615 40.7729 29.1481 35.7442 29.8681C35.3362 29.9297 34.964 30.136 34.6958 30.4495C34.4275 30.763 34.281 31.1625 34.2832 31.5751V44.9541C34.2808 45.3668 34.4272 45.7665 34.6955 46.08C34.9638 46.3935 35.3362 46.5998 35.7442 46.6611C40.7722 47.3818 45.8006 49.8685 50.8292 54.1211C51.0814 54.3342 51.3893 54.4706 51.7165 54.5145C52.0437 54.5583 52.3766 54.5076 52.676 54.3684C52.9753 54.2293 53.2286 54.0074 53.406 53.729C53.5834 53.4506 53.6775 53.1273 53.6772 52.7971V23.7301C53.6772 23.4002 53.5828 23.0771 53.4052 22.799C53.2277 22.5209 52.9743 22.2993 52.675 22.1604C52.3758 22.0215 52.043 21.971 51.716 22.0149C51.389 22.0588 51.0813 22.1952 50.8292 22.4081Z" fill="white"/>
<path d="M57.2602 33.4362C57.0703 33.3684 56.8669 33.3472 56.6671 33.3742C56.4673 33.4012 56.2769 33.4757 56.1118 33.5914C55.9466 33.7072 55.8117 33.8608 55.7182 34.0394C55.6246 34.2181 55.5753 34.4165 55.5742 34.6182V41.9032C55.5754 42.1047 55.6248 42.303 55.7184 42.4815C55.812 42.66 55.947 42.8135 56.1121 42.9291C56.2773 43.0446 56.4677 43.1189 56.6674 43.1457C56.8672 43.1725 57.0705 43.1511 57.2602 43.0832C58.26 42.7329 59.1263 42.0805 59.7391 41.2164C60.352 40.3523 60.6812 39.3191 60.6812 38.2597C60.6812 37.2003 60.352 36.167 59.7391 35.3029C59.1263 34.4388 58.26 33.7865 57.2602 33.4362Z" fill="white"/>
<path d="M32.7491 49.7852C32.6457 49.3883 32.4136 49.0369 32.0892 48.7861C31.7647 48.5353 31.3662 48.3992 30.9561 48.3992H27.5911C27.308 48.3992 27.0286 48.4641 26.7745 48.5889C26.5204 48.7137 26.2982 48.895 26.1251 49.1191C25.952 49.3431 25.8325 49.6038 25.7758 49.8811C25.7191 50.1585 25.7267 50.4452 25.7981 50.7192L27.0731 55.6192C27.1765 56.016 27.4085 56.3674 27.733 56.6182C28.0575 56.869 28.456 57.0051 28.8661 57.0052H32.2301C32.5132 57.0051 32.7925 56.9402 33.0467 56.8155C33.3008 56.6907 33.5229 56.5093 33.6961 56.2853C33.8692 56.0613 33.9887 55.8006 34.0454 55.5232C34.1021 55.2458 34.0944 54.9591 34.0231 54.6852L32.7491 49.7852Z" fill="white"/>
</svg>
