<svg width="48" height="48" viewBox="0 0 48 48" fill="none" xmlns="http://www.w3.org/2000/svg">
<path d="M36 0H12C5.37258 0 0 5.37258 0 12V36C0 42.6274 5.37258 48 12 48H36C42.6274 48 48 42.6274 48 36V12C48 5.37258 42.6274 0 36 0Z" fill="#67997D"/>
<path d="M25.1748 38.3352H23.1567L23.1211 35.0632L22.605 35.011C20.3266 34.7176 18.1972 33.7185 16.5151 32.1541C14.833 30.5896 13.6826 28.538 13.2251 26.2869C13.2141 26.2189 13.1041 25.6192 13.0781 25.5212C12.9971 25.2292 12.6731 25.21 12.4121 25.196C12.1721 25.182 11.8042 25.177 11.1802 25.177H10L10.0288 23.1189L13.0181 23.051L13.228 22.012C13.6634 19.8356 14.7513 17.8435 16.3472 16.301C17.943 14.7586 19.9712 13.7392 22.1611 13.3782C22.3281 13.3542 22.5612 13.3182 22.6812 13.2952L23.1577 13.2029V10.0032H25.1729V13.2859L25.7241 13.3762C27.8986 13.7526 29.9096 14.7739 31.4966 16.3074C33.0836 17.8409 34.1733 19.8155 34.624 21.9758L34.645 22.0759C34.68 22.2519 34.7447 22.563 34.7607 22.658C34.8297 22.982 35.0698 23.048 35.3188 23.072C35.5498 23.094 35.9579 23.0991 36.8599 23.1101H36.8901L38.3052 23.1238L38.334 25.1809H34.8481L34.7642 25.6218V25.635C34.5888 26.8063 34.2315 27.9432 33.7051 29.0042C32.9731 30.4949 31.9083 31.7971 30.5928 32.8108C29.2772 33.8244 27.7463 34.5221 26.1182 34.8499L25.2178 35.0378L25.1821 38.3381L25.1748 38.3352ZM23.9751 14.9348C21.8109 14.9356 19.7133 15.6839 18.0371 17.053C16.7681 18.1114 15.8064 19.4912 15.2524 21.0481C14.6985 22.605 14.5724 24.2819 14.8877 25.9041C15.203 27.5262 15.9482 29.0337 17.0449 30.2698C18.1417 31.5058 19.55 32.4248 21.123 32.9309C22.0431 33.2236 23.0023 33.374 23.9678 33.3762C24.829 33.3771 25.6857 33.2536 26.5117 33.01C28.1451 32.5176 29.6135 31.5893 30.7588 30.325C31.9041 29.0606 32.6828 27.5082 33.0117 25.8342C33.3435 24.0394 33.1299 22.186 32.3979 20.5139C31.7677 19.0517 30.7705 17.7773 29.5029 16.8137C28.2354 15.8501 26.7406 15.23 25.1631 15.0139C24.7678 14.9622 24.3693 14.9358 23.9707 14.9348H23.9751ZM23.7051 29.3352C22.5468 29.3319 21.4265 28.9215 20.54 28.176C19.694 27.5198 19.0744 26.6151 18.7681 25.5891C18.4617 24.5632 18.4839 23.4675 18.8315 22.4548C19.1792 21.4421 19.8351 20.5631 20.707 19.9417C21.5789 19.3202 22.6231 18.9872 23.6938 18.989C24.8833 18.9919 26.0373 19.3942 26.9707 20.1316C27.9041 20.8689 28.5627 21.8984 28.8408 23.0549C29.0763 24.1043 28.9726 25.2015 28.5449 26.1882C28.1172 27.175 27.3877 28.0005 26.4609 28.5461C25.6297 29.055 24.6758 29.3278 23.7012 29.3352H23.7051Z" fill="white"/>
</svg>
