<svg width="36" height="37" viewBox="0 0 36 37" fill="none" xmlns="http://www.w3.org/2000/svg">
<path d="M30.2808 6.108C27.8 3.62705 24.6392 1.93747 21.1981 1.25292C17.7571 0.568374 14.1903 0.919605 10.9489 2.2622C7.70743 3.60479 4.93691 5.87844 2.98768 8.79563C1.03845 11.7128 -0.00195312 15.1425 -0.00195312 18.651C-0.00195313 22.1595 1.03845 25.5892 2.98768 28.5064C4.93691 31.4235 7.70743 33.6972 10.9489 35.0398C14.1903 36.3824 17.7571 36.7336 21.1981 36.0491C24.6392 35.3645 27.8 33.6749 30.2808 31.194C33.6073 27.8673 35.476 23.3555 35.476 18.651C35.476 13.9465 33.6073 9.43467 30.2808 6.108ZM8.89278 31.559C9.25952 29.4794 10.3472 27.5956 11.9649 26.2383C13.5825 24.8809 15.6266 24.1369 17.7383 24.1369C19.8499 24.1369 21.8941 24.8809 23.5117 26.2383C25.1293 27.5956 26.217 29.4794 26.5838 31.559C23.9803 33.3465 20.8963 34.3032 17.7383 34.3032C14.5802 34.3032 11.4963 33.3465 8.89278 31.559ZM12.1008 16.415C12.1008 15.2993 12.4316 14.2087 13.0515 13.281C13.6713 12.3534 14.5523 11.6303 15.5831 11.2034C16.6138 10.7764 17.748 10.6647 18.8423 10.8824C19.9365 11.1 20.9417 11.6373 21.7306 12.4262C22.5195 13.2151 23.0567 14.2202 23.2744 15.3145C23.4921 16.4087 23.3803 17.543 22.9534 18.5737C22.5264 19.6045 21.8034 20.4855 20.8758 21.1053C19.9481 21.7252 18.8575 22.056 17.7418 22.056C16.2457 22.056 14.8109 21.4617 13.753 20.4038C12.6951 19.3459 12.1008 17.9111 12.1008 16.415ZM28.3838 30.115C27.9277 28.501 27.1111 27.0116 25.9955 25.7592C24.8799 24.5068 23.4945 23.524 21.9438 22.885C23.3395 21.9781 24.4048 20.6444 24.9806 19.0827C25.5565 17.521 25.6121 15.815 25.1392 14.2191C24.6663 12.6232 23.6901 11.2229 22.3564 10.2271C21.0227 9.23126 19.4028 8.69323 17.7383 8.69323C16.0738 8.69323 14.4539 9.23126 13.1202 10.2271C11.7864 11.2229 10.8103 12.6232 10.3374 14.2191C9.86448 15.815 9.92009 17.521 10.4959 19.0827C11.0718 20.6444 12.137 21.9781 13.5328 22.885C11.982 23.5239 10.5965 24.5066 9.48092 25.759C8.36533 27.0115 7.54875 28.5009 7.09278 30.115C4.78506 27.9751 3.17573 25.1895 2.47469 22.1214C1.77365 19.0533 2.01342 15.8451 3.16275 12.9153C4.31208 9.98549 6.31761 7.47002 8.91779 5.69694C11.518 3.92387 14.5921 2.97549 17.7393 2.97549C20.8865 2.97549 23.9606 3.92387 26.5608 5.69694C29.161 7.47002 31.1665 9.98549 32.3158 12.9153C33.4651 15.8451 33.7049 19.0533 33.0039 22.1214C32.3028 25.1895 30.6935 27.9751 28.3858 30.115H28.3838Z" fill="#252849"/>
</svg>
