<svg width="37" height="37" viewBox="0 0 37 37" fill="none" xmlns="http://www.w3.org/2000/svg">
<path d="M18.2379 10.8789C16.7827 10.8785 15.3601 11.3097 14.15 12.1178C12.9399 12.926 11.9966 14.0748 11.4395 15.4191C10.8824 16.7634 10.7364 18.2427 11.02 19.67C11.3037 21.0972 12.0042 22.4083 13.033 23.4374C14.0618 24.4665 15.3727 25.1674 16.7999 25.4514C18.2271 25.7354 19.7064 25.5899 21.0508 25.0331C22.3953 24.4763 23.5444 23.5333 24.3529 22.3234C25.1614 21.1135 25.5929 19.6911 25.5929 18.2359C25.5929 16.2851 24.8181 14.4141 23.4388 13.0344C22.0595 11.6548 20.1888 10.8794 18.2379 10.8789ZM18.2379 23.4059C17.2154 23.4063 16.2158 23.1035 15.3655 22.5357C14.5152 21.9679 13.8524 21.1607 13.4609 20.2162C13.0693 19.2716 12.9668 18.2322 13.1661 17.2293C13.3654 16.2265 13.8576 15.3053 14.5805 14.5822C15.3034 13.8592 16.2246 13.3667 17.2274 13.1673C18.2302 12.9678 19.2696 13.0701 20.2142 13.4615C21.1588 13.8528 21.9662 14.5155 22.5341 15.3657C23.1021 16.2159 23.4051 17.2154 23.4049 18.2379C23.4046 19.6083 22.8602 20.9225 21.8913 21.8916C20.9224 22.8607 19.6083 23.4054 18.2379 23.4059Z" fill="#252849"/>
<path d="M34.171 13.152L32.671 12.883L32.226 11.808L33.09 10.568C33.4636 10.0291 33.6362 9.37619 33.5778 8.72305C33.5193 8.06991 33.2334 7.45801 32.77 6.99405L29.478 3.69405C29.014 3.23064 28.4021 2.94477 27.749 2.8863C27.0959 2.82782 26.4429 3.00043 25.904 3.37405L24.656 4.24005L23.6 3.80005L23.33 2.30005C23.2124 1.65199 22.8701 1.06614 22.3633 0.645479C21.8565 0.22482 21.2176 -0.00371703 20.559 4.57329e-05H15.9C15.2439 -0.000189627 14.6086 0.22995 14.1049 0.650305C13.6013 1.07066 13.2612 1.65454 13.144 2.30005L12.875 3.80005L11.816 4.23805L10.571 3.37305C10.0317 2.99837 9.37795 2.82514 8.72392 2.88363C8.06989 2.94213 7.45721 3.22862 6.993 3.69305L3.7 6.98805C3.23659 7.45201 2.95073 8.06391 2.89225 8.71705C2.83377 9.37019 3.00639 10.0231 3.38 10.562L4.244 11.802L3.8 12.882L2.3 13.151C1.65432 13.2682 1.07031 13.6085 0.64994 14.1124C0.229565 14.6163 -0.000469047 15.2518 7.18078e-07 15.908V20.565C-0.000234642 21.2211 0.229905 21.8564 0.65026 22.3601C1.07062 22.8638 1.65449 23.2039 2.3 23.321L3.8 23.59L4.246 24.665L3.382 25.909C3.00839 26.448 2.83577 27.1009 2.89425 27.754C2.95273 28.4072 3.23859 29.0191 3.702 29.483L6.993 32.776C7.45697 33.2395 8.06886 33.5253 8.722 33.5838C9.37514 33.6423 10.0281 33.4697 10.567 33.096L11.814 32.229L12.873 32.667L13.143 34.167C13.2591 34.8162 13.6006 35.4036 14.1074 35.8256C14.6141 36.2476 15.2535 36.4773 15.913 36.474H20.569C21.2249 36.474 21.86 36.2438 22.3634 35.8235C22.8669 35.4031 23.2069 34.8194 23.324 34.174L23.594 32.674L24.652 32.236L25.9 33.1C26.4389 33.4737 27.0919 33.6463 27.745 33.5878C28.3981 33.5293 29.01 33.2435 29.474 32.78L32.766 29.487C33.2294 29.0231 33.5153 28.4112 33.5737 27.758C33.6322 27.1049 33.4596 26.452 33.086 25.913L32.222 24.669L32.668 23.594L34.168 23.325C34.816 23.2101 35.4029 22.8706 35.8255 22.366C36.2481 21.8615 36.4795 21.2242 36.479 20.566V15.908C36.4792 15.252 36.2491 14.6167 35.8287 14.113C35.4084 13.6093 34.8245 13.2692 34.179 13.152H34.171ZM34.286 20.566C34.2856 20.7086 34.2354 20.8466 34.1442 20.9562C34.0529 21.0657 33.9262 21.1399 33.786 21.166L32.22 21.448C31.8799 21.5089 31.5605 21.6544 31.2914 21.8711C31.0223 22.0878 30.812 22.3687 30.68 22.688L30.18 23.888C30.0468 24.2077 29.9964 24.5559 30.0335 24.9002C30.0705 25.2446 30.1938 25.574 30.392 25.858L31.292 27.158C31.3735 27.2763 31.4108 27.4193 31.3975 27.5623C31.3841 27.7053 31.321 27.839 31.219 27.94L27.93 31.24C27.8291 31.3419 27.6955 31.4051 27.5528 31.4184C27.41 31.4318 27.2671 31.3945 27.149 31.313L25.849 30.408C25.5652 30.2094 25.2357 30.0857 24.8913 30.0487C24.5468 30.0116 24.1986 30.0623 23.879 30.196L22.697 30.685C22.3771 30.817 22.0957 31.0277 21.879 31.2974C21.6622 31.5671 21.5171 31.8873 21.457 32.228L21.175 33.793C21.1478 33.9351 21.0714 34.063 20.9594 34.1544C20.8473 34.2459 20.7066 34.2949 20.562 34.293H15.9C15.7574 34.2929 15.6193 34.2427 15.5097 34.1514C15.4001 34.0601 15.3259 33.9333 15.3 33.793L15.018 32.228C14.9576 31.8876 14.8123 31.5679 14.5956 31.2985C14.3788 31.0292 14.0976 30.8189 13.778 30.687L12.6 30.188C12.2802 30.055 11.932 30.0048 11.5877 30.042C11.2433 30.0792 10.914 30.2027 10.63 30.401L9.33 31.306C9.21202 31.3877 9.06905 31.4251 8.92621 31.4117C8.78338 31.3984 8.64982 31.3351 8.549 31.233L5.259 27.939C5.15686 27.8381 5.09356 27.7043 5.08021 27.5613C5.06686 27.4183 5.10432 27.2752 5.186 27.157L6.086 25.857C6.28426 25.573 6.40763 25.2436 6.44468 24.8992C6.48174 24.5549 6.43129 24.2067 6.298 23.887L5.798 22.687C5.66594 22.3674 5.45542 22.0862 5.1859 21.8695C4.91637 21.6527 4.59655 21.5074 4.256 21.447L2.692 21.161C2.5519 21.1348 2.42533 21.0605 2.33408 20.951C2.24282 20.8415 2.19258 20.7036 2.192 20.561V15.908C2.19239 15.7655 2.24256 15.6275 2.33385 15.5179C2.42514 15.4084 2.55181 15.3341 2.692 15.308L4.258 15.026C4.59822 14.9654 4.91768 14.82 5.18684 14.6033C5.45601 14.3866 5.6662 14.1055 5.798 13.786L6.298 12.586C6.43147 12.2664 6.48203 11.9182 6.44496 11.5738C6.4079 11.2294 6.28443 10.9 6.086 10.616L5.186 9.31605C5.10458 9.198 5.06728 9.05507 5.08063 8.91228C5.09397 8.7695 5.15711 8.63596 5.259 8.53505L8.544 5.24205C8.64502 5.14034 8.77854 5.07731 8.92127 5.06397C9.064 5.05063 9.20688 5.08782 9.325 5.16905L10.625 6.07605C10.9089 6.27447 11.2384 6.39795 11.5828 6.43501C11.9272 6.47207 12.2754 6.42152 12.595 6.28805L13.775 5.80005C14.0959 5.66857 14.3783 5.45806 14.596 5.1881C14.8137 4.91815 14.9595 4.59752 15.02 4.25605L15.3 2.69105C15.3274 2.54892 15.404 2.42096 15.5162 2.32956C15.6285 2.23816 15.7693 2.18913 15.914 2.19105H20.57C20.7126 2.19143 20.8506 2.2416 20.9601 2.33289C21.0697 2.42418 21.1439 2.55086 21.17 2.69105L21.451 4.25405C21.5118 4.5962 21.6582 4.9174 21.8766 5.18773C22.095 5.45805 22.3783 5.66869 22.7 5.80005L23.879 6.28805C24.1986 6.4218 24.5468 6.4725 24.8913 6.43543C25.2357 6.39836 25.5652 6.27473 25.849 6.07605L27.149 5.17605C27.2672 5.09501 27.41 5.05794 27.5527 5.07127C27.6954 5.08461 27.8289 5.14751 27.93 5.24905L31.219 8.53905C31.321 8.64013 31.3841 8.77384 31.3975 8.91679C31.4108 9.05974 31.3735 9.20284 31.292 9.32105L30.392 10.621C30.1939 10.9051 30.0707 11.2346 30.0336 11.5789C29.9965 11.9232 30.0469 12.2713 30.18 12.591L30.68 13.791C30.8122 14.1104 31.0226 14.3914 31.2919 14.6081C31.5612 14.8248 31.8807 14.9702 32.221 15.031L33.786 15.313C33.9263 15.339 34.0531 15.4131 34.1444 15.5227C34.2357 15.6323 34.2858 15.7704 34.286 15.913V20.566Z" fill="#252849"/>
</svg>
