<svg width="10" height="18" viewBox="0 0 10 18" fill="none" xmlns="http://www.w3.org/2000/svg">
    <path d="M6.51802 8.73394L0.281017 14.9739C0.1104 15.1452 0.0146055 15.3772 0.0146055 15.6189C0.0146055 15.8607 0.1104 16.0926 0.281017 16.2639L0.827017 16.8079C0.99819 16.9788 1.23016 17.0748 1.47202 17.0748C1.71387 17.0748 1.94584 16.9788 2.11702 16.8079L9.54302 9.38194C9.7134 9.20971 9.80896 8.97721 9.80896 8.73494C9.80896 8.49267 9.7134 8.26018 9.54302 8.08794L2.12402 0.668943C1.95272 0.498327 1.72079 0.402533 1.47902 0.402533C1.23724 0.402533 1.00532 0.498327 0.834017 0.668943L0.288017 1.21494C0.117156 1.38612 0.0211935 1.61809 0.0211935 1.85994C0.0211935 2.1018 0.117156 2.33377 0.288017 2.50494L6.51802 8.73394Z" fill="#67997D" />
</svg>