<svg width="435" height="60" viewBox="0 0 435 60" fill="none" xmlns="http://www.w3.org/2000/svg">
<path d="M407.228 59.068C406.514 58.982 401.772 58.327 399.371 55.826C396.77 53.118 397 48.505 397 48.505C397.011 48.1381 397.165 47.79 397.428 47.5343C397.691 47.2786 398.044 47.1354 398.411 47.135C398.454 47.135 398.496 47.137 398.537 47.141C399.227 47.171 403.279 47.478 405.7 50.541C407.335 52.7742 408.243 55.4568 408.3 58.224C408.3 58.3554 408.27 58.4851 408.213 58.6033C408.156 58.7216 408.073 58.8253 407.97 58.9068C407.867 58.9882 407.746 59.0452 407.618 59.0735C407.49 59.1017 407.357 59.1006 407.229 59.07L407.228 59.068ZM434.341 58.901C434.225 58.8978 434.111 58.8632 434.013 58.801L411.559 49.601C410.987 49.4175 410.488 49.0572 410.135 48.5719C409.781 48.0866 409.591 47.5015 409.591 46.901C409.591 46.815 409.595 46.73 409.602 46.646L409.594 38.779L409.602 38.773C409.602 38.764 409.602 38.756 409.602 38.747C409.604 38.6339 409.635 38.5232 409.693 38.4258C409.75 38.3285 409.832 38.2478 409.931 38.1917C410.029 38.1356 410.14 38.106 410.253 38.1059C410.366 38.1058 410.478 38.1351 410.576 38.191L433.6 47.909C433.653 47.929 433.705 47.951 433.757 47.975C434.131 48.1515 434.447 48.4307 434.669 48.78C434.89 49.1294 435.007 49.5345 435.007 49.948L435 58.209C435 58.226 435 58.243 435 58.26C434.997 58.4309 434.927 58.5938 434.806 58.7136C434.684 58.8335 434.52 58.9008 434.349 58.901H434.341ZM23.241 58.064C19.5179 57.3004 15.9818 55.8103 12.835 53.679C8.48801 50.7404 5.0142 46.6836 2.77965 41.9362C0.545101 37.1887 -0.367437 31.9263 0.138202 26.7037C0.643841 21.481 2.54893 16.4915 5.65271 12.2609C8.75649 8.03021 12.944 4.71516 17.774 2.66504C19.5344 1.91924 21.3643 1.34979 23.237 0.965038C27.1072 0.175635 31.0968 0.175635 34.967 0.965038C38.6903 1.72927 42.2264 3.22003 45.373 5.35204C49.7201 8.2909 53.1939 12.348 55.4284 17.0958C57.6628 21.8437 58.575 27.1063 58.069 32.3292C57.5629 37.552 55.6573 42.5416 52.5529 46.7722C49.4486 51.0027 45.2605 54.3174 40.43 56.367C38.6697 57.1128 36.8397 57.6823 34.967 58.067C31.0968 58.8564 27.1072 58.8564 23.237 58.067L23.241 58.064ZM9.339 29.516C9.34434 33.4237 10.508 37.2421 12.6829 40.4886C14.8578 43.7351 17.9464 46.264 21.5582 47.7556C25.17 49.2472 29.1429 49.6346 32.9748 48.8689C36.8068 48.1031 40.3257 46.2185 43.0868 43.4533C45.8479 40.6882 47.7273 37.1665 48.4875 33.3335C49.2476 29.5004 48.8544 25.5281 47.3575 21.9185C45.8606 18.3088 43.3272 15.224 40.0775 13.0539C36.8278 10.8837 33.0077 9.72565 29.1 9.72604C23.8572 9.73636 18.8325 11.8256 15.128 15.5356C11.4235 19.2455 9.34164 24.2732 9.339 29.516ZM141.384 57.787V24.094L125.964 57.735V57.787H119.883V57.733L104.246 23.889V57.789H94.256V2.98504H104.246L122.419 42.13H123.235L141.384 3.00104V2.98504H141.391L141.403 2.95804L141.454 2.98504H151.373V57.785L141.384 57.787ZM344.597 57.787H322.947V2.98504H360.736V11.685H332.936V26.036H353.136V34.736H332.936V49.088H360.736V57.788L344.597 57.787ZM261.476 57.787H254.97V57.751L254.913 57.778L232.813 3.12204L243.349 2.96004L259.941 43.775L276.528 2.96104L287.064 3.12304L264.969 57.775H264.959V57.788L261.476 57.787ZM186.992 57.787V2.98504H196.982V57.785L186.992 57.787ZM407.228 44.063C406.514 43.977 401.772 43.322 399.371 40.821C396.771 38.113 397.002 33.5 397.002 33.5C397.013 33.1331 397.167 32.785 397.43 32.5293C397.693 32.2736 398.046 32.1304 398.413 32.13C398.456 32.13 398.498 32.132 398.539 32.136C399.229 32.166 403.281 32.473 405.702 35.536C407.337 37.7692 408.245 40.4518 408.302 43.219C408.302 43.3332 408.28 43.4464 408.236 43.5519C408.193 43.6574 408.129 43.7534 408.048 43.8342C407.967 43.915 407.871 43.9791 407.766 44.0228C407.66 44.0665 407.547 44.089 407.433 44.089C407.364 44.0885 407.295 44.0797 407.228 44.063ZM416.578 37.231L411.11 35.024C411.049 35.002 410.989 34.978 410.93 34.951L410.906 34.941C410.445 34.7284 410.055 34.3861 409.786 33.9559C409.516 33.5257 409.377 33.0262 409.386 32.5185C409.395 32.0107 409.552 31.5165 409.837 31.0963C410.122 30.6761 410.523 30.348 410.992 30.152L433.678 19.804C433.778 19.7629 433.887 19.7472 433.994 19.7586C434.102 19.7699 434.205 19.8078 434.294 19.8689C434.384 19.93 434.456 20.0124 434.506 20.1086C434.555 20.2048 434.58 20.3119 434.578 20.42C434.578 20.436 434.578 20.452 434.578 20.468L434.37 29.003C434.37 29.024 434.37 29.046 434.37 29.067C434.37 29.5225 434.228 29.9666 433.963 30.337C433.698 30.7073 433.323 30.9854 432.892 31.132L419.076 37.265C418.69 37.4689 418.258 37.5727 417.822 37.5667C417.385 37.5608 416.957 37.4454 416.576 37.231H416.578ZM407.228 29.058C406.514 28.972 401.772 28.317 399.371 25.816C396.771 23.108 397.002 18.495 397.002 18.495C397.013 18.1281 397.167 17.78 397.43 17.5243C397.693 17.2686 398.046 17.1254 398.413 17.125C398.456 17.125 398.498 17.1267 398.539 17.13C399.229 17.16 403.281 17.467 405.702 20.53C407.337 22.7632 408.245 25.4458 408.302 28.213C408.302 28.3444 408.272 28.4741 408.215 28.5923C408.158 28.7106 408.075 28.8143 407.972 28.8958C407.869 28.9772 407.748 29.0342 407.62 29.0625C407.492 29.0907 407.359 29.0896 407.231 29.059L407.228 29.058ZM424.982 19.105C424.969 19.1042 424.955 19.1012 424.943 19.096C424.805 19.013 410.592 12.778 410.592 12.778L410.586 12.769C410.256 12.6032 409.974 12.3562 409.765 12.0513C409.557 11.7464 409.43 11.3937 409.395 11.026C409.395 11.0214 409.395 11.0167 409.395 11.012C409.395 11.012 409.395 10.996 409.395 10.979C409.391 10.9264 409.389 10.8734 409.389 10.82C409.389 10.78 409.389 10.74 409.389 10.701C409.382 9.34404 409.389 4.01404 409.389 3.21304C409.384 3.16825 409.381 3.12314 409.382 3.07804C409.384 2.92041 409.424 2.76562 409.499 2.62686C409.574 2.48809 409.681 2.36945 409.812 2.28106C409.942 2.19267 410.092 2.13714 410.249 2.1192C410.405 2.10126 410.564 2.12145 410.711 2.17804L432.847 11.846C433.246 12.0042 433.596 12.2666 433.859 12.6058C434.123 12.9451 434.29 13.3489 434.344 13.775C434.398 14.201 434.337 14.6338 434.167 15.0282C433.997 15.4226 433.724 15.7641 433.377 16.017L429.662 18.53C429.013 19.0534 428.229 19.3839 427.401 19.4842C426.573 19.5844 425.734 19.4503 424.978 19.097L424.982 19.105ZM407.228 14.052C406.514 13.966 401.772 13.311 399.371 10.81C396.77 8.10204 397 3.48904 397 3.48904C397.011 3.12214 397.165 2.77398 397.428 2.51828C397.691 2.26257 398.044 2.11939 398.411 2.11904C398.454 2.11904 398.496 2.12104 398.537 2.12504C399.227 2.15504 403.279 2.46204 405.7 5.52504C407.335 7.75817 408.243 10.4408 408.3 13.208C408.3 13.3394 408.27 13.4691 408.213 13.5873C408.156 13.7056 408.073 13.8093 407.97 13.8908C407.867 13.9722 407.746 14.0292 407.618 14.0575C407.49 14.0857 407.357 14.0846 407.229 14.054L407.228 14.052Z" fill="white"/>
</svg>
