<svg width="56" height="57" viewBox="0 0 56 57" fill="none" xmlns="http://www.w3.org/2000/svg">
<path d="M55.5 28.2148C55.5 13.027 43.1878 0.714844 28 0.714844C12.8122 0.714844 0.5 13.027 0.5 28.2148C0.5 43.4027 12.8122 55.7148 28 55.7148C43.1878 55.7148 55.5 43.4027 55.5 28.2148Z" stroke="black"/>
<path d="M41.664 30.7936L39.019 33.4386V35.5386C39.0177 36.5123 38.6303 37.4458 37.9417 38.1344C37.2532 38.8229 36.3197 39.2103 35.346 39.2116H33.239L30.597 41.8526C30.2561 42.1939 29.8512 42.4646 29.4056 42.6493C28.96 42.834 28.4824 42.929 28 42.929C27.5176 42.929 27.04 42.834 26.5944 42.6493C26.1488 42.4646 25.7439 42.1939 25.403 41.8526L22.764 39.2156H20.654C19.6796 39.2143 18.7455 38.8263 18.0568 38.1369C17.3682 37.4475 16.9813 36.513 16.981 35.5386V33.4386L14.34 30.7936C13.652 30.1042 13.2656 29.1701 13.2656 28.1961C13.2656 27.2222 13.652 26.288 14.34 25.5986L16.981 22.9576V20.8506C16.9823 19.8769 17.3697 18.9434 18.0583 18.2549C18.7468 17.5663 19.6803 17.1789 20.654 17.1776H22.764L25.403 14.5386C26.1027 13.8704 27.033 13.4976 28.0005 13.4976C28.968 13.4976 29.8983 13.8704 30.598 14.5386L33.239 17.1796H35.346C35.6708 17.1796 35.9822 17.3086 36.2119 17.5383C36.4415 17.7679 36.5705 18.0794 36.5705 18.4041C36.5705 18.7289 36.4415 19.0403 36.2119 19.27C35.9822 19.4996 35.6708 19.6286 35.346 19.6286H32.732C32.5711 19.6289 32.4117 19.5973 32.2631 19.5357C32.1145 19.4741 31.9795 19.3836 31.866 19.2696L28.866 16.2696C28.6326 16.0474 28.3227 15.9234 28.0005 15.9234C27.6783 15.9234 27.3684 16.0474 27.135 16.2696L24.135 19.2696C24.0214 19.3836 23.8864 19.4739 23.7378 19.5355C23.5892 19.5971 23.4299 19.6288 23.269 19.6286H20.654C20.3301 19.6291 20.0195 19.7579 19.7901 19.9866C19.5608 20.2154 19.4313 20.5257 19.43 20.8496V23.4636C19.4302 23.6245 19.3985 23.7838 19.3369 23.9324C19.2753 24.0811 19.1849 24.216 19.071 24.3296L16.071 27.3296C15.8419 27.5596 15.7132 27.871 15.7132 28.1956C15.7132 28.5202 15.8419 28.8316 16.071 29.0616L19.071 32.0616C19.1849 32.1752 19.2753 32.3102 19.3369 32.4588C19.3985 32.6074 19.4302 32.7667 19.43 32.9276V35.5386C19.4297 35.6996 19.4612 35.859 19.5226 36.0078C19.584 36.1566 19.6741 36.2918 19.7877 36.4058C19.9014 36.5197 20.0364 36.6101 20.1851 36.6719C20.3337 36.7336 20.493 36.7655 20.654 36.7656H23.269C23.4299 36.7653 23.5893 36.7969 23.7379 36.8585C23.8865 36.9201 24.0215 37.0106 24.135 37.1246L27.135 40.1246C27.3678 40.3475 27.6777 40.4719 28 40.4719C28.3223 40.4719 28.6322 40.3475 28.865 40.1246L31.865 37.1246C31.9786 37.0107 32.1136 36.9203 32.2622 36.8587C32.4108 36.7971 32.5701 36.7654 32.731 36.7656H35.345C35.5061 36.7657 35.6657 36.7341 35.8146 36.6725C35.9634 36.6108 36.0987 36.5204 36.2126 36.4065C36.3264 36.2925 36.4167 36.1572 36.4782 36.0082C36.5397 35.8593 36.5713 35.6997 36.571 35.5386V32.9266C36.5707 32.7657 36.6023 32.6064 36.6639 32.4577C36.7255 32.3091 36.816 32.1741 36.93 32.0606L39.93 29.0606C40.1591 28.8306 40.2878 28.5192 40.2878 28.1946C40.2878 27.87 40.1591 27.5586 39.93 27.3286C39.7005 27.0987 39.5717 26.787 39.5719 26.4621C39.5722 26.1371 39.7016 25.8257 39.9315 25.5961C40.1614 25.3666 40.4732 25.2378 40.7981 25.238C41.123 25.2383 41.4345 25.3677 41.664 25.5976C42.351 26.2873 42.7367 27.2211 42.7367 28.1946C42.7367 29.1681 42.351 30.1019 41.664 30.7916V30.7936ZM26.391 30.2756L22.691 26.6176C22.5776 26.5004 22.442 26.407 22.2921 26.3429C22.1421 26.2788 21.9809 26.2453 21.8179 26.2443C21.6548 26.2433 21.4932 26.2749 21.3425 26.3372C21.1918 26.3995 21.055 26.4912 20.9403 26.607C20.8255 26.7229 20.735 26.8605 20.6741 27.0117C20.6132 27.163 20.5831 27.3249 20.5856 27.488C20.5881 27.651 20.6231 27.8119 20.6886 27.9612C20.7541 28.1106 20.8487 28.2453 20.967 28.3576L24.667 32.0176C25.3953 32.7351 26.3769 33.1368 27.3992 33.1357C28.4216 33.1346 29.4023 32.7307 30.129 32.0116L41.064 21.1496C41.2823 20.9183 41.402 20.6111 41.3979 20.2931C41.3937 19.9751 41.2661 19.6711 41.0419 19.4455C40.8177 19.2199 40.5146 19.0904 40.1966 19.0842C39.8786 19.0781 39.5707 19.1958 39.338 19.4126L28.403 30.2746C28.1351 30.5397 27.7734 30.6884 27.3965 30.6884C27.0196 30.6884 26.6579 30.5397 26.39 30.2746L26.391 30.2756Z" fill="#090909"/>
</svg>
