<svg width="28" height="29" viewBox="0 0 28 29" fill="none" xmlns="http://www.w3.org/2000/svg">
<path opacity="0.8" d="M26.717 16.9339L24.23 19.4189V21.4029C24.2289 22.3192 23.8645 23.1976 23.2166 23.8455C22.5687 24.4934 21.6902 24.8578 20.774 24.8589H18.792L16.306 27.3429C15.9852 27.6638 15.6044 27.9184 15.1852 28.0921C14.766 28.2658 14.3167 28.3552 13.863 28.3552C13.4092 28.3552 12.9599 28.2658 12.5408 28.0921C12.1216 27.9184 11.7407 27.6638 11.42 27.3429L8.93498 24.8579H6.95198C6.03641 24.856 5.1589 24.4914 4.51168 23.8438C3.86446 23.1962 3.5003 22.3185 3.49898 21.4029V19.4189L1.01098 16.9339C0.36375 16.2854 0.000244141 15.4066 0.000244141 14.4904C0.000244141 13.5742 0.36375 12.6954 1.01098 12.0469L3.49898 9.56189V7.57989C3.50004 6.66415 3.86408 5.78617 4.51133 5.13836C5.15858 4.49055 6.03624 4.12574 6.95198 4.12389H8.93498L11.42 1.63789C12.0783 1.00953 12.9534 0.658936 13.8635 0.658936C14.7736 0.658936 15.6487 1.00953 16.307 1.63789L18.792 4.12289H20.774C21.0673 4.14019 21.3428 4.26889 21.5444 4.48266C21.7459 4.69642 21.8581 4.97911 21.8581 5.27289C21.8581 5.56667 21.7459 5.84936 21.5444 6.06312C21.3428 6.27689 21.0673 6.40559 20.774 6.42289H18.315C18.1637 6.42301 18.0139 6.39321 17.8742 6.3352C17.7345 6.27719 17.6077 6.19212 17.501 6.08489L14.677 3.26589C14.4574 3.05674 14.1657 2.94008 13.8625 2.94008C13.5592 2.94008 13.2676 3.05674 13.048 3.26589L10.226 6.08889C10.1192 6.19603 9.99236 6.28104 9.85268 6.33905C9.71299 6.39705 9.56323 6.4269 9.41198 6.42689H6.95198C6.64653 6.42689 6.35357 6.54809 6.13739 6.76389C5.92122 6.97969 5.79951 7.27244 5.79898 7.57789V10.0379C5.79899 10.1891 5.76914 10.3389 5.71114 10.4786C5.65313 10.6183 5.56812 10.7451 5.46098 10.8519L2.63998 13.6739C2.42418 13.8902 2.30298 14.1833 2.30298 14.4889C2.30298 14.7945 2.42418 15.0876 2.63998 15.3039L5.46198 18.1259C5.56912 18.2326 5.65413 18.3595 5.71214 18.4992C5.77014 18.6389 5.79999 18.7886 5.79998 18.9399V21.4029C5.80051 21.7081 5.92212 22.0006 6.1381 22.2162C6.35409 22.4318 6.6468 22.5529 6.95198 22.5529H9.41198C9.56325 22.5528 9.71304 22.5826 9.85274 22.6406C9.99244 22.6986 10.1193 22.7837 10.226 22.8909L13.049 25.7129C13.2681 25.9227 13.5597 26.0398 13.863 26.0398C14.1663 26.0398 14.4579 25.9227 14.677 25.7129L17.499 22.8909C17.6057 22.7837 17.7326 22.6987 17.8723 22.6407C18.012 22.5827 18.1617 22.5529 18.313 22.5529H20.772C20.9233 22.5532 21.0731 22.5236 21.213 22.466C21.3529 22.4083 21.48 22.3237 21.5872 22.2169C21.6943 22.1101 21.7794 21.9833 21.8375 21.8436C21.8957 21.7039 21.9257 21.5542 21.926 21.4029V18.9429C21.9259 18.7916 21.9557 18.6418 22.0137 18.5021C22.0717 18.3624 22.1567 18.2356 22.264 18.1289L25.087 15.3029C25.3028 15.0866 25.424 14.7935 25.424 14.4879C25.424 14.1823 25.3028 13.8892 25.087 13.6729C24.98 13.5659 24.8952 13.4388 24.8373 13.299C24.7795 13.1592 24.7497 13.0093 24.7498 12.858C24.7498 12.5524 24.8713 12.2594 25.0875 12.0434C25.3036 11.8274 25.5967 11.7061 25.9023 11.7062C26.2079 11.7063 26.501 11.8277 26.717 12.0439C27.3632 12.6927 27.726 13.5712 27.726 14.4869C27.726 15.4026 27.3632 16.281 26.717 16.9299V16.9339ZM12.348 16.4469L8.87198 13.0029C8.6549 12.7878 8.36127 12.6678 8.05568 12.6692C7.75009 12.6706 7.45757 12.7933 7.24248 13.0104C7.02739 13.2275 6.90734 13.5211 6.90875 13.8267C6.91016 14.1323 7.0329 14.4248 7.24998 14.6399L10.728 18.0829C11.4132 18.7579 12.3368 19.1358 13.2987 19.1347C14.2606 19.1336 15.1833 18.7535 15.867 18.0769L26.153 7.86089C26.3698 7.64553 26.4922 7.35287 26.4932 7.04728C26.4942 6.74169 26.3738 6.44821 26.1585 6.23139C25.9431 6.01458 25.6505 5.89219 25.3449 5.89116C25.0393 5.89013 24.7458 6.01053 24.529 6.22589L14.242 16.4459C13.99 16.6954 13.6496 16.8354 13.295 16.8354C12.9403 16.8354 12.6 16.6954 12.348 16.4459V16.4469Z" fill="black"/>
</svg>
